<svg width="119" height="71" viewBox="0 0 119 71" fill="none" xmlns="http://www.w3.org/2000/svg">
<path d="M76.4766 40.7662L45.8195 35.3606C45.5253 35.3087 45.2225 35.3758 44.9777 35.5472C44.733 35.7185 44.5663 35.9801 44.5145 36.2744L41.2959 54.5278C41.0977 55.66 41.3566 56.8245 42.0159 57.7661C42.6752 58.7076 43.681 59.3493 44.8127 59.5502L69.1511 63.8418C70.2832 64.0399 71.4476 63.7809 72.3888 63.1215C73.3301 62.4622 73.9713 61.4563 74.1718 60.3247L77.3904 42.0713C77.4423 41.777 77.3752 41.4742 77.2038 41.2295C77.0324 40.9848 76.7708 40.8181 76.4766 40.7662ZM54.08 58.8928L45.2045 57.3278C44.6608 57.231 44.1776 56.9225 43.861 56.4699C43.5444 56.0173 43.4203 55.4577 43.5157 54.9137L46.5389 37.768L57.4652 39.6946L54.08 58.8928ZM59.1423 59.7855L56.3696 59.2966L59.7539 40.1036L62.5266 40.5925L59.1423 59.7855ZM71.9557 59.9284C71.8593 60.4723 71.5512 60.9557 71.0989 61.2727C70.6466 61.5897 70.0871 61.7143 69.543 61.6194L61.4337 60.1895L64.818 40.9965L74.978 42.788L71.9557 59.9284ZM80.1453 29.7896L79.7815 25.303C79.6925 23.9492 79.1838 22.6569 78.3263 21.6055C77.4178 20.5496 76.2171 20.0021 75.0104 20.0995L64.4605 20.954C64.6072 20.7738 64.7528 20.5896 64.8878 20.3927C65.1604 19.3953 66.3616 18.6566 66.1656 16.2503C66.1162 15.6304 65.0577 14.163 64.4375 14.2142C62.6396 13.4009 60.2966 14.9764 59.1667 17.7109C58.8626 17.211 58.5117 16.741 58.1189 16.3074C58.0379 16.2183 57.9294 16.1609 57.8493 16.0774C56.5516 14.6627 55.7752 14.6061 54.5934 14.7279C54.0427 14.7881 53.5295 15.0362 53.1403 15.4305C52.751 15.8247 52.5096 16.3411 52.4566 16.8926C52.3273 18.2053 52.51 19.4453 53.9393 21.2827C54.0932 21.4602 54.2629 21.6233 54.4464 21.7699L43.8964 22.6244C42.6954 22.71 41.5973 23.4541 40.8722 24.6381C40.1936 25.8132 39.8993 27.171 40.0305 28.5217L40.3925 33.0079C40.4177 33.3053 40.5594 33.5806 40.7868 33.7738C41.0142 33.967 41.3088 34.0625 41.6063 34.0393L79.1142 31.0017C79.1902 30.9963 79.2654 30.9827 79.3385 30.961C79.5872 30.8883 79.8032 30.7321 79.9501 30.5187C80.0971 30.3053 80.166 30.0479 80.1453 29.7896ZM61.0292 19.1303C61.3118 18.2103 61.7875 17.3612 62.4243 16.6396C63.0389 15.958 64.1519 16.6304 63.846 17.496C63.6443 18.0715 63.3688 18.6184 63.0264 19.123C62.8288 19.413 62.6062 19.6851 62.3612 19.9362C62.2357 20.067 62.0694 20.1512 61.8897 20.1749C61.71 20.1986 61.5276 20.1604 61.3725 20.0665C61.2174 19.9727 61.0989 19.8289 61.0365 19.6587C60.9741 19.4885 60.9715 19.3021 61.0292 19.1303ZM54.3272 17.9139C54.2493 17.7614 54.2244 17.5872 54.2567 17.419C54.289 17.2509 54.3765 17.0982 54.5053 16.9854C54.6341 16.8726 54.797 16.806 54.9679 16.7962C55.1389 16.7864 55.3083 16.8339 55.4492 16.9313C55.7816 17.1619 56.0896 17.4259 56.3684 17.7192C56.9045 18.2838 57.3448 18.932 57.672 19.6385C57.7381 19.7861 57.7542 19.9513 57.718 20.109C57.6817 20.2667 57.595 20.4082 57.4711 20.5122C57.3471 20.6162 57.1927 20.6769 57.0311 20.6852C56.8695 20.6935 56.7096 20.6488 56.5757 20.5581C56.2108 20.3195 55.8744 20.0398 55.5733 19.7245C55.0663 19.1895 54.6458 18.5786 54.3272 17.9139ZM42.5445 31.7089L42.2739 28.3389C42.1864 27.4603 42.3691 26.576 42.7975 25.804C42.998 25.4745 43.4286 24.9155 44.0822 24.8611L75.1929 22.3447C75.8412 22.2894 76.3616 22.7734 76.6126 23.0676C77.1641 23.7588 77.4897 24.6028 77.5455 25.4853L77.8187 28.8503L42.5445 31.7089Z" fill="url(#paint0_linear_17_20809)"/>
<path d="M28.1345 9.31127C28.0917 9.22451 28.032 9.14727 27.959 9.08413C27.8859 9.02098 27.801 8.97321 27.7092 8.94365C27.6175 8.91409 27.5207 8.90334 27.4247 8.91203C27.3287 8.92073 27.2354 8.94869 27.1503 8.99427L23.8873 10.6371L24.3708 7.43734C24.3854 7.34172 24.3811 7.24415 24.3581 7.15022C24.3352 7.05629 24.294 6.96784 24.237 6.88994C24.1799 6.81204 24.1081 6.7462 24.0257 6.69621C23.9433 6.64622 23.8519 6.61305 23.7567 6.5986L23.6896 6.59462C23.5081 6.5833 23.329 6.64137 23.1883 6.75717C23.0476 6.87297 22.9556 7.03793 22.9309 7.21894L22.2838 11.4335L19.963 12.6031L20.7326 7.74328C20.7392 7.63251 20.5937 7.61179 20.566 7.51107C20.5383 7.41035 20.6853 7.32484 20.6283 7.23204C20.5146 7.08423 20.3475 6.98747 20.1632 6.96278C20.1368 6.96121 20.1497 6.9064 20.1212 6.89987L20.0469 6.89546C19.8938 6.88531 19.7415 6.92452 19.6121 7.00739L15.487 9.6405L15.6416 7.03745L19.2633 4.78042C19.39 4.69556 19.4873 4.57328 19.5419 4.43047C19.5964 4.28767 19.6055 4.13138 19.5678 3.98323C19.5301 3.83507 19.4476 3.70236 19.3315 3.60343C19.2155 3.5045 19.0717 3.44424 18.9201 3.43097C18.769 3.42301 18.6191 3.46129 18.4902 3.54077L15.7485 5.23626L15.9658 1.5761C15.9774 1.38132 15.9115 1.18994 15.7825 1.04406C15.6536 0.898189 15.4723 0.809771 15.2784 0.798259C15.0845 0.786747 14.894 0.853085 14.7487 0.982679C14.6034 1.11227 14.5153 1.29451 14.5037 1.48929L14.2864 5.14945L11.7605 3.12912C11.6429 3.04111 11.502 2.98989 11.3555 2.98183C11.1998 2.97192 11.0449 3.01225 10.9135 3.09696C10.7822 3.18166 10.6811 3.3063 10.6252 3.4527C10.5692 3.59909 10.5613 3.7596 10.6025 3.9108C10.6437 4.062 10.732 4.19598 10.8543 4.29322L14.1819 6.95078L14.0273 9.55383L10.2286 6.44541C10.1114 6.34446 9.96484 6.28408 9.81072 6.27319L9.73642 6.26878C9.70766 6.26707 9.7141 6.32062 9.68491 6.32613C9.49897 6.32884 9.32157 6.40515 9.19124 6.53847C9.12123 6.62372 9.24537 6.72051 9.22005 6.82291C9.19473 6.92532 9.02172 6.92229 9.02713 7.03377L9.21627 11.9505L7.05014 10.5145L6.93506 6.25469C6.92869 6.07306 6.85584 5.90021 6.73046 5.76926C6.60509 5.6383 6.436 5.55844 6.2556 5.54498L6.18849 5.54099C6.09224 5.54408 5.99754 5.56619 5.9098 5.60608C5.82205 5.64597 5.74299 5.70285 5.67714 5.77345C5.61128 5.84406 5.55993 5.92702 5.52601 6.01757C5.4921 6.10812 5.47628 6.20449 5.47948 6.30117L5.58089 9.53562L2.52481 7.53213C2.36367 7.42349 2.16624 7.38335 1.97565 7.42048C1.78506 7.45761 1.6168 7.56899 1.50762 7.7303C1.45295 7.81054 1.41492 7.90101 1.39581 7.99631C1.3767 8.09162 1.37689 8.1898 1.39638 8.28501C1.41587 8.38022 1.45426 8.47049 1.50925 8.55045C1.56424 8.6304 1.63471 8.6984 1.71645 8.75038L4.76193 10.7702L1.76219 11.9501C1.66854 11.9823 1.58235 12.0332 1.5088 12.0997C1.43526 12.1662 1.37589 12.2471 1.33428 12.3373C1.29268 12.4275 1.2697 12.5252 1.26673 12.6246C1.26377 12.724 1.28087 12.8229 1.31702 12.9154C1.35317 13.0079 1.40761 13.0921 1.47705 13.1629C1.5465 13.2337 1.62951 13.2896 1.72107 13.3272C1.81263 13.3648 1.91085 13.3834 2.00979 13.3819C2.10872 13.3803 2.20634 13.3587 2.29673 13.3182L6.26178 11.7606L8.42776 13.1989L3.8478 14.9447C3.78122 14.9722 3.82569 15.0739 3.77279 15.1143C3.66768 15.1829 3.52867 15.1747 3.45906 15.2938C3.38944 15.4129 3.55365 15.4831 3.55384 15.6015C3.55402 15.7199 3.37744 15.7771 3.42331 15.8958C3.46918 16.0145 3.60812 15.943 3.68322 16.0151C3.75831 16.0872 3.67006 16.2367 3.76802 16.2884L8.10907 18.5663L5.78825 19.7358L2.03551 17.7176C1.94164 17.6684 1.83833 17.64 1.73257 17.6343C1.56584 17.6243 1.40065 17.6717 1.2644 17.7689C1.12816 17.8661 1.02905 18.0071 0.983522 18.1686C0.93799 18.3301 0.948771 18.5023 1.01408 18.6567C1.07938 18.8112 1.19528 18.9385 1.34256 19.0176L4.18146 20.5466L0.919226 22.1774C0.827763 22.2175 0.745389 22.276 0.677127 22.3491C0.608865 22.4223 0.556146 22.5086 0.522185 22.6029C0.488225 22.6972 0.473734 22.7975 0.479598 22.8975C0.485462 22.9976 0.511557 23.0954 0.556291 23.185C0.601026 23.2746 0.663462 23.3541 0.739792 23.4186C0.816123 23.4832 0.904747 23.5314 1.00026 23.5604C1.09577 23.5893 1.19617 23.5985 1.29534 23.5872C1.3945 23.5759 1.49035 23.5445 1.57704 23.4948L4.83998 21.852L4.35583 25.0637C4.34147 25.1594 4.34599 25.2569 4.36914 25.3507C4.39229 25.4446 4.43362 25.5329 4.49076 25.6107C4.5479 25.6884 4.61973 25.7541 4.70216 25.804C4.78459 25.8539 4.876 25.887 4.97117 25.9013C5.06635 25.9157 5.16341 25.9111 5.25684 25.8878C5.35026 25.8645 5.43821 25.8229 5.51566 25.7655C5.59312 25.708 5.65856 25.6358 5.70825 25.553C5.75794 25.4702 5.79091 25.3783 5.80527 25.2827L6.44352 21.0555L8.7642 19.8884L7.99458 24.7482C7.97617 24.8558 8.13125 24.8771 8.1612 24.9804C8.19114 25.0836 8.03965 25.1641 8.09893 25.2594C8.15821 25.3547 8.30985 25.2719 8.41231 25.3288C8.51477 25.3856 8.47711 25.5742 8.60175 25.5816C8.72639 25.5891 8.73271 25.442 8.83299 25.4141C8.93326 25.3863 9.01816 25.5363 9.1107 25.4765L13.2381 22.846L13.0835 25.449L9.46419 27.7062C9.2986 27.8092 9.18046 27.974 9.13578 28.1644C9.09109 28.3548 9.12352 28.5552 9.22592 28.7215C9.32832 28.8878 9.49231 29.0064 9.68181 29.0512C9.87132 29.0959 10.0708 29.0633 10.2364 28.9603L12.9836 27.2531L12.7663 30.9132C12.7547 31.108 12.8207 31.2994 12.9496 31.4453C13.0785 31.5911 13.2599 31.6795 13.4537 31.6911C13.6476 31.7026 13.8382 31.6362 13.9834 31.5066C14.1287 31.377 14.2168 31.1948 14.2284 31L14.4463 27.3302L16.9722 29.3506C17.1244 29.4724 17.3187 29.5285 17.5121 29.5064C17.7056 29.4844 17.8825 29.386 18.0038 29.233C18.1252 29.08 18.1811 28.8848 18.1593 28.6905C18.1374 28.4961 18.0396 28.3185 17.8874 28.1967L14.5432 25.5357L14.6978 22.9327L18.4964 26.0411C18.5813 26.1114 18.6777 25.9866 18.7796 26.012C18.8815 26.0374 18.8761 26.2086 18.9894 26.2057C19.1026 26.2027 19.1057 26.0289 19.205 25.9768C19.3043 25.9247 19.4417 26.0416 19.5268 25.9452C19.6119 25.8487 19.4728 25.7607 19.498 25.6607C19.5232 25.5607 19.6964 25.5589 19.6909 25.4499L19.5018 20.5332L21.6589 21.9589L21.7923 26.2343C21.7952 26.331 21.8171 26.4261 21.8566 26.5142C21.8962 26.6024 21.9526 26.6818 22.0227 26.748C22.0928 26.8142 22.1752 26.8659 22.2653 26.9001C22.3553 26.9343 22.4511 26.9503 22.5473 26.9473C22.6435 26.9443 22.7382 26.9223 22.8259 26.8825C22.9137 26.8428 22.9928 26.786 23.0587 26.7155C23.1247 26.6451 23.1762 26.5623 23.2103 26.4718C23.2444 26.3814 23.2604 26.2851 23.2574 26.1884L23.1563 22.9492L26.2019 24.9665C26.3656 25.0743 26.5651 25.1123 26.7567 25.0723C26.9483 25.0322 27.1163 24.9173 27.2237 24.7529C27.331 24.5885 27.369 24.388 27.3292 24.1955C27.2895 24.0031 27.1752 23.8344 27.0116 23.7266L23.9636 21.7091L26.9659 20.5269C27.0554 20.4916 27.1373 20.4389 27.2066 20.3719C27.2759 20.3048 27.3315 20.2247 27.37 20.1361C27.4085 20.0475 27.4293 19.9522 27.4312 19.8555C27.4331 19.7589 27.416 19.6628 27.3809 19.5729C27.3458 19.4829 27.2934 19.4007 27.2267 19.3311C27.16 19.2615 27.0803 19.2057 26.9921 19.167C26.904 19.1284 26.8091 19.1075 26.7129 19.1057C26.6167 19.1039 26.5211 19.1211 26.4315 19.1564L22.4657 20.7261L20.2996 19.2901L24.8797 17.5419C24.9855 17.5023 24.9244 17.3561 24.9964 17.2782C25.0683 17.2003 25.2193 17.2914 25.2684 17.1928C25.3176 17.0943 25.1738 17.0036 25.1736 16.8851C25.1735 16.7667 25.35 16.7096 25.3042 16.5908C25.2583 16.4721 25.1125 16.4562 25.0163 16.3756C24.9661 16.3291 25.0247 16.2335 24.9595 16.1982L20.6183 13.9227L22.9389 12.7556L26.6921 14.7666C26.8633 14.8588 27.0641 14.8789 27.2501 14.8224C27.4361 14.766 27.5923 14.6376 27.6841 14.4655C27.776 14.2934 27.7961 14.0918 27.74 13.9049C27.6839 13.718 27.5561 13.5612 27.3849 13.469L24.5433 11.9447L27.8088 10.2996C27.8959 10.2574 27.9738 10.1981 28.0376 10.1251C28.1014 10.0521 28.15 9.96697 28.1804 9.87474C28.2108 9.78251 28.2224 9.68509 28.2145 9.58829C28.2066 9.49148 28.1794 9.39727 28.1345 9.31127ZM5.89319 15.7404L9.93691 14.1947L12.8992 16.1564L9.72559 17.7537L5.89319 15.7404ZM13.3457 21.0328L9.69082 23.3627L10.3809 19.0734L13.5569 17.4761L13.3457 21.0328ZM13.7083 14.9261L10.7436 12.9643L10.566 8.62336L13.9196 11.3671L13.7083 14.9261ZM15.3793 11.4537L19.0365 9.1263L18.3441 13.4155L15.168 15.0127L15.3793 11.4537ZM14.8054 21.1194L15.0166 17.5628L17.979 19.5245L18.159 23.8655L14.8054 21.1194ZM22.8319 16.7461L18.7906 18.2919L15.8282 16.3303L19.0019 14.7329L22.8319 16.7461Z" fill="url(#paint1_linear_17_20809)"/>
<path d="M101.058 44.7993C100.99 44.7839 100.92 44.7821 100.852 44.7942C100.784 44.8062 100.719 44.8318 100.661 44.8694C100.603 44.9071 100.554 44.956 100.515 45.0132C100.477 45.0705 100.45 45.135 100.437 45.2028L99.8749 47.7578L98.3159 46.0434C98.2693 45.992 98.2132 45.9503 98.1506 45.9206C98.0881 45.8909 98.0203 45.8738 97.9513 45.8703C97.8822 45.8668 97.8132 45.8769 97.7482 45.9001C97.6832 45.9233 97.6235 45.9591 97.5724 46.0055L97.5399 46.0409C97.4516 46.1367 97.4029 46.2624 97.4037 46.3929C97.4044 46.5234 97.4545 46.649 97.5439 46.7445L99.5928 49.0086L99.1937 50.8264L96.8418 48.2027C96.7832 48.149 96.7059 48.2205 96.6375 48.1903C96.569 48.1602 96.5879 48.0399 96.5106 48.0296C96.3771 48.026 96.2479 48.0751 96.1508 48.1663C96.1381 48.1803 96.1134 48.1484 96.0969 48.1612L96.0609 48.2005C95.9861 48.281 95.939 48.3833 95.9266 48.4926L95.5253 51.9741L94.149 50.712L94.5318 47.6801C94.5419 47.5713 94.518 47.462 94.4633 47.3671C94.4086 47.2723 94.3259 47.1966 94.2266 47.1506C94.1273 47.1046 94.0162 47.0905 93.9088 47.1103C93.8014 47.13 93.703 47.1827 93.6271 47.2609C93.5544 47.3412 93.5079 47.4418 93.4938 47.5493L93.1968 49.8386L91.2616 48.0639C91.1587 47.9694 91.0226 47.9196 90.8833 47.9253C90.744 47.931 90.6129 47.9918 90.5189 48.0943C90.4249 48.1968 90.3756 48.3326 90.382 48.4719C90.3883 48.6111 90.4497 48.7424 90.5527 48.8369L92.4878 50.6116L90.224 51.1018C90.122 51.1274 90.0299 51.1825 89.9592 51.2603C89.8833 51.3423 89.8357 51.4466 89.8234 51.5578C89.8111 51.6691 89.8347 51.7815 89.8907 51.8788C89.9468 51.976 90.0324 52.053 90.135 52.0984C90.2376 52.1438 90.3519 52.1553 90.4612 52.1313L93.4413 51.4837L94.8175 52.7459L91.3741 53.4514C91.265 53.471 91.1652 53.5251 91.0896 53.6058L91.0535 53.6451C91.0396 53.6603 91.0722 53.6809 91.0621 53.6996C90.9796 53.8041 90.9418 53.9372 90.957 54.0698C90.9727 54.1472 91.0826 54.122 91.128 54.1823C91.1735 54.2427 91.0936 54.3374 91.158 54.3848L93.9748 56.5015L92.1983 57.056L89.7798 55.1949C89.676 55.1164 89.5471 55.0788 89.4177 55.0892C89.2883 55.0997 89.1675 55.1575 89.0785 55.2517L89.0459 55.2872C89.0042 55.342 88.9737 55.4046 88.9562 55.4714C88.9387 55.5382 88.9345 55.6078 88.944 55.6763C88.9535 55.7448 88.9763 55.8108 89.0113 55.8705C89.0463 55.9303 89.0927 55.9826 89.1478 56.0246L90.9905 57.4298L88.4965 58.2222C88.3633 58.2626 88.2518 58.3542 88.1863 58.4768C88.1208 58.5995 88.1066 58.7433 88.1469 58.8768C88.1668 58.9435 88.1999 59.0055 88.2442 59.0592C88.2885 59.1129 88.3431 59.1571 88.4048 59.1893C88.4665 59.2215 88.534 59.241 88.6033 59.2466C88.6725 59.2521 88.7421 59.2437 88.808 59.2218L91.3062 58.4427L90.6062 60.6423C90.5817 60.7089 90.571 60.7798 90.5748 60.8507C90.5785 60.9216 90.5966 60.9911 90.6279 61.055C90.6592 61.1189 90.7031 61.1758 90.757 61.2224C90.8108 61.2689 90.8735 61.3041 90.9412 61.3258C91.009 61.3476 91.0803 61.3554 91.151 61.3488C91.2217 61.3422 91.2903 61.3213 91.3526 61.2875C91.4149 61.2536 91.4696 61.2075 91.5134 61.1518C91.5573 61.0961 91.5894 61.0321 91.6077 60.9636L92.5342 58.057L94.312 57.5037L93.2122 60.837C93.1974 60.8864 93.274 60.9076 93.2725 60.9552C93.2632 61.0447 93.1958 61.1182 93.2305 61.2107C93.2652 61.3031 93.3784 61.2436 93.4442 61.297C93.5101 61.3505 93.4621 61.4744 93.5487 61.5026C93.6354 61.5307 93.6585 61.4212 93.7325 61.4121C93.8065 61.403 93.8496 61.5195 93.9226 61.4885L97.1498 60.1063L96.7507 61.9241L93.9337 63.0968C93.8639 63.1267 93.8014 63.1712 93.7505 63.2274C93.6696 63.3155 93.6213 63.4287 93.6137 63.5483C93.6061 63.6679 93.6397 63.7867 93.7088 63.885C93.778 63.9833 93.8785 64.0551 93.9938 64.0886C94.1091 64.1221 94.2322 64.1153 94.3427 64.0692L96.475 63.1831L95.9068 65.7322C95.8877 65.8012 95.883 65.8734 95.8928 65.9444C95.9026 66.0153 95.9267 66.0836 95.9637 66.1451C96.0008 66.2066 96.0499 66.2599 96.1082 66.3019C96.1664 66.3439 96.2325 66.3736 96.3025 66.3892C96.3725 66.4048 96.4449 66.4061 96.5152 66.3928C96.5856 66.3796 96.6524 66.3522 96.7117 66.3122C96.7709 66.2722 96.8214 66.2206 96.8599 66.1604C96.8985 66.1002 96.9243 66.0328 96.9359 65.9621L97.4978 63.4071L99.0632 65.1274C99.1098 65.1786 99.166 65.2202 99.2286 65.2497C99.2912 65.2793 99.359 65.2962 99.428 65.2996C99.497 65.303 99.566 65.2928 99.6309 65.2696C99.6959 65.2463 99.7556 65.2105 99.8066 65.1641C99.8576 65.1177 99.8989 65.0617 99.9281 64.9993C99.9574 64.9369 99.9741 64.8692 99.9772 64.8002C99.9802 64.7313 99.9697 64.6623 99.9461 64.5972C99.9226 64.5322 99.8865 64.4724 99.8398 64.4212L97.7799 62.1564L98.1802 60.3398L100.532 62.9634C100.584 63.0223 100.666 62.9458 100.736 62.9758C100.807 63.0058 100.784 63.1263 100.863 63.1365C100.943 63.1466 100.966 63.025 101.044 62.9937C101.121 62.9625 101.209 63.0687 101.27 63.0028C101.33 62.9369 101.251 62.8669 101.281 62.7986C101.311 62.7303 101.433 62.7509 101.441 62.6725L101.845 59.1909L103.221 60.4531L102.84 63.4837C102.822 63.6222 102.86 63.7624 102.946 63.8732C103.031 63.9841 103.157 64.0566 103.296 64.0749C103.435 64.0932 103.575 64.0556 103.685 63.9706C103.796 63.8856 103.868 63.76 103.885 63.6215L104.178 61.3238L106.113 63.0985C106.216 63.193 106.352 63.2428 106.492 63.2371C106.631 63.2314 106.762 63.1706 106.856 63.0681C106.95 62.9656 106.999 62.8298 106.993 62.6905C106.987 62.5513 106.925 62.42 106.822 62.3255L104.882 60.5461L107.146 60.0559C107.282 60.0264 107.401 59.9438 107.476 59.8264C107.552 59.7089 107.577 59.5662 107.547 59.4297C107.517 59.2931 107.433 59.1739 107.316 59.0982C107.198 59.0225 107.055 58.9965 106.918 59.0261L103.929 59.6814L102.553 58.4192L105.996 57.7136C106.074 57.6982 106.048 57.5883 106.108 57.5432C106.168 57.498 106.261 57.5784 106.31 57.5141C106.36 57.4499 106.265 57.3697 106.281 57.2909C106.297 57.2122 106.424 57.1887 106.409 57.0979C106.393 57.007 106.282 57.0445 106.237 56.9854C106.193 56.9262 106.271 56.8291 106.208 56.7829L103.391 54.6661L105.157 54.1121L107.593 55.97C107.648 56.0121 107.711 56.0429 107.777 56.0607C107.844 56.0786 107.914 56.0832 107.982 56.0741C108.051 56.0651 108.117 56.0427 108.176 56.0081C108.236 55.9736 108.288 55.9276 108.33 55.8728C108.372 55.818 108.403 55.7554 108.42 55.6887C108.438 55.622 108.442 55.5524 108.433 55.4839C108.423 55.4154 108.4 55.3494 108.366 55.2896C108.331 55.2298 108.285 55.1774 108.229 55.1353L106.384 53.7277L108.881 52.9474C109.015 52.9052 109.126 52.8115 109.191 52.687C109.255 52.5625 109.267 52.4172 109.224 52.2833C109.182 52.1493 109.087 52.0376 108.962 51.9728C108.838 51.9079 108.692 51.8951 108.558 51.9373L106.06 52.7189L106.76 50.5168C106.781 50.4511 106.789 50.3818 106.783 50.313C106.777 50.2442 106.758 50.1771 106.726 50.1157C106.694 50.0542 106.65 49.9996 106.597 49.9549C106.545 49.9102 106.484 49.8763 106.418 49.8551C106.352 49.8339 106.283 49.8259 106.214 49.8315C106.145 49.8371 106.078 49.8562 106.017 49.8877C105.955 49.9192 105.901 49.9625 105.856 50.0151C105.812 50.0677 105.778 50.1286 105.757 50.1944L104.837 53.1068L103.061 53.6612L104.159 50.3268C104.185 50.2501 104.076 50.218 104.065 50.1428C104.055 50.0676 104.173 50.025 104.141 49.9531C104.108 49.8813 103.993 49.9202 103.927 49.8667C103.861 49.8133 103.909 49.6894 103.823 49.6612C103.736 49.6331 103.661 49.7069 103.573 49.7239C103.525 49.7308 103.498 49.655 103.449 49.6753L100.223 51.0587L100.623 49.2421L103.436 48.0659C103.565 48.0124 103.667 47.91 103.72 47.7811C103.772 47.6522 103.772 47.5075 103.717 47.3787C103.663 47.2499 103.56 47.1476 103.431 47.0943C103.302 47.041 103.157 47.0411 103.029 47.0946L100.898 47.9843L101.46 45.4269C101.476 45.3594 101.478 45.2894 101.466 45.2209C101.454 45.1525 101.429 45.087 101.391 45.0285C101.354 44.9699 101.305 44.9194 101.248 44.8801C101.19 44.8407 101.126 44.8132 101.058 44.7993ZM94.5785 60.0602L95.5472 57.1154L97.9756 56.3562L97.4288 58.841L94.5785 60.0602ZM100.886 58.3117L100.529 61.395L98.458 59.0734L99.006 56.5872L100.886 58.3117ZM97.6578 55.3507L95.2282 56.1112L92.7364 54.2483L95.7761 53.6251L97.6578 55.3507ZM96.4839 52.8533L96.8436 49.7699L98.9135 52.0929L98.3655 54.579L96.4839 52.8533ZM101.594 57.54L99.7138 55.8155L102.142 55.0563L104.635 56.918L101.594 57.54ZM102.792 51.1048L101.824 54.0484L99.3958 54.8076L99.9426 52.3227L102.792 51.1048Z" fill="url(#paint2_linear_17_20809)"/>
<path d="M107.548 28.2412C107.51 28.2639 107.477 28.2939 107.45 28.3296C107.424 28.3652 107.405 28.4057 107.395 28.4487C107.385 28.4917 107.383 28.5364 107.391 28.5799C107.398 28.6235 107.414 28.6652 107.438 28.7025L108.305 30.1359L106.825 30.0285C106.781 30.0252 106.736 30.0307 106.694 30.0445C106.652 30.0583 106.613 30.0803 106.579 30.1091C106.546 30.138 106.518 30.1731 106.498 30.2126C106.478 30.252 106.466 30.295 106.463 30.339L106.464 30.3699C106.465 30.4532 106.498 30.5331 106.556 30.5933C106.614 30.6535 106.692 30.6897 106.776 30.6946L108.726 30.8408L109.343 31.8603L107.094 31.681C107.043 31.6819 107.039 31.7492 106.994 31.7654C106.949 31.7817 106.904 31.7175 106.864 31.7469C106.8 31.8041 106.762 31.8839 106.757 31.969C106.757 31.9812 106.732 31.9772 106.73 31.9905L106.731 32.0246C106.731 32.0949 106.755 32.1632 106.797 32.2194L108.147 34.0119L106.952 34.0336L105.791 32.4579C105.748 32.403 105.689 32.3629 105.622 32.343C105.554 32.3231 105.483 32.3245 105.416 32.347C105.35 32.3695 105.292 32.412 105.251 32.4685C105.21 32.5251 105.187 32.593 105.187 32.6628C105.188 32.7321 105.211 32.7993 105.252 32.8554L106.125 34.0487L104.443 34.0793C104.354 34.0809 104.269 34.1178 104.207 34.182C104.145 34.2461 104.111 34.3321 104.112 34.4212C104.114 34.5102 104.151 34.595 104.215 34.6568C104.28 34.7186 104.366 34.7524 104.456 34.7508L106.137 34.7202L105.303 35.9468C105.267 36.0037 105.248 36.0699 105.25 36.1372C105.251 36.2087 105.275 36.2781 105.318 36.3351C105.362 36.3922 105.422 36.434 105.491 36.4544C105.56 36.4747 105.634 36.4727 105.701 36.4485C105.769 36.4242 105.827 36.3791 105.867 36.3197L106.964 34.7041L108.16 34.6823L106.873 36.5294C106.831 36.5866 106.809 36.6557 106.809 36.7266L106.81 36.7607C106.81 36.7739 106.835 36.7691 106.838 36.7822C106.846 36.8671 106.887 36.9455 106.953 37.0004C106.994 37.0294 107.034 36.9692 107.082 36.9771C107.129 36.9851 107.134 37.0643 107.185 37.0578L109.426 36.7968L108.847 37.8381L106.903 38.042C106.82 38.0513 106.744 38.0908 106.688 38.1527C106.633 38.2147 106.602 38.2948 106.603 38.3778L106.603 38.4086C106.608 38.4525 106.622 38.495 106.643 38.5337C106.664 38.5724 106.693 38.6066 106.728 38.6342C106.762 38.6618 106.802 38.6823 106.845 38.6946C106.887 38.7069 106.932 38.7107 106.976 38.7058L108.451 38.5446L107.644 40.0129C107.6 40.0905 107.588 40.1822 107.612 40.268C107.636 40.3538 107.693 40.4268 107.77 40.471C107.809 40.4931 107.852 40.5073 107.896 40.5126C107.94 40.518 107.985 40.5144 108.028 40.5021C108.071 40.4898 108.111 40.4691 108.145 40.4411C108.18 40.4131 108.209 40.3785 108.229 40.3393L109.045 38.8752L109.691 40.2048C109.709 40.2464 109.735 40.284 109.768 40.3153C109.801 40.3466 109.84 40.3708 109.883 40.3866C109.926 40.4025 109.971 40.4095 110.017 40.4073C110.062 40.4052 110.107 40.3938 110.148 40.374C110.189 40.3542 110.225 40.3263 110.255 40.2921C110.285 40.2578 110.308 40.2179 110.322 40.1747C110.336 40.1315 110.341 40.0859 110.336 40.0407C110.332 39.9955 110.319 39.9517 110.297 39.9118L109.444 38.1543L110.025 37.113L110.986 39.1449C111.001 39.1744 111.046 39.1504 111.066 39.1732C111.101 39.2188 111.102 39.2827 111.159 39.3103C111.216 39.3378 111.242 39.2603 111.296 39.256C111.351 39.2517 111.383 39.3304 111.436 39.3052C111.488 39.28 111.451 39.2191 111.481 39.1822C111.511 39.1453 111.583 39.1803 111.603 39.1337L112.49 37.0681L113.107 38.0877L112.318 39.875C112.299 39.9197 112.289 39.9679 112.29 40.0165C112.292 40.0931 112.319 40.1669 112.369 40.2258C112.418 40.2846 112.486 40.3249 112.561 40.34C112.637 40.3551 112.715 40.344 112.783 40.3087C112.852 40.2733 112.906 40.2158 112.937 40.1457L113.535 38.7935L114.396 40.2271C114.418 40.2674 114.448 40.303 114.484 40.3316C114.519 40.3603 114.561 40.3813 114.605 40.3935C114.649 40.4056 114.696 40.4087 114.741 40.4025C114.787 40.3962 114.831 40.3808 114.87 40.3572C114.909 40.3336 114.943 40.3022 114.97 40.265C114.997 40.2278 115.016 40.1856 115.026 40.1409C115.036 40.0962 115.036 40.05 115.028 40.005C115.019 39.9601 115.001 39.9174 114.975 39.8795L114.108 38.4461L115.594 38.5534C115.638 38.5566 115.683 38.551 115.725 38.5371C115.767 38.5232 115.806 38.5012 115.839 38.4723C115.873 38.4434 115.9 38.4082 115.92 38.3688C115.94 38.3293 115.952 38.2864 115.955 38.2423C115.958 38.1983 115.953 38.1541 115.939 38.1122C115.925 38.0703 115.903 38.0316 115.874 37.9982C115.845 37.9648 115.809 37.9375 115.77 37.9177C115.73 37.8979 115.687 37.8861 115.643 37.8829L113.687 37.7412L113.071 36.7217L115.321 36.901C115.37 36.9056 115.375 36.8339 115.421 36.8166C115.467 36.7992 115.509 36.8656 115.551 36.8351C115.592 36.8046 115.549 36.7383 115.571 36.6894C115.593 36.6405 115.681 36.6511 115.68 36.5938C115.679 36.5366 115.612 36.5389 115.595 36.494C115.579 36.4492 115.645 36.405 115.614 36.3649L114.265 34.5712L115.46 34.5495L116.621 36.1241C116.674 36.1961 116.753 36.2443 116.842 36.258C116.931 36.2716 117.021 36.2497 117.093 36.197C117.166 36.1443 117.214 36.0651 117.228 35.9768C117.242 35.8886 117.22 35.7986 117.167 35.7265L116.289 34.5311L117.97 34.5005C118.059 34.4989 118.144 34.462 118.206 34.3978C118.269 34.3337 118.303 34.2477 118.301 34.1586C118.299 34.0696 118.262 33.9848 118.198 33.923C118.133 33.8612 118.047 33.8274 117.958 33.829L116.272 33.8597L117.106 32.6331C117.156 32.5592 117.175 32.4684 117.158 32.3807C117.141 32.293 117.09 32.2157 117.016 32.1656C116.941 32.1156 116.85 32.0969 116.762 32.1138C116.674 32.1307 116.596 32.1817 116.546 32.2557L115.448 33.8791L114.253 33.9008L115.539 32.0537C115.568 32.0125 115.507 31.9728 115.515 31.9253C115.523 31.8778 115.602 31.8742 115.597 31.8225C115.591 31.7709 115.512 31.7756 115.484 31.7321C115.457 31.6885 115.505 31.6216 115.458 31.5861C115.411 31.5506 115.376 31.6173 115.329 31.6093C115.283 31.6014 115.276 31.5222 115.226 31.5286L112.985 31.7897L113.56 30.7528L115.51 30.54C115.554 30.5353 115.597 30.5219 115.636 30.5007C115.675 30.4795 115.709 30.4509 115.737 30.4164C115.765 30.382 115.785 30.3425 115.798 30.3002C115.81 30.2578 115.814 30.2134 115.809 30.1695C115.805 30.1257 115.791 30.0832 115.77 30.0444C115.749 30.0057 115.72 29.9716 115.685 29.9439C115.651 29.9163 115.611 29.8957 115.568 29.8833C115.526 29.8709 115.481 29.867 115.437 29.8718L113.96 30.033L114.774 28.569C114.817 28.4904 114.828 28.3978 114.803 28.3116C114.778 28.2254 114.719 28.1527 114.64 28.1095C114.561 28.0662 114.468 28.056 114.381 28.081C114.295 28.106 114.222 28.1642 114.178 28.2428L113.364 29.708L112.717 28.3774C112.698 28.3376 112.671 28.3021 112.638 28.2728C112.605 28.2435 112.566 28.2209 112.524 28.2065C112.482 28.192 112.438 28.1859 112.394 28.1884C112.349 28.191 112.306 28.2022 112.266 28.2215C112.226 28.2407 112.191 28.2676 112.161 28.3005C112.132 28.3335 112.109 28.3719 112.094 28.4136C112.08 28.4553 112.074 28.4994 112.076 28.5435C112.079 28.5875 112.09 28.6306 112.109 28.6703L112.968 30.4277L112.388 31.469L111.426 29.4371C111.405 29.3902 111.34 29.4233 111.302 29.3931C111.264 29.363 111.3 29.2907 111.253 29.2718C111.206 29.2528 111.17 29.3217 111.116 29.326C111.062 29.3303 111.029 29.2516 110.977 29.2768C110.924 29.302 110.922 29.3692 110.888 29.4161C110.869 29.4406 110.823 29.4173 110.809 29.4483L109.923 31.5139L109.307 30.4943L110.093 28.707C110.129 28.6255 110.131 28.533 110.099 28.4499C110.067 28.3669 110.002 28.3001 109.92 28.2642C109.838 28.2283 109.746 28.2262 109.662 28.2585C109.579 28.2908 109.511 28.3548 109.475 28.4363L108.879 29.7896L108.011 28.3551C107.989 28.3167 107.959 28.2833 107.923 28.2567C107.888 28.2301 107.847 28.2109 107.804 28.2003C107.761 28.1897 107.716 28.1878 107.672 28.1948C107.628 28.2019 107.586 28.2177 107.548 28.2412ZM111.277 38.1815L110.427 36.3877L111.218 34.9637L112.061 36.3579L111.277 38.1815ZM113.432 34.5864L114.627 36.1747L112.641 36.0115L111.798 34.6161L113.432 34.5864ZM110.627 34.6374L109.835 36.0625L107.857 36.2979L108.992 34.6672L110.627 34.6374ZM108.98 33.9967L107.786 32.4073L109.772 32.5716L110.615 33.967L108.98 33.9967ZM113.42 33.916L111.786 33.9457L112.578 32.5217L114.556 32.2853L113.42 33.916ZM111.135 30.4016L111.986 32.1944L111.194 33.6184L110.351 32.2241L111.135 30.4016Z" fill="url(#paint3_linear_17_20809)"/>
<path d="M25.4533 34.4471C25.4268 34.4628 25.4038 34.4837 25.3855 34.5084C25.3673 34.5332 25.3542 34.5613 25.3471 34.5912C25.3399 34.6211 25.3389 34.6521 25.344 34.6823C25.3492 34.7126 25.3603 34.7415 25.3769 34.7674L25.9789 35.7629L24.9511 35.6883C24.9204 35.686 24.8895 35.6897 24.8603 35.6993C24.831 35.709 24.804 35.7242 24.7806 35.7442C24.7573 35.7643 24.7382 35.7887 24.7243 35.8161C24.7105 35.8435 24.7022 35.8733 24.7 35.9039L24.7004 35.9253C24.7013 35.9832 24.7241 36.0386 24.7643 36.0804C24.8046 36.1223 24.8592 36.1474 24.9173 36.1508L26.2713 36.2523L26.6999 36.9603L25.138 36.8358C25.1026 36.8364 25.0996 36.8831 25.0683 36.8944C25.0371 36.9057 25.0063 36.8611 24.9782 36.8815C24.9341 36.9212 24.9075 36.9767 24.9042 37.0358C24.9044 37.0442 24.8866 37.0415 24.8853 37.0507L24.8857 37.0744C24.8863 37.1232 24.9025 37.1706 24.932 37.2097L25.8696 38.4544L25.0394 38.4695L24.2335 37.3753C24.2035 37.3372 24.1622 37.3093 24.1156 37.2955C24.0689 37.2817 24.019 37.2827 23.9729 37.2983C23.9268 37.3139 23.8867 37.3434 23.8582 37.3827C23.8296 37.4219 23.814 37.4691 23.8136 37.5176C23.8147 37.5657 23.8306 37.6123 23.859 37.6513L24.4649 38.48L23.2975 38.5012C23.2354 38.5023 23.1762 38.528 23.1331 38.5725C23.09 38.617 23.0664 38.6768 23.0675 38.7386C23.0686 38.8005 23.0944 38.8593 23.1391 38.9023C23.1838 38.9452 23.2439 38.9687 23.306 38.9676L24.4734 38.9463L23.8942 39.7981C23.8692 39.8376 23.8564 39.8836 23.8575 39.9303C23.8581 39.98 23.8748 40.0281 23.9049 40.0677C23.935 40.1074 23.9771 40.1364 24.025 40.1505C24.0728 40.1647 24.124 40.1633 24.171 40.1464C24.2179 40.1296 24.2583 40.0983 24.2862 40.0571L25.0479 38.9351L25.8781 38.92L24.9849 40.2026C24.9557 40.2424 24.9402 40.2904 24.9405 40.3396L24.9409 40.3633C24.9411 40.3724 24.9579 40.3691 24.9604 40.3782C24.9659 40.4372 24.9945 40.4916 25.04 40.5297C25.0688 40.5498 25.0965 40.508 25.1296 40.5135C25.1627 40.5191 25.166 40.5741 25.2013 40.5696L26.7576 40.3883L26.3551 41.1115L25.0055 41.253C24.948 41.2595 24.8949 41.2869 24.8564 41.3299C24.818 41.373 24.7968 41.4286 24.797 41.4862L24.7973 41.5076C24.8007 41.5381 24.81 41.5676 24.8249 41.5945C24.8397 41.6214 24.8597 41.6451 24.8837 41.6642C24.9078 41.6834 24.9354 41.6977 24.965 41.7062C24.9946 41.7147 25.0256 41.7174 25.0562 41.714L26.0806 41.6021L25.5198 42.6217C25.4893 42.6755 25.4814 42.7392 25.4979 42.7988C25.5144 42.8584 25.5539 42.9091 25.6078 42.9398C25.6346 42.9551 25.6643 42.965 25.695 42.9687C25.7258 42.9724 25.7569 42.9699 25.7867 42.9614C25.8164 42.9529 25.8441 42.9385 25.8682 42.919C25.8922 42.8996 25.912 42.8755 25.9265 42.8483L26.4927 41.8316L26.9413 42.7549C26.9538 42.7838 26.9721 42.81 26.995 42.8317C27.018 42.8534 27.0451 42.8702 27.0747 42.8812C27.1044 42.8922 27.136 42.8971 27.1676 42.8956C27.1992 42.8941 27.2302 42.8862 27.2587 42.8724C27.2872 42.8587 27.3126 42.8393 27.3333 42.8155C27.3541 42.7917 27.3698 42.764 27.3795 42.734C27.3892 42.704 27.3927 42.6724 27.3897 42.641C27.3868 42.6096 27.3775 42.5792 27.3624 42.5515L26.7702 41.331L27.1734 40.6079L27.8406 42.0189C27.851 42.0394 27.8822 42.0228 27.8963 42.0386C27.9207 42.0702 27.9215 42.1146 27.961 42.1337C28.0005 42.1529 28.0188 42.099 28.0564 42.0961C28.0939 42.0931 28.1165 42.1477 28.153 42.1302C28.1896 42.1128 28.1635 42.0704 28.1845 42.0448C28.2055 42.0192 28.2552 42.0435 28.2692 42.0111L28.8854 40.5767L29.3139 41.2847L28.7656 42.5259C28.7523 42.557 28.7458 42.5905 28.7467 42.6242C28.7476 42.6774 28.7667 42.7286 28.8009 42.7695C28.8351 42.8104 28.8824 42.8383 28.9347 42.8488C28.9871 42.8593 29.0416 42.8516 29.089 42.8271C29.1364 42.8025 29.174 42.7626 29.1954 42.7139L29.6109 41.7749L30.2091 42.7704C30.2241 42.7984 30.2447 42.8232 30.2696 42.843C30.2945 42.8629 30.3232 42.8775 30.354 42.886C30.3847 42.8944 30.4169 42.8965 30.4485 42.8922C30.4802 42.8879 30.5106 42.8772 30.5379 42.8608C30.5653 42.8444 30.589 42.8226 30.6076 42.7968C30.6262 42.7709 30.6393 42.7416 30.6461 42.7106C30.653 42.6795 30.6534 42.6474 30.6474 42.6162C30.6414 42.585 30.629 42.5554 30.6111 42.5291L30.0091 41.5336L31.0407 41.6082C31.0714 41.6104 31.1023 41.6065 31.1315 41.5969C31.1607 41.5872 31.1877 41.5719 31.211 41.5518C31.2343 41.5318 31.2534 41.5074 31.2672 41.48C31.281 41.4526 31.2893 41.4227 31.2915 41.3921C31.2937 41.3616 31.2898 41.3309 31.2801 41.3018C31.2704 41.2727 31.2551 41.2458 31.2349 41.2226C31.2148 41.1995 31.1902 41.1805 31.1627 41.1667C31.1352 41.153 31.1052 41.1448 31.0745 41.1426L29.7167 41.0442L29.2889 40.3362L30.8508 40.4607C30.8854 40.4639 30.8884 40.4141 30.9204 40.4021C30.9525 40.39 30.9817 40.4361 31.0106 40.415C31.0394 40.3938 31.0093 40.3477 31.0249 40.3138C31.0404 40.2798 31.1012 40.2871 31.1005 40.2474C31.0997 40.2076 31.0529 40.2092 31.0416 40.1781C31.0303 40.1469 31.0758 40.1163 31.0546 40.0884L30.1176 38.8428L30.9479 38.8277L31.7537 39.9212C31.7905 39.9712 31.8457 40.0047 31.9073 40.0142C31.9688 40.0236 32.0317 40.0084 32.0819 39.9718C32.1322 39.9352 32.1658 39.8802 32.1754 39.8189C32.1849 39.7577 32.1696 39.6951 32.1328 39.6451L31.5231 38.815L32.6905 38.7937C32.7526 38.7926 32.8118 38.767 32.8549 38.7224C32.898 38.6779 32.9216 38.6181 32.9205 38.5563C32.9194 38.4945 32.8936 38.4356 32.8489 38.3927C32.8042 38.3498 32.7441 38.3263 32.682 38.3274L31.5115 38.3487L32.0907 37.497C32.1256 37.4456 32.1386 37.3826 32.1269 37.3217C32.1151 37.2608 32.0795 37.2071 32.0279 37.1723C31.9764 37.1376 31.913 37.1246 31.8519 37.1363C31.7907 37.1481 31.7367 37.1835 31.7018 37.2348L30.9394 38.3622L30.1092 38.3773L31.0024 37.0946C31.0226 37.066 30.9806 37.0384 30.9862 37.0054C30.9917 36.9725 31.0462 36.9699 31.0425 36.9341C31.0388 36.8982 30.9835 36.9015 30.9645 36.8712C30.9455 36.841 30.9793 36.7945 30.9465 36.7699C30.9138 36.7452 30.8893 36.7916 30.8569 36.786C30.8246 36.7805 30.8197 36.7255 30.7852 36.73L29.2289 36.9112L29.6284 36.1912L30.9825 36.0435C31.0131 36.0402 31.0428 36.0309 31.0698 36.0161C31.0968 36.0014 31.1206 35.9815 31.1399 35.9576C31.1592 35.9338 31.1736 35.9063 31.1822 35.8769C31.1908 35.8475 31.1936 35.8167 31.1902 35.7862C31.1869 35.7557 31.1776 35.7262 31.1628 35.6993C31.148 35.6724 31.128 35.6487 31.104 35.6295C31.08 35.6103 31.0525 35.596 31.0229 35.5874C30.9934 35.5788 30.9624 35.5761 30.9318 35.5794L29.9059 35.6914L30.4713 34.6747C30.5014 34.6201 30.5086 34.5558 30.4912 34.496C30.4737 34.4361 30.4331 34.3856 30.3783 34.3556C30.3234 34.3256 30.2588 34.3185 30.1987 34.3358C30.1386 34.3532 30.0878 34.3936 30.0576 34.4482L29.4923 35.4657L29.0429 34.5416C29.0295 34.5141 29.0107 34.4894 28.9878 34.469C28.9648 34.4487 28.938 34.433 28.9089 34.423C28.8798 34.4129 28.849 34.4087 28.8183 34.4105C28.7876 34.4122 28.7575 34.42 28.7298 34.4334C28.7021 34.4468 28.6773 34.4654 28.6568 34.4883C28.6364 34.5112 28.6206 34.5379 28.6105 34.5668C28.6004 34.5958 28.5961 34.6264 28.5979 34.657C28.5997 34.6876 28.6076 34.7175 28.621 34.7451L29.2171 35.9655L28.8146 36.6886L28.1466 35.2776C28.1315 35.245 28.0865 35.268 28.06 35.247C28.0335 35.2261 28.0587 35.1759 28.0262 35.1628C27.9937 35.1496 27.9685 35.1975 27.9309 35.2004C27.8933 35.2034 27.8708 35.1488 27.8342 35.1662C27.7977 35.1837 27.7962 35.2304 27.773 35.263C27.7595 35.28 27.7277 35.2638 27.7181 35.2854L27.1027 36.7197L26.6749 36.0117L27.2209 34.7706C27.2459 34.7139 27.2473 34.6497 27.2248 34.592C27.2023 34.5344 27.1577 34.488 27.1008 34.463C27.0439 34.4381 26.9794 34.4367 26.9214 34.4591C26.8635 34.4816 26.8169 34.526 26.7918 34.5826L26.3779 35.5223L25.7751 34.5262C25.7596 34.4995 25.7388 34.4763 25.7141 34.4578C25.6893 34.4394 25.6611 34.4261 25.6311 34.4187C25.601 34.4113 25.5698 34.41 25.5393 34.4149C25.5087 34.4198 25.4795 34.4308 25.4533 34.4471ZM28.0428 41.3499L27.4524 40.1042L28.0021 39.1153L28.5875 40.0836L28.0428 41.3499ZM29.5393 38.8534L30.3691 39.9563L28.9903 39.843L28.4049 38.874L29.5393 38.8534ZM27.5916 38.8888L27.0418 39.8784L25.668 40.0419L26.4564 38.9095L27.5916 38.8888ZM26.448 38.4439L25.6189 37.3402L26.9977 37.4543L27.5831 38.4232L26.448 38.4439ZM29.5308 38.3878L28.3965 38.4084L28.9462 37.4196L30.32 37.2554L29.5308 38.3878ZM27.9445 35.9473L28.5349 37.1923L27.9851 38.1812L27.3997 37.2129L27.9445 35.9473Z" fill="url(#paint4_linear_17_20809)"/>
<defs>
<linearGradient id="paint0_linear_17_20809" x1="42.9903" y1="42.3255" x2="76.9391" y2="42.3255" gradientUnits="userSpaceOnUse">
<stop stop-color="#FADC7F"/>
<stop offset="0.237038" stop-color="#D6B24F"/>
<stop offset="0.520833" stop-color="#C09932"/>
<stop offset="0.75961" stop-color="#CFAC46"/>
<stop offset="1" stop-color="#FADC7F"/>
</linearGradient>
<linearGradient id="paint1_linear_17_20809" x1="2.79366" y1="17.6522" x2="25.5081" y2="19.0009" gradientUnits="userSpaceOnUse">
<stop stop-color="#FADC7F"/>
<stop offset="0.237038" stop-color="#D6B24F"/>
<stop offset="0.520833" stop-color="#C09932"/>
<stop offset="0.75961" stop-color="#CFAC46"/>
<stop offset="1" stop-color="#FADC7F"/>
</linearGradient>
<linearGradient id="paint2_linear_17_20809" x1="94.2399" y1="62.6461" x2="105.254" y2="50.637" gradientUnits="userSpaceOnUse">
<stop stop-color="#FADC7F"/>
<stop offset="0.237038" stop-color="#D6B24F"/>
<stop offset="0.520833" stop-color="#C09932"/>
<stop offset="0.75961" stop-color="#CFAC46"/>
<stop offset="1" stop-color="#FADC7F"/>
</linearGradient>
<linearGradient id="paint3_linear_17_20809" x1="112.261" y1="39.5307" x2="112.071" y2="29.098" gradientUnits="userSpaceOnUse">
<stop stop-color="#FADC7F"/>
<stop offset="0.237038" stop-color="#D6B24F"/>
<stop offset="0.520833" stop-color="#C09932"/>
<stop offset="0.75961" stop-color="#CFAC46"/>
<stop offset="1" stop-color="#FADC7F"/>
</linearGradient>
<linearGradient id="paint4_linear_17_20809" x1="28.7262" y1="42.2869" x2="28.5944" y2="35.0421" gradientUnits="userSpaceOnUse">
<stop stop-color="#FADC7F"/>
<stop offset="0.237038" stop-color="#D6B24F"/>
<stop offset="0.520833" stop-color="#C09932"/>
<stop offset="0.75961" stop-color="#CFAC46"/>
<stop offset="1" stop-color="#FADC7F"/>
</linearGradient>
</defs>
</svg>
