<svg width="177" height="40" viewBox="0 0 177 40" fill="none" xmlns="http://www.w3.org/2000/svg">
<path d="M0 27.7921C1.53493 31.3903 4.09134 34.4594 7.35278 36.6194C10.6142 38.7795 14.4375 39.9357 18.3494 39.945C16.8145 36.3468 14.258 33.2778 10.9966 31.1177C7.73517 28.9576 3.91189 27.8014 0 27.7921Z" fill="#4CA66B"/>
<path fill-rule="evenodd" clip-rule="evenodd" d="M30.8776 23.3063C32.5224 20.8397 33.399 17.9406 33.3962 14.9759H33.3679C33.3642 11.0052 31.7851 7.1983 28.9773 4.39058C26.1696 1.58286 22.3627 0.00373714 18.392 0C15.4273 0.00279298 12.53 0.884758 10.0664 2.5342C7.60288 4.18365 5.68373 6.52656 4.55175 9.2667C3.41977 12.0068 3.12565 15.021 3.70679 17.9283C4.28792 20.8355 5.71815 23.5052 7.81651 25.5996C9.91488 27.6941 12.5871 29.1191 15.4955 29.6947C18.4038 30.2704 21.4175 29.9707 24.1555 28.8336C26.8935 27.6964 29.2328 25.773 30.8776 23.3063ZM24.6521 19.14C25.4756 17.9074 25.9152 16.4584 25.9152 14.976C25.9152 12.9882 25.1255 11.0818 23.7199 9.67618C22.3143 8.27059 20.4081 7.48106 18.4203 7.48106C16.9379 7.48106 15.4888 7.92064 14.2563 8.7442C13.0237 9.56777 12.063 10.7383 11.4957 12.1079C10.9284 13.4774 10.78 14.9844 11.0692 16.4383C11.3584 17.8922 12.0723 19.2276 13.1205 20.2758C14.1687 21.324 15.5041 22.0379 16.958 22.3271C18.4119 22.6162 19.9189 22.4679 21.2884 21.9006C22.6579 21.3333 23.8285 20.3725 24.6521 19.14Z" fill="#F5BF45"/>
<path d="M18.4199 39.9452C21.2973 39.9447 24.1139 39.1167 26.5339 37.5601C28.9539 36.0035 30.8752 33.7839 32.0689 31.1658C29.19 31.1594 26.3705 31.9844 23.9492 33.5418C21.5279 35.0993 19.6079 37.3228 18.4199 39.9452Z" fill="#4CA66B"/>
<path d="M114.81 14.9757H121.077V39.2957H114.81V29.8388H103.871V39.2957H97.6325V14.9757H103.899V23.9247H114.838L114.81 14.9757ZM124.027 21.0028H131.833V39.3522H138.1V21.0028H145.807V14.9757H124.027V21.0028ZM176.252 33.9886V39.197C175.004 39.7464 173.65 40.0162 172.286 39.9875C169.04 39.9875 167.402 38.5758 166.739 36.2892L166.64 36.4446C165.694 37.6188 164.483 38.552 163.107 39.1678C161.731 39.7837 160.228 40.0646 158.722 39.9875C157.147 40.0034 155.587 39.6829 154.146 39.0476C152.705 38.4123 151.416 37.4766 150.366 36.3033C148.135 33.7924 146.904 30.5507 146.904 27.1922C146.904 23.8338 148.135 20.5921 150.366 18.0811C151.408 16.894 152.694 15.9453 154.136 15.2998C155.578 14.6544 157.142 14.3272 158.722 14.3406C160.162 14.2666 161.6 14.5202 162.927 15.0826C164.255 15.6449 165.438 16.5012 166.386 17.587V15.0181H172.653V32.1395C172.653 33.551 173.317 34.3696 174.658 34.3696C175.215 34.3794 175.764 34.2433 176.252 33.9745V33.9886ZM166.64 27.1145C166.677 26.2051 166.523 25.298 166.187 24.452C165.852 23.6059 165.343 22.8395 164.692 22.2026C163.405 20.9531 161.681 20.2544 159.886 20.2544C158.092 20.2544 156.368 20.9531 155.08 22.2026C154.443 22.8473 153.945 23.616 153.618 24.4609C153.29 25.3058 153.139 26.2089 153.175 27.1145C153.145 28.0258 153.298 28.9339 153.625 29.7848C153.953 30.6358 154.447 31.4124 155.08 32.0689C156.386 33.2832 158.103 33.9583 159.886 33.9583C161.669 33.9583 163.387 33.2832 164.692 32.0689C165.336 31.4179 165.84 30.6432 166.174 29.7916C166.509 28.94 166.668 28.0292 166.64 27.1145ZM46.0283 14.9616L45.8448 24.0941C45.928 26.6496 45.6909 29.2053 45.139 31.7019C44.645 33.7062 43.7275 34.2709 42.316 34.2709C41.8761 34.2812 41.4375 34.2192 41.0176 34.0874V39.2817C41.7626 39.5934 42.5682 39.7332 43.3747 39.691C45.1516 39.7995 46.9069 39.2534 48.3087 38.1559C49.7104 37.0584 50.6616 35.4856 50.9826 33.7345C51.663 31.1931 52.0093 28.5739 52.013 25.943L52.1541 21.017H59.9314V39.2817H66.1985V14.9616H46.0283ZM76.2201 28.7519C76.8835 32.9017 80.1723 34.2567 83.5176 34.2567C85.6883 34.2446 87.7879 33.4815 89.4599 32.0971L93.3274 35.9787C92.0683 37.3181 90.5314 38.3659 88.8246 39.0486C87.1178 39.7313 85.2824 40.0325 83.4469 39.931C77.2928 39.931 69.8825 36.3033 69.8825 27.1145C69.8825 17.9257 77.0246 14.2841 83.0799 14.2841C90.7584 14.2841 93.9344 17.8835 93.9344 21.9345C93.9344 28.5402 85.4654 31.589 76.2484 28.7519H76.2201ZM87.1309 22.6402C87.1309 20.7629 85.2678 19.916 83.1788 19.916C79.9889 19.916 77.2222 21.3275 76.3753 24.7292C82.8823 26.6065 87.1309 25.2091 87.1309 22.6402Z" fill="white"/>
</svg>
