<svg width="67" height="69" viewBox="0 0 67 69" fill="none" xmlns="http://www.w3.org/2000/svg">
<path d="M0.129942 24.5501C0.192887 24.3409 0.297033 24.1466 0.436215 23.9786C0.575398 23.8107 0.746783 23.6727 0.94021 23.5726C1.13364 23.4725 1.34519 23.4125 1.56231 23.396C1.77944 23.3796 1.99772 23.4071 2.20424 23.4769L10.0857 25.9198L7.81561 18.9721C7.74739 18.7645 7.72059 18.5455 7.73672 18.3277C7.75285 18.1099 7.8116 17.8975 7.90961 17.7027C8.00762 17.5079 8.14297 17.3345 8.3079 17.1924C8.47283 17.0503 8.66413 16.9423 8.87081 16.8746L9.01884 16.8407C9.41894 16.7478 9.83953 16.8104 10.1962 17.0159C10.5528 17.2214 10.8192 17.5546 10.9417 17.9486L13.9549 27.0962L19.5611 28.8361L16.0345 18.297C15.9785 18.0526 16.2949 17.9522 16.3191 17.7175C16.3432 17.4828 15.9839 17.3471 16.0763 17.1192C16.2743 16.7475 16.6106 16.4696 17.0119 16.3459C17.0701 16.3326 17.021 16.2153 17.082 16.1901L17.2459 16.1526C17.5831 16.0729 17.937 16.1034 18.2562 16.2398L28.4276 20.5673L27.1126 14.8261L18.2029 11.1487C17.889 11.0069 17.6265 10.7708 17.4517 10.473C17.2769 10.1752 17.1985 9.83042 17.2272 9.48632C17.2558 9.14222 17.3903 8.81579 17.6119 8.55213C17.8335 8.28847 18.1313 8.10061 18.4642 8.01451C18.7977 7.94045 19.1459 7.96985 19.4628 8.09883L26.2028 10.8535L24.3538 2.78079C24.2554 2.35118 24.3309 1.90025 24.5637 1.52721C24.7965 1.15417 25.1675 0.889578 25.5951 0.791634C26.0228 0.69369 26.472 0.77042 26.8439 1.00494C27.2159 1.23947 27.4801 1.61258 27.5785 2.04219L29.4275 10.1149L34.3011 4.6723C34.5303 4.43239 34.825 4.26575 35.1483 4.19318C35.4916 4.11302 35.8516 4.14513 36.1759 4.28483C36.5001 4.42453 36.7717 4.66451 36.9509 4.96978C37.1302 5.27505 37.2077 5.62964 37.1723 5.98184C37.1368 6.33404 36.9902 6.66543 36.7539 6.92768L30.3321 14.0888L31.6471 19.8299L38.9502 11.4888C39.1739 11.2202 39.4778 11.031 39.817 10.9493L39.9809 10.9118C40.0443 10.8972 40.05 11.0189 40.117 11.0203C40.5323 10.957 40.9559 11.0609 41.296 11.3093C41.4837 11.4731 41.2433 11.735 41.3379 11.9537C41.4325 12.1724 41.8167 12.1011 41.8463 12.3515L43.2583 23.375L47.5484 19.3684L46.2163 9.83577C46.1627 9.42878 46.2606 9.01656 46.491 8.67808C46.7215 8.3396 47.0684 8.09864 47.4653 8.00138L47.6133 7.96747C47.8288 7.93845 48.048 7.95241 48.2584 8.00855C48.4687 8.0647 48.6661 8.16192 48.8391 8.29465C49.0121 8.42739 49.1575 8.59304 49.2668 8.78211C49.3761 8.97119 49.4473 9.17998 49.4762 9.39654L50.4564 16.6398L56.5173 11.037C56.8358 10.7349 57.2607 10.5718 57.6991 10.5835C58.1375 10.5951 58.5539 10.7805 58.8572 11.0991C59.009 11.2575 59.1274 11.4449 59.2055 11.65C59.2836 11.8552 59.3198 12.074 59.3119 12.2934C59.304 12.5127 59.2521 12.7282 59.1594 12.9268C59.0668 13.1254 58.9351 13.3032 58.7724 13.4494L52.7411 19.0845L59.8637 20.5946C60.0843 20.6313 60.2953 20.7125 60.484 20.8333C60.6726 20.9541 60.835 21.112 60.9613 21.2975C61.0876 21.483 61.1753 21.6921 61.2189 21.9124C61.2626 22.1326 61.2614 22.3594 61.2154 22.579C61.1693 22.7985 61.0794 23.0064 60.9511 23.1899C60.8228 23.3735 60.6587 23.529 60.4688 23.647C60.2789 23.765 60.067 23.843 59.846 23.8765C59.625 23.9099 59.3995 23.898 59.183 23.8415L49.7692 21.8502L45.4804 25.862L56.3343 28.0434C56.4928 28.0798 56.4317 28.3229 56.5646 28.3931C56.8243 28.5069 57.1309 28.4367 57.3304 28.676C57.5299 28.9154 57.1903 29.133 57.234 29.3968C57.2778 29.6607 57.6924 29.7222 57.6345 30.0038C57.5766 30.2854 57.2404 30.1779 57.1 30.3666C56.9596 30.5552 57.2119 30.8552 57.013 31.0069L48.1919 37.7003L53.7981 39.4402L61.4055 33.5447C61.5962 33.4001 61.8158 33.2983 62.0493 33.2463C62.417 33.1617 62.8027 33.2058 63.1424 33.3715C63.4822 33.5372 63.7555 33.8144 63.9172 34.1571C64.0788 34.4999 64.119 34.8876 64.0311 35.256C63.9432 35.6243 63.7325 35.9512 63.4339 36.1823L57.6799 40.6472L65.5553 43.0636C65.774 43.1189 65.9793 43.2184 66.1586 43.3559C66.338 43.4934 66.4876 43.6662 66.5984 43.8635C66.7093 44.0609 66.7789 44.2788 66.8032 44.5039C66.8274 44.729 66.8058 44.9567 66.7395 45.1729C66.6733 45.3892 66.5638 45.5895 66.4178 45.7618C66.2719 45.934 66.0924 46.0745 65.8905 46.1747C65.6885 46.2749 65.4682 46.3326 65.2431 46.3445C65.018 46.3563 64.7928 46.322 64.5811 46.2436L56.6996 43.8007L58.9758 50.775C59.0435 50.9827 59.0698 51.2016 59.0532 51.4193C59.0366 51.637 58.9775 51.8491 58.8792 52.0437C58.7809 52.2383 58.6454 52.4114 58.4803 52.5533C58.3153 52.6951 58.124 52.8029 57.9174 52.8704C57.7107 52.9379 57.4928 52.9639 57.2759 52.9468C57.0591 52.9297 56.8477 52.8699 56.6537 52.7708C56.4598 52.6717 56.2871 52.5353 56.1455 52.3693C56.0039 52.2033 55.8962 52.011 55.8286 51.8033L52.8304 42.6243L47.2254 40.8897L50.7521 51.4289C50.8332 51.6618 50.4957 51.7671 50.4675 52.0083C50.4393 52.2495 50.8068 52.3722 50.7103 52.6067C50.6138 52.8412 50.2451 52.7132 50.038 52.878C49.8309 53.0428 49.9852 53.4491 49.7103 53.5121C49.4354 53.575 49.3665 53.2498 49.1327 53.2251C48.8989 53.2004 48.7657 53.5663 48.5373 53.4677L38.3618 49.1467L39.6768 54.8879L48.5813 58.5665C48.9886 58.7342 49.3132 59.0573 49.4837 59.4648C49.6543 59.8723 49.6568 60.3308 49.4907 60.7394C49.3246 61.1481 49.0035 61.4734 48.598 61.6439C48.1925 61.8143 47.7359 61.8159 47.3287 61.6483L40.572 58.8694L42.421 66.9422C42.5194 67.3718 42.4439 67.8227 42.2111 68.1957C41.9783 68.5688 41.6073 68.8334 41.1796 68.9313C40.752 69.0293 40.3028 68.9525 39.9309 68.718C39.5589 68.4835 39.2947 68.1104 39.1963 67.6808L37.3424 59.5868L32.4688 65.0294C32.1751 65.3576 31.7633 65.5549 31.3241 65.5779C30.8849 65.601 30.4542 65.4478 30.1268 65.1522C29.7994 64.8566 29.602 64.4427 29.5782 64.0016C29.5544 63.5605 29.706 63.1283 29.9998 62.8001L36.4573 55.6252L35.1423 49.8841L27.8392 58.2252C27.6764 58.4134 27.4151 58.1714 27.1975 58.266C26.98 58.3605 27.0558 58.74 26.8024 58.7757C26.5491 58.8113 26.4774 58.4253 26.2367 58.3463C25.9961 58.2672 25.7336 58.5789 25.5081 58.3958C25.2825 58.2127 25.5596 57.9648 25.4662 57.7514C25.3728 57.538 24.9861 57.5986 24.9578 57.3536L23.5457 46.3301L19.272 50.3106L20.5691 59.8848C20.5985 60.1012 20.5853 60.3212 20.5301 60.5323C20.4749 60.7433 20.3788 60.9414 20.2473 61.115C20.1158 61.2886 19.9514 61.4345 19.7637 61.5442C19.5759 61.654 19.3684 61.7255 19.153 61.7546C18.9375 61.7838 18.7184 61.77 18.5081 61.7142C18.2977 61.6583 18.1004 61.5614 17.9272 61.429C17.754 61.2966 17.6084 61.1313 17.4988 60.9425C17.3891 60.7538 17.3175 60.5452 17.288 60.3288L16.3054 53.075L10.2729 58.7048C9.94858 59.0059 9.5182 59.165 9.07641 59.1472C8.63463 59.1294 8.21762 58.9362 7.91712 58.6099C7.61663 58.2837 7.45728 57.8512 7.4741 57.4076C7.49093 56.964 7.68256 56.5456 8.00684 56.2445L14.0446 50.6135L6.91557 49.0994C6.70282 49.0542 6.50095 48.9673 6.32146 48.8438C6.14198 48.7203 5.98841 48.5626 5.86952 48.3796C5.75063 48.1966 5.66875 47.992 5.62855 47.7774C5.58835 47.5628 5.59062 47.3424 5.63523 47.1289C5.67985 46.9153 5.76592 46.7128 5.88856 46.5328C6.01119 46.3528 6.16797 46.1989 6.34995 46.0799C6.53193 45.9609 6.73554 45.8791 6.94917 45.8391C7.1628 45.7992 7.38225 45.8019 7.595 45.8471L17.0149 47.8651L21.3049 43.8585L10.4499 41.6718C10.1994 41.623 10.281 41.2745 10.0916 41.1278C9.90222 40.9812 9.59996 41.2404 9.45371 41.0392C9.30747 40.8379 9.59387 40.5823 9.55012 40.3184C9.50638 40.0545 9.09169 39.993 9.1496 39.7114C9.20752 39.4299 9.52634 39.3401 9.71066 39.1246C9.80507 39.0023 9.63889 38.8112 9.7711 38.7083L18.5935 32.0203L12.9885 30.2856L5.37744 36.1652C5.03036 36.4344 4.59071 36.554 4.15521 36.4976C3.7197 36.4411 3.324 36.2133 3.05517 35.8642C2.78634 35.5152 2.6664 35.0734 2.72173 34.6362C2.77706 34.199 3.00312 33.8021 3.3502 33.5329L9.11197 29.0774L1.224 26.6304C1.01418 26.569 0.818733 26.4658 0.649316 26.327C0.479895 26.1882 0.339977 26.0166 0.237881 25.8225C0.135789 25.6283 0.0736182 25.4156 0.0550738 25.197C0.0365295 24.9784 0.0619875 24.7584 0.129942 24.5501ZM52.0744 30.5786L42.4898 28.6431L36.6221 34.1178L44.2877 36.4928L52.0744 30.5786ZM37.4458 45.1475L46.4568 48.9751L43.3201 39.6769L35.6491 37.3031L37.4458 45.1475ZM34.3609 31.6788L40.234 26.2029L39.0109 16.4664L32.563 23.8291L34.3609 31.6788ZM29.3436 24.5665L20.3286 20.7455L23.4706 30.0424L31.1415 32.4162L29.3436 24.5665ZM34.2264 45.8849L32.4297 38.0405L26.562 43.5152L27.7797 53.2529L34.2264 45.8849ZM14.715 39.1354L24.2943 41.0721L30.162 35.5974L22.4964 33.2224L14.715 39.1354Z" fill="white"/>
</svg>
