<svg width="39" height="40" viewBox="0 0 39 40" fill="none" xmlns="http://www.w3.org/2000/svg">
<path d="M5.10552 6.27266C5.1901 6.18186 5.29192 6.109 5.40496 6.05838C5.518 6.00777 5.63997 5.98042 5.76363 5.97798C5.88729 5.97554 6.01012 5.99804 6.12486 6.04415C6.2396 6.09026 6.34391 6.15905 6.43161 6.24644L9.83388 9.46881L10.4208 5.35952C10.4382 5.23666 10.4795 5.11838 10.5423 5.01147C10.6052 4.90455 10.6884 4.81109 10.7873 4.73643C10.8861 4.66177 10.9986 4.60739 11.1182 4.57638C11.2379 4.54538 11.3625 4.53837 11.4848 4.55575L11.5687 4.57563C11.7958 4.62871 11.9944 4.76614 12.1245 4.96033C12.2547 5.15452 12.3067 5.3911 12.2703 5.6226L11.5099 11.0391L13.9294 13.3323L14.7775 7.07805C14.8103 6.93954 14.9966 6.96778 15.0678 6.85426C15.139 6.74075 14.99 6.58145 15.0943 6.48849C15.2885 6.34885 15.5295 6.29165 15.765 6.32934C15.798 6.33714 15.8024 6.26505 15.8398 6.26755L15.9327 6.28955C16.1245 6.33357 16.2972 6.43796 16.4256 6.58751L20.5215 11.3447L21.2923 8.08978L17.676 3.98041C17.5516 3.8294 17.4772 3.64325 17.4628 3.44768C17.4485 3.2521 17.4951 3.05676 17.596 2.88866C17.697 2.72055 17.8474 2.58799 18.0265 2.50927C18.2055 2.43056 18.4044 2.40959 18.5956 2.44927C18.7841 2.49521 18.9541 2.59757 19.0832 2.7428L21.8257 5.83755L22.9095 1.26082C22.9672 1.01725 23.1188 0.806472 23.331 0.674842C23.5432 0.543213 23.7986 0.501517 24.0411 0.558928C24.2835 0.616339 24.4931 0.768154 24.6237 0.980975C24.7544 1.1938 24.7954 1.45019 24.7377 1.69375L23.6539 6.27048L27.5026 4.72067C27.6796 4.65597 27.8715 4.64502 28.0544 4.68918C28.2495 4.73449 28.4248 4.84119 28.555 4.99374C28.6851 5.14628 28.7632 5.33669 28.7779 5.53719C28.7926 5.73769 28.7432 5.9378 28.6367 6.10833C28.5303 6.27887 28.3724 6.41091 28.1862 6.4852L23.1176 8.52201L22.3468 11.7769L28.1606 9.36009C28.342 9.27935 28.5442 9.25925 28.7376 9.30275L28.8305 9.32475C28.8665 9.33327 28.8388 9.39667 28.8726 9.41422C29.1 9.48617 29.2898 9.64539 29.4007 9.85727C29.4553 9.98784 29.267 10.0609 29.2604 10.1961C29.2537 10.3312 29.4673 10.3914 29.4195 10.5263L27.3727 16.4967L30.5637 15.5321L32.2772 10.3413C32.352 10.1205 32.5053 9.93505 32.7077 9.82044C32.91 9.70582 33.1472 9.67012 33.3738 9.72016L33.4577 9.74003C33.5748 9.77933 33.683 9.84146 33.7761 9.92284C33.8692 10.0042 33.9453 10.1033 34.0001 10.2143C34.055 10.3254 34.0875 10.4462 34.0957 10.57C34.104 10.6938 34.0878 10.818 34.0482 10.9356L32.73 14.8717L37.2238 13.5382C37.4618 13.4642 37.7192 13.4878 37.9396 13.6037C38.16 13.7197 38.3256 13.9186 38.4002 14.1571C38.4378 14.2758 38.4511 14.401 38.4394 14.5251C38.4277 14.6493 38.3913 14.7698 38.3322 14.8796C38.2731 14.9894 38.1926 15.0861 38.0956 15.164C37.9985 15.242 37.8868 15.2995 37.7672 15.3332L33.2804 16.6905L36.5302 19.2472C36.6334 19.3213 36.7205 19.4156 36.7863 19.5245C36.8521 19.6334 36.8952 19.7546 36.913 19.8808C36.9308 20.0069 36.923 20.1355 36.8899 20.2587C36.8569 20.3818 36.7994 20.497 36.7208 20.5974C36.6423 20.6977 36.5443 20.781 36.4329 20.8423C36.3215 20.9036 36.1989 20.9417 36.0725 20.9541C35.9461 20.9666 35.8186 20.9532 35.6976 20.9148C35.5766 20.8763 35.4647 20.8137 35.3686 20.7306L31.0724 17.3537L27.8806 18.3214L32.8628 22.1564C32.9345 22.2147 32.8423 22.3233 32.8924 22.3924C32.9962 22.5155 33.17 22.5567 33.2116 22.7287C33.2532 22.9007 33.0255 22.9263 32.9816 23.0717C32.9377 23.2171 33.1335 23.3525 33.0333 23.4814C32.9332 23.6104 32.7889 23.4712 32.67 23.5321C32.5511 23.593 32.6044 23.8091 32.465 23.8365L26.2913 25.0329L28.7108 27.3262L34.0659 26.2317C34.1994 26.2059 34.3368 26.2091 34.4688 26.2412C34.6774 26.2904 34.8628 26.4097 34.9943 26.5793C35.1258 26.749 35.1955 26.9588 35.1919 27.174C35.1882 27.3892 35.1114 27.5968 34.9742 27.7624C34.837 27.928 34.6476 28.0417 34.4374 28.0845L30.3856 28.9152L33.7914 32.1226C33.8889 32.2056 33.9686 32.3078 34.0254 32.4229C34.0823 32.538 34.1152 32.6635 34.1221 32.7919C34.129 32.9202 34.1098 33.0487 34.0657 33.1695C34.0216 33.2903 33.9534 33.4008 33.8654 33.4944C33.7774 33.5879 33.6713 33.6625 33.5538 33.7136C33.4362 33.7647 33.3095 33.7913 33.1815 33.7916C33.0534 33.792 32.9267 33.7662 32.809 33.7157C32.6914 33.6653 32.5852 33.5913 32.4971 33.4982L29.0948 30.2758L28.5043 34.4002C28.4867 34.5229 28.4451 34.6411 28.382 34.7478C28.319 34.8545 28.2356 34.9478 28.1367 35.0223C28.0378 35.0967 27.9253 35.1509 27.8056 35.1818C27.686 35.2126 27.5615 35.2195 27.4392 35.2021C27.317 35.1846 27.1995 35.1431 27.0933 35.08C26.9871 35.0169 26.8944 34.9334 26.8205 34.8342C26.7465 34.7351 26.6928 34.6222 26.6623 34.5021C26.6318 34.382 26.6252 34.257 26.6428 34.1343L27.4188 28.7056L24.9986 26.4153L24.1505 32.6696C24.1334 32.8086 23.9351 32.7776 23.8602 32.8934C23.7852 33.0092 23.9417 33.1639 23.8337 33.2592C23.7257 33.3544 23.5699 33.1967 23.4231 33.2287C23.2762 33.2607 23.2529 33.5064 23.097 33.4695C22.9412 33.4326 22.9877 33.2496 22.8748 33.1784C22.7619 33.1071 22.6022 33.2601 22.5106 33.1525L18.4109 28.3977L17.6401 31.6526L21.2534 35.7612C21.4189 35.9488 21.5032 36.1949 21.4878 36.4453C21.4724 36.6957 21.3587 36.9299 21.1715 37.0964C20.9843 37.2629 20.7391 37.3481 20.4897 37.3332C20.2404 37.3183 20.0074 37.2045 19.842 37.0169L17.097 33.9057L16.0132 38.4824C15.9556 38.726 15.8039 38.9367 15.5917 39.0684C15.3795 39.2 15.1241 39.2417 14.8816 39.1843C14.6392 39.1269 14.4296 38.9751 14.299 38.7622C14.1683 38.5494 14.1273 38.293 14.185 38.0495L15.2717 33.4607L11.423 35.0105C11.191 35.104 10.9317 35.1012 10.7021 35.0027C10.4726 34.9042 10.2916 34.7181 10.199 34.4853C10.1064 34.2526 10.1097 33.9922 10.2082 33.7615C10.3068 33.5308 10.4925 33.3487 10.7245 33.2552L15.8149 31.2203L16.5856 27.9654L10.7718 30.3822C10.6417 30.4373 10.5693 30.2484 10.4347 30.242C10.3001 30.2356 10.2435 30.4479 10.1055 30.4025C9.96747 30.3571 10.0278 30.1425 9.92503 30.0418C9.82226 29.9412 9.61035 30.0341 9.54139 29.8842C9.47243 29.7343 9.67579 29.6775 9.68176 29.5454C9.68773 29.4132 9.4755 29.3471 9.52258 29.2151L11.5694 23.2447L8.39325 24.2002L6.65151 29.4034C6.61223 29.521 6.55026 29.6298 6.46916 29.7234C6.38806 29.8171 6.28941 29.8939 6.17884 29.9494C6.06828 30.0048 5.94796 30.0379 5.82476 30.0467C5.70157 30.0555 5.5779 30.0398 5.46083 30.0006C5.34375 29.9614 5.23556 29.8994 5.14243 29.8182C5.04931 29.7369 4.97307 29.638 4.91806 29.5271C4.86306 29.4162 4.83037 29.2955 4.82187 29.1718C4.81336 29.0481 4.82921 28.9239 4.8685 28.8062L6.18817 24.8641L1.7021 26.2184C1.46133 26.2905 1.20213 26.2635 0.981522 26.1436C0.76091 26.0237 0.596962 25.8206 0.525745 25.579C0.454524 25.3373 0.481871 25.077 0.601761 24.8552C0.721647 24.6335 0.924263 24.4684 1.16503 24.3964L5.6541 23.0428L2.40208 20.4824C2.30504 20.406 2.22399 20.3111 2.16354 20.2031C2.1031 20.0951 2.06444 19.9762 2.04979 19.8532C2.03514 19.7301 2.04478 19.6053 2.07815 19.4859C2.11152 19.3665 2.16797 19.2548 2.24429 19.1572C2.3206 19.0596 2.41529 18.978 2.52293 18.9171C2.63057 18.8562 2.74906 18.8171 2.87164 18.8021C2.99422 18.7872 3.11849 18.7966 3.23734 18.8298C3.3562 18.8631 3.46732 18.9196 3.56435 18.996L7.85704 22.3879L11.0481 21.4232L6.06657 17.5852C5.95124 17.4975 6.08023 17.3404 6.02055 17.2182C5.96088 17.0959 5.74182 17.1522 5.71782 17.0129C5.69382 16.8737 5.90388 16.8153 5.94781 16.6699C5.99174 16.5245 5.79592 16.3891 5.89608 16.2602C5.99624 16.1313 6.1812 16.1655 6.32918 16.102C6.40795 16.0634 6.37125 15.9243 6.46444 15.9051L12.6374 14.7117L10.2172 12.4214L4.8642 13.5069C4.61982 13.557 4.36583 13.5076 4.15812 13.3695C3.95041 13.2315 3.80598 13.0161 3.75662 12.7708C3.70726 12.5255 3.757 12.2704 3.89491 12.0615C4.03281 11.8527 4.24757 11.7072 4.49196 11.6571L8.54543 10.8331L5.14087 7.60703C5.04939 7.52308 4.97571 7.42147 4.92423 7.30824C4.87275 7.19501 4.84453 7.07248 4.84123 6.94796C4.83793 6.82345 4.85963 6.69948 4.90504 6.58346C4.95044 6.46744 5.01863 6.36174 5.10552 6.27266ZM30.0564 22.379L25.6591 18.9878L21.2959 20.3045L24.6053 23.4381L30.0564 22.379ZM18.9478 26.1304L22.578 30.3416L23.3133 24.8174L20.0009 21.6831L18.9478 26.1304ZM20.756 18.4945L25.1222 17.1785L26.9424 11.9112L21.8099 14.0442L20.756 18.4945ZM19.9846 13.612L16.3507 9.40304L15.6184 14.9279L18.9308 18.0622L19.9846 13.612ZM17.1225 25.6981L18.1757 21.2509L13.8125 22.5676L11.9893 27.8341L17.1225 25.6981ZM8.87597 17.3633L13.2703 20.7538L17.6335 19.4372L14.3241 16.3036L8.87597 17.3633Z" fill="white"/>
</svg>
