<svg width="30" height="31" viewBox="0 0 30 31" fill="none" xmlns="http://www.w3.org/2000/svg">
<path d="M4.37433 4.88873C4.439 4.8193 4.51686 4.76359 4.6033 4.72488C4.68974 4.68618 4.783 4.66527 4.87755 4.6634C4.97211 4.66153 5.06604 4.67874 5.15377 4.714C5.24151 4.74926 5.32127 4.80186 5.38833 4.86868L7.98989 7.33268L8.43871 4.1905C8.45197 4.09655 8.48354 4.00611 8.53161 3.92435C8.57969 3.8426 8.64333 3.77113 8.7189 3.71405C8.79446 3.65696 8.88046 3.61537 8.97198 3.59167C9.0635 3.56796 9.15874 3.5626 9.25225 3.57589L9.31642 3.59109C9.4901 3.63168 9.64194 3.73676 9.74145 3.88525C9.84096 4.03374 9.88078 4.21465 9.85291 4.39166L9.27146 8.53339L11.1216 10.2869L11.77 5.50457C11.7951 5.39867 11.9376 5.42026 11.9921 5.33346C12.0465 5.24666 11.9325 5.12485 12.0123 5.05377C12.1608 4.94699 12.3451 4.90326 12.5252 4.93207C12.5504 4.93804 12.5538 4.88292 12.5823 4.88482L12.6534 4.90165C12.8 4.93531 12.9321 5.01513 13.0302 5.12948L16.1623 8.76707L16.7516 6.2782L13.9864 3.13595C13.8913 3.02049 13.8344 2.87814 13.8234 2.7286C13.8125 2.57905 13.848 2.42968 13.9253 2.30114C14.0025 2.1726 14.1175 2.07123 14.2544 2.01104C14.3913 1.95085 14.5434 1.93482 14.6896 1.96516C14.8337 2.00029 14.9637 2.07856 15.0624 2.18961L17.1595 4.55602L17.9882 1.0564C18.0323 0.870162 18.1482 0.708987 18.3105 0.608336C18.4728 0.507685 18.6681 0.475802 18.8535 0.519701C19.0389 0.563601 19.1991 0.679687 19.299 0.842421C19.3989 1.00516 19.4303 1.20121 19.3862 1.38745L18.5574 4.88707L21.5003 3.702C21.6357 3.65253 21.7824 3.64415 21.9223 3.67792C22.0714 3.71256 22.2055 3.79415 22.305 3.9108C22.4046 4.02744 22.4643 4.17303 22.4755 4.32635C22.4868 4.47966 22.449 4.63268 22.3676 4.76308C22.2862 4.89348 22.1655 4.99445 22.0231 5.05125L18.1473 6.6087L17.5579 9.09758L22.0035 7.24955C22.1422 7.18781 22.2968 7.17244 22.4447 7.2057L22.5157 7.22253C22.5432 7.22904 22.5221 7.27752 22.5479 7.29094C22.7218 7.34596 22.867 7.4677 22.9518 7.62972C22.9935 7.72956 22.8495 7.78544 22.8444 7.88879C22.8393 7.99213 23.0027 8.03811 22.9661 8.14131L21.401 12.7066L23.841 11.969L25.1513 7.99982C25.2085 7.831 25.3257 7.68919 25.4804 7.60155C25.6352 7.51391 25.8165 7.48661 25.9898 7.52487L26.054 7.54007C26.1435 7.57013 26.2262 7.61763 26.2974 7.67986C26.3686 7.74209 26.4268 7.81783 26.4687 7.90274C26.5107 7.98765 26.5355 8.08007 26.5418 8.1747C26.5481 8.26934 26.5358 8.36433 26.5055 8.45425L25.4975 11.464L28.9337 10.4444C29.1157 10.3878 29.3125 10.4058 29.4811 10.4945C29.6496 10.5831 29.7762 10.7352 29.8333 10.9176C29.862 11.0084 29.8722 11.1041 29.8632 11.199C29.8543 11.2939 29.8264 11.3861 29.7812 11.4701C29.7361 11.554 29.6745 11.628 29.6003 11.6876C29.5261 11.7471 29.4407 11.7911 29.3492 11.8169L25.9184 12.8548L28.4033 14.8098C28.4822 14.8664 28.5488 14.9385 28.5991 15.0218C28.6495 15.1051 28.6824 15.1977 28.696 15.2942C28.7097 15.3907 28.7037 15.489 28.6784 15.5832C28.6532 15.6774 28.6092 15.7655 28.5491 15.8422C28.489 15.9189 28.4142 15.9826 28.3289 16.0295C28.2437 16.0764 28.15 16.1055 28.0534 16.115C27.9567 16.1245 27.8592 16.1143 27.7667 16.0849C27.6742 16.0555 27.5886 16.0076 27.5151 15.944L24.23 13.3619L21.7894 14.1019L25.5991 17.0343C25.6539 17.0789 25.5834 17.1619 25.6217 17.2147C25.7011 17.3089 25.834 17.3404 25.8658 17.4719C25.8975 17.6034 25.7235 17.623 25.6899 17.7342C25.6563 17.8454 25.806 17.9489 25.7295 18.0475C25.6529 18.1461 25.5425 18.0397 25.4516 18.0863C25.3607 18.1328 25.4015 18.2981 25.2949 18.319L20.5741 19.2339L22.4242 20.9874L26.519 20.1505C26.6211 20.1307 26.7262 20.1332 26.8271 20.1578C26.9866 20.1954 27.1283 20.2866 27.2289 20.4163C27.3295 20.546 27.3828 20.7065 27.38 20.871C27.3772 21.0356 27.3184 21.1943 27.2135 21.321C27.1086 21.4476 26.9638 21.5345 26.8031 21.5672L23.7048 22.2025L26.3091 24.655C26.3837 24.7185 26.4446 24.7966 26.4881 24.8846C26.5315 24.9726 26.5567 25.0686 26.562 25.1668C26.5673 25.2649 26.5526 25.3632 26.5189 25.4555C26.4851 25.5479 26.433 25.6324 26.3657 25.7039C26.2984 25.7755 26.2173 25.8325 26.1274 25.8716C26.0375 25.9107 25.9406 25.931 25.8427 25.9312C25.7448 25.9315 25.6479 25.9118 25.5579 25.8732C25.468 25.8346 25.3868 25.778 25.3194 25.7069L22.7178 23.2429L22.2663 26.3966C22.2528 26.4904 22.221 26.5808 22.1728 26.6624C22.1246 26.744 22.0608 26.8153 21.9852 26.8722C21.9096 26.9292 21.8236 26.9706 21.7321 26.9942C21.6406 27.0178 21.5454 27.0231 21.4519 27.0097C21.3584 26.9964 21.2685 26.9647 21.1874 26.9164C21.1062 26.8682 21.0353 26.8043 20.9787 26.7285C20.9222 26.6527 20.8811 26.5664 20.8578 26.4745C20.8345 26.3827 20.8294 26.2871 20.8429 26.1932L21.4363 22.0421L19.5856 20.2909L18.9372 25.0733C18.9241 25.1796 18.7724 25.1558 18.7151 25.2444C18.6579 25.3329 18.7775 25.4512 18.6949 25.5241C18.6123 25.5969 18.4932 25.4763 18.3809 25.5008C18.2686 25.5253 18.2508 25.7131 18.1316 25.6849C18.0124 25.6567 18.048 25.5168 17.9617 25.4623C17.8753 25.4078 17.7532 25.5248 17.6832 25.4425L14.5483 21.8067L13.9589 24.2956L16.7219 27.4373C16.8484 27.5807 16.9129 27.7689 16.9011 27.9604C16.8894 28.1518 16.8024 28.3309 16.6592 28.4583C16.5161 28.5856 16.3286 28.6507 16.1379 28.6393C15.9473 28.6279 15.7691 28.5409 15.6426 28.3974L13.5437 26.0184L12.715 29.518C12.6709 29.7043 12.5549 29.8655 12.3926 29.9661C12.2304 30.0668 12.0351 30.0986 11.8497 30.0548C11.6643 30.0109 11.504 29.8948 11.4041 29.732C11.3042 29.5693 11.2729 29.3732 11.317 29.187L12.1479 25.6782L9.205 26.8632C9.02759 26.9347 8.82932 26.9326 8.6538 26.8573C8.47828 26.782 8.33988 26.6397 8.26906 26.4617C8.19823 26.2837 8.20079 26.0846 8.27615 25.9082C8.35151 25.7318 8.49351 25.5925 8.67091 25.521L12.5633 23.9651L13.1526 21.4762L8.70708 23.3242C8.60756 23.3663 8.55221 23.2219 8.4493 23.217C8.3464 23.2121 8.3031 23.3745 8.19757 23.3397C8.09204 23.305 8.13817 23.1409 8.05959 23.0639C7.981 22.987 7.81896 23.058 7.76624 22.9434C7.71351 22.8288 7.86901 22.7854 7.87357 22.6843C7.87814 22.5833 7.71586 22.5327 7.75185 22.4318L9.31699 17.8665L6.88831 18.5971L5.55648 22.5757C5.52644 22.6657 5.47906 22.7488 5.41704 22.8205C5.35503 22.8921 5.2796 22.9508 5.19505 22.9932C5.11051 23.0356 5.0185 23.0609 4.9243 23.0676C4.8301 23.0744 4.73554 23.0624 4.64602 23.0324C4.55649 23.0024 4.47376 22.955 4.40255 22.8929C4.33134 22.8308 4.27305 22.7552 4.23099 22.6704C4.18893 22.5855 4.16393 22.4932 4.15743 22.3986C4.15093 22.3041 4.16305 22.2091 4.19309 22.1191L5.20218 19.1047L1.77189 20.1404C1.58778 20.1954 1.38958 20.1749 1.22089 20.0831C1.0522 19.9914 0.92684 19.8361 0.872382 19.6514C0.817924 19.4666 0.838834 19.2676 0.930509 19.098C1.02218 18.9284 1.17711 18.8022 1.36122 18.7471L4.79381 17.7121L2.30713 15.7543C2.23293 15.6958 2.17095 15.6233 2.12473 15.5407C2.07851 15.4581 2.04896 15.3672 2.03775 15.2731C2.02655 15.179 2.03392 15.0836 2.05944 14.9923C2.08495 14.901 2.12812 14.8156 2.18648 14.7409C2.24483 14.6663 2.31723 14.6039 2.39954 14.5573C2.48185 14.5108 2.57245 14.4809 2.66619 14.4694C2.75992 14.458 2.85493 14.4652 2.94582 14.4906C3.0367 14.5161 3.12167 14.5592 3.19587 14.6177L6.47829 17.2113L8.91833 16.4737L5.1092 13.5389C5.02101 13.4718 5.11964 13.3517 5.07401 13.2583C5.02838 13.1648 4.86088 13.2078 4.84253 13.1013C4.82418 12.9949 4.9848 12.9502 5.01839 12.839C5.05198 12.7279 4.90224 12.6243 4.97883 12.5257C5.05542 12.4272 5.19685 12.4534 5.31001 12.4048C5.37024 12.3753 5.34218 12.2689 5.41343 12.2542L10.1336 11.3417L8.28297 9.59043L4.1898 10.4204C4.00293 10.4587 3.80872 10.4209 3.64989 10.3154C3.49107 10.2098 3.38063 10.0452 3.34289 9.85759C3.30514 9.67003 3.34318 9.47493 3.44863 9.31522C3.55408 9.15552 3.7183 9.04428 3.90517 9.00599L7.00467 8.37591L4.40136 5.90906C4.33141 5.84487 4.27507 5.76717 4.23571 5.68059C4.19634 5.59401 4.17476 5.50032 4.17224 5.40511C4.16971 5.30989 4.18631 5.2151 4.22103 5.12639C4.25575 5.03767 4.30788 4.95685 4.37433 4.88873ZM23.4532 17.2045L20.0907 14.6114L16.7544 15.6182L19.2849 18.0143L23.4532 17.2045ZM14.9589 20.073L17.7347 23.2932L18.297 19.0691L15.7642 16.6724L14.9589 20.073ZM16.3415 14.2342L19.6802 13.2279L21.072 9.20029L17.1474 10.8313L16.3415 14.2342ZM15.7517 10.5008L12.973 7.28239L12.4131 11.507L14.9459 13.9037L15.7517 10.5008ZM13.5632 19.7425L14.3685 16.3419L11.0321 17.3487L9.63801 21.3758L13.5632 19.7425ZM7.25742 13.3693L10.6175 15.9618L13.9539 14.955L11.4234 12.5589L7.25742 13.3693Z" fill="white"/>
</svg>
