<svg width="40" height="41" viewBox="0 0 40 41" fill="none" xmlns="http://www.w3.org/2000/svg">
<path d="M5.1976 6.00161C5.28538 5.90736 5.39108 5.83173 5.50841 5.77919C5.62576 5.72664 5.75236 5.69826 5.88071 5.69573C6.00907 5.69319 6.13658 5.71655 6.25568 5.76441C6.37479 5.81228 6.48306 5.88368 6.57409 5.97439L10.1057 9.31925L10.715 5.05376C10.7329 4.92623 10.7758 4.80346 10.8411 4.69247C10.9063 4.58149 10.9927 4.48448 11.0953 4.40699C11.1979 4.32949 11.3146 4.27304 11.4389 4.24086C11.5631 4.20868 11.6924 4.2014 11.8193 4.21944L11.9064 4.24007C12.1422 4.29517 12.3483 4.43782 12.4834 4.63939C12.6185 4.84097 12.6725 5.08654 12.6347 5.32683L11.8454 10.9492L14.3569 13.3296L15.2372 6.83761C15.2712 6.69384 15.4647 6.72315 15.5386 6.60532C15.6125 6.48749 15.4578 6.32213 15.5661 6.22564C15.7676 6.08069 16.0178 6.02133 16.2623 6.06044C16.2965 6.06854 16.3011 5.99371 16.3399 5.9963L16.4363 6.01914C16.6354 6.06483 16.8146 6.17319 16.9479 6.32842L21.1996 11.2664L21.9997 7.8878L18.2458 3.62223C18.1168 3.46548 18.0395 3.27225 18.0246 3.06925C18.0098 2.86624 18.0581 2.66347 18.1629 2.48898C18.2677 2.31449 18.4238 2.17688 18.6097 2.09517C18.7956 2.01347 19.002 1.9917 19.2005 2.03289C19.3961 2.08058 19.5726 2.18683 19.7065 2.33757L22.5533 5.54996L23.6783 0.799264C23.7381 0.546443 23.8955 0.32765 24.1158 0.191017C24.3361 0.0543839 24.6012 0.0111033 24.8529 0.0706962C25.1045 0.13029 25.3221 0.287875 25.4577 0.508786C25.5933 0.729696 25.6359 0.995835 25.576 1.24866L24.451 5.99935L28.446 4.39063C28.6297 4.32347 28.8289 4.3121 29.0188 4.35794C29.2212 4.40497 29.4033 4.51573 29.5383 4.67407C29.6734 4.83241 29.7545 5.03006 29.7698 5.23818C29.7851 5.4463 29.7337 5.65402 29.6232 5.83103C29.5127 6.00805 29.3489 6.14511 29.1556 6.22223L23.8943 8.33645L23.0942 11.7151L29.129 9.20639C29.3173 9.12259 29.5272 9.10172 29.7279 9.14687L29.8244 9.16971C29.8617 9.17855 29.833 9.24437 29.8681 9.26258C30.1041 9.33727 30.3011 9.50253 30.4163 9.72247C30.4729 9.858 30.2775 9.93386 30.2706 10.0741C30.2636 10.2144 30.4854 10.2769 30.4358 10.4169L28.3111 16.6143L31.6234 15.613L33.4021 10.2249C33.4798 9.99571 33.6389 9.8032 33.8489 9.68423C34.059 9.56527 34.3052 9.5282 34.5404 9.58014L34.6275 9.60077C34.749 9.64157 34.8613 9.70606 34.9579 9.79053C35.0545 9.87501 35.1336 9.97783 35.1905 10.0931C35.2474 10.2084 35.2811 10.3338 35.2897 10.4623C35.2983 10.5907 35.2815 10.7197 35.2404 10.8418L33.872 14.9275L38.5366 13.5433C38.7838 13.4665 39.0509 13.491 39.2797 13.6113C39.5085 13.7317 39.6804 13.9382 39.7578 14.1857C39.7968 14.309 39.8107 14.4389 39.7985 14.5678C39.7864 14.6966 39.7485 14.8218 39.6872 14.9357C39.6259 15.0496 39.5423 15.15 39.4416 15.2309C39.3408 15.3118 39.2249 15.3715 39.1008 15.4065L34.4434 16.8155L37.8167 19.4693C37.9238 19.5462 38.0142 19.6441 38.0825 19.7571C38.1508 19.8702 38.1956 19.996 38.2141 20.1269C38.2326 20.2579 38.2244 20.3914 38.1901 20.5192C38.1559 20.6471 38.0961 20.7667 38.0146 20.8708C37.9331 20.9749 37.8314 21.0614 37.7157 21.1251C37.6001 21.1887 37.4728 21.2282 37.3416 21.2411C37.2104 21.254 37.0781 21.2401 36.9525 21.2003C36.8269 21.1604 36.7108 21.0953 36.611 21.0091L32.1514 17.5039L28.8384 18.5083L34.01 22.4891C34.0843 22.5496 33.9887 22.6623 34.0407 22.734C34.1484 22.8618 34.3288 22.9046 34.372 23.0831C34.4151 23.2617 34.1788 23.2882 34.1332 23.4392C34.0876 23.5901 34.2909 23.7307 34.1869 23.8645C34.083 23.9983 33.9332 23.8539 33.8098 23.9171C33.6864 23.9803 33.7417 24.2047 33.597 24.2331L27.1886 25.475L29.7001 27.8554L35.2588 26.7193C35.3973 26.6925 35.54 26.6959 35.677 26.7292C35.8935 26.7802 36.0859 26.904 36.2224 27.0801C36.359 27.2562 36.4313 27.474 36.4275 27.6974C36.4237 27.9208 36.344 28.1363 36.2015 28.3082C36.0591 28.4801 35.8625 28.598 35.6444 28.6425L31.4385 29.5048L34.9738 32.8341C35.0751 32.9203 35.1577 33.0264 35.2168 33.1458C35.2758 33.2653 35.3099 33.3956 35.3171 33.5288C35.3243 33.6621 35.3044 33.7954 35.2586 33.9208C35.2127 34.0462 35.142 34.1609 35.0506 34.258C34.9593 34.3551 34.8492 34.4326 34.7271 34.4856C34.6051 34.5387 34.4736 34.5662 34.3407 34.5666C34.2078 34.567 34.0763 34.5401 33.9541 34.4878C33.832 34.4354 33.7218 34.3586 33.6303 34.262L30.0987 30.9171L29.4858 35.1982C29.4674 35.3257 29.4243 35.4483 29.3589 35.5591C29.2934 35.6699 29.2068 35.7667 29.1042 35.844C29.0015 35.9213 28.8848 35.9776 28.7605 36.0096C28.6363 36.0416 28.5071 36.0488 28.3802 36.0306C28.2533 36.0125 28.1313 35.9695 28.0211 35.904C27.9109 35.8384 27.8147 35.7517 27.7379 35.6488C27.6612 35.5459 27.6054 35.4288 27.5737 35.3041C27.5421 35.1794 27.5352 35.0497 27.5536 34.9222L28.359 29.2872L25.8468 26.9099L24.9665 33.4019C24.9488 33.5462 24.7428 33.514 24.6651 33.6342C24.5873 33.7544 24.7497 33.915 24.6376 34.0139C24.5255 34.1127 24.3638 33.949 24.2114 33.9822C24.059 34.0155 24.0347 34.2705 23.873 34.2322C23.7112 34.1939 23.7594 34.0039 23.6423 33.93C23.5251 33.856 23.3593 34.0148 23.2642 33.9032L19.0087 28.9676L18.2086 32.3462L21.9593 36.611C22.131 36.8058 22.2185 37.0612 22.2026 37.3211C22.1866 37.581 22.0685 37.8241 21.8742 37.997C21.6799 38.1698 21.4254 38.2582 21.1666 38.2428C20.9078 38.2273 20.6659 38.1092 20.4942 37.9144L17.6449 34.685L16.5199 39.4356C16.46 39.6885 16.3027 39.9073 16.0824 40.0439C15.8621 40.1805 15.597 40.2238 15.3453 40.1642C15.0937 40.1046 14.8761 39.947 14.7405 39.7261C14.6049 39.5052 14.5623 39.2391 14.6222 38.9862L15.7501 34.2231L11.7552 35.8318C11.5144 35.9288 11.2452 35.9259 11.0069 35.8237C10.7687 35.7214 10.5808 35.5283 10.4847 35.2867C10.3885 35.045 10.392 34.7748 10.4943 34.5353C10.5966 34.2958 10.7893 34.1068 11.0302 34.0097L16.314 31.8975L17.1141 28.5189L11.0793 31.0276C10.9442 31.0847 10.869 30.8887 10.7293 30.882C10.5896 30.8753 10.5309 31.0958 10.3876 31.0487C10.2443 31.0015 10.307 30.7787 10.2003 30.6742C10.0936 30.5697 9.87365 30.6662 9.80207 30.5106C9.73049 30.355 9.94158 30.2961 9.94778 30.1589C9.95397 30.0218 9.73368 29.9531 9.78254 29.8161L11.9072 23.6188L8.61029 24.6106L6.80235 30.0115C6.76157 30.1336 6.69725 30.2465 6.61307 30.3438C6.52888 30.441 6.42648 30.5207 6.31172 30.5783C6.19695 30.6358 6.07206 30.6701 5.94417 30.6793C5.81629 30.6884 5.68793 30.6722 5.56641 30.6315C5.44488 30.5908 5.33258 30.5264 5.23591 30.4421C5.13924 30.3578 5.0601 30.2551 5.00301 30.14C4.94592 30.0248 4.91199 29.8995 4.90316 29.7711C4.89433 29.6427 4.91078 29.5138 4.95156 29.3917L6.3214 25.2997L1.66481 26.7055C1.41489 26.7803 1.14584 26.7523 0.916839 26.6279C0.687844 26.5034 0.517667 26.2925 0.443741 26.0417C0.369811 25.7909 0.398199 25.5207 0.522645 25.2905C0.647091 25.0603 0.857406 24.889 1.10733 24.8142L5.76703 23.4091L2.39139 20.7515C2.29067 20.6721 2.20653 20.5736 2.14379 20.4615C2.08105 20.3495 2.04093 20.2261 2.02572 20.0983C2.01051 19.9706 2.02051 19.841 2.05515 19.7171C2.08979 19.5931 2.14839 19.4772 2.22761 19.3759C2.30682 19.2746 2.40511 19.1899 2.51684 19.1266C2.62857 19.0634 2.75157 19.0229 2.87881 19.0073C3.00605 18.9918 3.13503 19.0016 3.2584 19.0361C3.38178 19.0706 3.49712 19.1292 3.59785 19.2085L8.0537 22.7294L11.366 21.7281L6.19517 17.7442C6.07546 17.6531 6.20935 17.4901 6.14741 17.3632C6.08546 17.2363 5.85808 17.2947 5.83317 17.1501C5.80825 17.0056 6.0263 16.945 6.0719 16.7941C6.1175 16.6431 5.91423 16.5026 6.0182 16.3688C6.12217 16.2349 6.31416 16.2705 6.46777 16.2046C6.54953 16.1645 6.51143 16.0202 6.60817 16.0002L13.0158 14.7614L10.5035 12.3841L4.9471 13.5108C4.69343 13.5628 4.42979 13.5115 4.21418 13.3682C3.99857 13.225 3.84866 13.0014 3.79742 12.7468C3.74618 12.4922 3.79782 12.2273 3.94096 12.0105C4.08411 11.7937 4.30704 11.6427 4.56071 11.5907L8.76825 10.7354L5.23429 7.3867C5.13933 7.29956 5.06285 7.19408 5.00942 7.07655C4.95598 6.95901 4.92668 6.83183 4.92326 6.70258C4.91983 6.57333 4.94236 6.44465 4.98949 6.32422C5.03662 6.2038 5.1074 6.09408 5.1976 6.00161ZM31.0969 22.7202L26.5325 19.2L22.0034 20.5668L25.4385 23.8195L31.0969 22.7202ZM19.566 26.6141L23.3342 30.9854L24.0974 25.2512L20.6592 21.9978L19.566 26.6141ZM21.443 18.688L25.9751 17.322L27.8645 11.8545L22.5369 14.0685L21.443 18.688ZM20.6423 13.6199L16.8702 9.25097L16.1101 14.9859L19.5484 18.2393L20.6423 13.6199ZM17.6714 26.1655L18.7646 21.5492L14.2355 22.9159L12.343 28.3826L17.6714 26.1655ZM9.11136 17.5138L13.6727 21.0332L18.2017 19.6665L14.7666 16.4138L9.11136 17.5138Z" fill="white"/>
</svg>
