<svg width="29" height="29" viewBox="0 0 29 29" fill="none" xmlns="http://www.w3.org/2000/svg">
<path d="M4.00829 4.99492C4.06957 4.92913 4.14335 4.87634 4.22527 4.83966C4.30718 4.80298 4.39555 4.78317 4.48515 4.7814C4.57476 4.77963 4.66377 4.79593 4.74691 4.82935C4.83005 4.86276 4.90563 4.9126 4.96917 4.97593L7.43446 7.31085L7.85977 4.33327C7.87233 4.24424 7.90224 4.15854 7.9478 4.08106C7.99336 4.00359 8.05367 3.93587 8.12528 3.88177C8.19688 3.82768 8.27838 3.78827 8.3651 3.7658C8.45183 3.74334 8.54208 3.73826 8.63068 3.75086L8.69149 3.76526C8.85608 3.80372 8.99996 3.9033 9.09426 4.04401C9.18856 4.18472 9.22629 4.35615 9.19989 4.52389L8.64889 8.44866L10.4021 10.1104L11.0166 5.57851C11.0403 5.47815 11.1754 5.49861 11.227 5.41635C11.2786 5.3341 11.1706 5.21867 11.2462 5.15131C11.3868 5.05013 11.5615 5.00869 11.7322 5.03599C11.7561 5.04165 11.7593 4.98941 11.7863 4.99122L11.8537 5.00716C11.9926 5.03906 12.1178 5.1147 12.2108 5.22306L15.1787 8.6701L15.7372 6.31161L13.1168 3.33396C13.0267 3.22454 12.9728 3.08966 12.9624 2.94794C12.952 2.80623 12.9857 2.66469 13.0589 2.54288C13.1321 2.42107 13.2411 2.32501 13.3708 2.26798C13.5006 2.21094 13.6447 2.19575 13.7832 2.2245C13.9198 2.25779 14.043 2.33196 14.1365 2.43719L16.1237 4.67964L16.909 1.36335C16.9508 1.18686 17.0607 1.03413 17.2144 0.938751C17.3682 0.843372 17.5533 0.81316 17.729 0.854759C17.9046 0.896359 18.0565 1.00636 18.1512 1.16057C18.2458 1.31478 18.2755 1.50057 18.2337 1.67705L17.4484 4.99335L20.2372 3.87035C20.3654 3.82347 20.5045 3.81554 20.6371 3.84754C20.7784 3.88036 20.9054 3.95768 20.9997 4.06822C21.094 4.17875 21.1506 4.31672 21.1613 4.462C21.172 4.60728 21.1361 4.75228 21.059 4.87585C20.9818 4.99942 20.8675 5.0951 20.7325 5.14893L17.0598 6.6248L16.5013 8.98329L20.714 7.23207C20.8454 7.17357 20.992 7.159 21.1321 7.19052L21.1994 7.20647C21.2254 7.21264 21.2054 7.25858 21.2299 7.2713C21.3947 7.32343 21.5322 7.4388 21.6126 7.59233C21.6521 7.68694 21.5157 7.73989 21.5109 7.83782C21.506 7.93576 21.6608 7.97933 21.6262 8.07712L20.143 12.4033L22.4553 11.7043L23.6969 7.94305C23.7511 7.78307 23.8622 7.64868 24.0088 7.56564C24.1554 7.48259 24.3273 7.45672 24.4915 7.49298L24.5523 7.50738C24.6371 7.53586 24.7155 7.58087 24.783 7.63984C24.8504 7.69881 24.9056 7.77058 24.9453 7.85105C24.985 7.93151 25.0086 8.01909 25.0146 8.10876C25.0205 8.19844 25.0088 8.28846 24.9801 8.37366L24.0249 11.2258L27.2811 10.2596C27.4536 10.2059 27.6401 10.223 27.7998 10.307C27.9596 10.391 28.0796 10.5352 28.1336 10.708C28.1608 10.794 28.1705 10.8847 28.162 10.9747C28.1535 11.0646 28.1271 11.152 28.0843 11.2315C28.0415 11.311 27.9832 11.3811 27.9128 11.4376C27.8425 11.4941 27.7616 11.5358 27.6749 11.5602L24.4238 12.5437L26.7786 14.3963C26.8533 14.4499 26.9165 14.5183 26.9641 14.5972C27.0118 14.6761 27.043 14.7639 27.0559 14.8553C27.0689 14.9468 27.0632 15.0399 27.0392 15.1292C27.0153 15.2184 26.9736 15.3019 26.9167 15.3746C26.8598 15.4473 26.7888 15.5077 26.7081 15.5521C26.6273 15.5965 26.5385 15.6241 26.4469 15.6331C26.3554 15.6421 26.2629 15.6324 26.1753 15.6046C26.0876 15.5767 26.0065 15.5313 25.9369 15.4711L22.8238 13.0243L20.5111 13.7254L24.1212 16.5043C24.1731 16.5465 24.1063 16.6252 24.1427 16.6752C24.2178 16.7645 24.3438 16.7943 24.3739 16.9189C24.404 17.0436 24.2391 17.0621 24.2073 17.1675C24.1754 17.2729 24.3173 17.371 24.2448 17.4644C24.1722 17.5578 24.0676 17.457 23.9815 17.5011C23.8954 17.5452 23.9339 17.7018 23.8329 17.7217L19.3595 18.5886L21.1127 20.2503L24.993 19.4572C25.0897 19.4385 25.1892 19.4409 25.2849 19.4641C25.436 19.4997 25.5704 19.5862 25.6657 19.7091C25.761 19.832 25.8115 19.9841 25.8088 20.14C25.8062 20.2959 25.7505 20.4464 25.6511 20.5664C25.5517 20.6864 25.4144 20.7687 25.2622 20.7998L22.3262 21.4017L24.794 23.7257C24.8647 23.7859 24.9224 23.86 24.9636 23.9434C25.0048 24.0267 25.0287 24.1177 25.0337 24.2107C25.0387 24.3037 25.0248 24.3968 24.9928 24.4843C24.9608 24.5719 24.9114 24.652 24.8477 24.7197C24.7839 24.7875 24.7071 24.8416 24.6219 24.8786C24.5366 24.9157 24.4449 24.9349 24.3521 24.9352C24.2593 24.9354 24.1675 24.9167 24.0822 24.8801C23.997 24.8436 23.9201 24.7899 23.8562 24.7225L21.3909 22.3876L20.963 25.3761C20.9502 25.465 20.9201 25.5506 20.8744 25.628C20.8287 25.7053 20.7683 25.7729 20.6967 25.8269C20.625 25.8808 20.5435 25.9201 20.4568 25.9425C20.3701 25.9648 20.2798 25.9698 20.1913 25.9571C20.1027 25.9445 20.0175 25.9144 19.9406 25.8687C19.8637 25.823 19.7965 25.7625 19.7429 25.6906C19.6893 25.6188 19.6504 25.537 19.6283 25.45C19.6062 25.3629 19.6014 25.2724 19.6142 25.1834L20.1765 21.2498L18.4228 19.5903L17.8083 24.1221C17.7959 24.2229 17.6522 24.2004 17.5979 24.2843C17.5436 24.3682 17.657 24.4803 17.5787 24.5493C17.5004 24.6183 17.3876 24.5041 17.2812 24.5272C17.1748 24.5504 17.1578 24.7284 17.0449 24.7017C16.932 24.675 16.9657 24.5424 16.8839 24.4908C16.8021 24.4391 16.6864 24.55 16.62 24.472L13.6493 21.0267L13.0908 23.3852L15.7091 26.3623C15.8289 26.4982 15.89 26.6765 15.8789 26.858C15.8677 27.0394 15.7853 27.2091 15.6497 27.3298C15.514 27.4504 15.3363 27.5122 15.1557 27.5014C14.975 27.4905 14.8062 27.4081 14.6863 27.2722L12.6973 25.0178L11.912 28.3341C11.8702 28.5106 11.7603 28.6633 11.6066 28.7587C11.4528 28.854 11.2677 28.8843 11.0921 28.8427C10.9164 28.8011 10.7645 28.691 10.6699 28.5368C10.5752 28.3826 10.5455 28.1968 10.5873 28.0204L11.3747 24.6953L8.58591 25.8183C8.4178 25.8861 8.22992 25.884 8.06359 25.8127C7.89726 25.7413 7.76612 25.6065 7.699 25.4378C7.63189 25.2691 7.63431 25.0805 7.70572 24.9133C7.77713 24.7461 7.9117 24.6142 8.07981 24.5464L11.7683 23.072L12.3268 20.7135L8.11408 22.4647C8.01977 22.5046 7.96732 22.3677 7.8698 22.3631C7.77229 22.3584 7.73126 22.5123 7.63126 22.4794C7.53126 22.4465 7.57497 22.291 7.5005 22.218C7.42604 22.1451 7.27249 22.2124 7.22252 22.1038C7.17255 21.9952 7.31991 21.9541 7.32423 21.8583C7.32856 21.7626 7.17478 21.7146 7.20888 21.619L8.69204 17.2929L6.39058 17.9852L5.12852 21.7554C5.10005 21.8406 5.05515 21.9195 4.99638 21.9873C4.93762 22.0552 4.86614 22.1108 4.78602 22.151C4.7059 22.1912 4.61872 22.2152 4.52945 22.2216C4.44019 22.2279 4.35058 22.2166 4.26575 22.1882C4.18091 22.1598 4.10252 22.1148 4.03504 22.056C3.96756 21.9971 3.91231 21.9254 3.87246 21.8451C3.8326 21.7647 3.80892 21.6772 3.80276 21.5876C3.79659 21.498 3.80808 21.408 3.83655 21.3227L4.79278 18.4663L1.54217 19.4476C1.36771 19.4998 1.1799 19.4803 1.02005 19.3934C0.860193 19.3065 0.741395 19.1593 0.68979 18.9843C0.638184 18.8092 0.657998 18.6205 0.744871 18.4598C0.831741 18.2991 0.978556 18.1795 1.15302 18.1274L4.40579 17.1465L2.04938 15.2913C1.97907 15.2359 1.92034 15.1671 1.87654 15.0889C1.83274 15.0107 1.80473 14.9245 1.79411 14.8353C1.7835 14.7462 1.79048 14.6558 1.81466 14.5692C1.83884 14.4827 1.87975 14.4018 1.93505 14.331C1.99034 14.2603 2.05895 14.2012 2.13695 14.1571C2.21495 14.1129 2.30081 14.0846 2.38963 14.0738C2.47845 14.0629 2.56849 14.0697 2.65461 14.0938C2.74073 14.1179 2.82125 14.1589 2.89156 14.2142L6.00204 16.672L8.31426 15.973L4.70467 13.192C4.6211 13.1284 4.71456 13.0146 4.67132 12.926C4.62808 12.8375 4.46935 12.8782 4.45196 12.7773C4.43457 12.6764 4.58678 12.6341 4.61862 12.5288C4.65045 12.4234 4.50855 12.3253 4.58113 12.2319C4.65371 12.1385 4.78773 12.1633 4.89496 12.1173C4.95203 12.0893 4.92544 11.9885 4.99296 11.9746L9.46589 11.1098L7.71218 9.45033L3.83343 10.2369C3.65635 10.2731 3.47231 10.2373 3.3218 10.1373C3.1713 10.0373 3.06665 9.88124 3.03088 9.7035C2.99511 9.52576 3.03116 9.34088 3.13108 9.18954C3.23101 9.0382 3.38663 8.93279 3.56371 8.89651L6.50085 8.29943L4.0339 5.96181C3.96762 5.90098 3.91423 5.82735 3.87693 5.7453C3.83963 5.66325 3.81917 5.57447 3.81678 5.48425C3.8144 5.39402 3.83012 5.3042 3.86302 5.22013C3.89592 5.13606 3.94533 5.05947 4.00829 4.99492ZM22.0877 16.6656L18.9014 14.2083L15.7398 15.1624L18.1378 17.4329L22.0877 16.6656ZM14.0384 19.3838L16.6688 22.4353L17.2016 18.4324L14.8015 16.1613L14.0384 19.3838ZM15.3486 13.8508L18.5124 12.8973L19.8313 9.08063L16.1122 10.6262L15.3486 13.8508ZM14.7897 10.313L12.1565 7.26319L11.6259 11.2665L14.0261 13.5376L14.7897 10.313ZM12.7158 19.0706L13.4789 15.8481L10.3173 16.8022L8.99624 20.6183L12.7158 19.0706ZM6.74036 13.0312L9.92446 15.488L13.086 14.5339L10.6881 12.2633L6.74036 13.0312Z" fill="white"/>
</svg>
