<svg width="30" height="30" viewBox="0 0 30 30" fill="none" xmlns="http://www.w3.org/2000/svg">
<path d="M4.34526 4.40722C4.40993 4.3378 4.48779 4.28208 4.57423 4.24338C4.66067 4.20467 4.75393 4.18377 4.84848 4.1819C4.94304 4.18003 5.03697 4.19723 5.12471 4.23249C5.21244 4.26776 5.2922 4.32036 5.35926 4.38718L7.96082 6.85118L8.40964 3.70899C8.4229 3.61504 8.45447 3.5246 8.50254 3.44285C8.55062 3.36109 8.61427 3.28963 8.68983 3.23254C8.76539 3.17545 8.85139 3.13387 8.94291 3.11016C9.03443 3.08646 9.12967 3.08109 9.22318 3.09439L9.28735 3.10958C9.46103 3.15017 9.61287 3.25526 9.71238 3.40375C9.81189 3.55223 9.85171 3.73314 9.82384 3.91015L9.24239 8.05188L11.0925 9.80544L11.7409 5.02307C11.766 4.91716 11.9085 4.93875 11.963 4.85195C12.0174 4.76515 11.9035 4.64334 11.9832 4.57226C12.1317 4.46548 12.316 4.42175 12.4961 4.45056C12.5213 4.45653 12.5247 4.40141 12.5533 4.40332L12.6243 4.42014C12.771 4.4538 12.903 4.53362 13.0012 4.64798L16.1332 8.28556L16.7226 5.79669L13.9573 2.65444C13.8622 2.53898 13.8053 2.39664 13.7943 2.24709C13.7834 2.09754 13.819 1.94818 13.8962 1.81963C13.9734 1.69109 14.0884 1.58972 14.2253 1.52953C14.3623 1.46935 14.5143 1.45331 14.6605 1.48365C14.8046 1.51879 14.9346 1.59705 15.0333 1.7081L17.1304 4.07451L17.9591 0.574897C18.0032 0.388655 18.1192 0.227481 18.2814 0.12683C18.4437 0.0261783 18.639 -0.00570451 18.8244 0.038195C19.0098 0.0820947 19.1701 0.198181 19.27 0.360915C19.3698 0.52365 19.4012 0.719703 19.3571 0.905944L18.5284 4.40556L21.4713 3.22049C21.6066 3.17102 21.7534 3.16265 21.8933 3.19641C22.0424 3.23105 22.1765 3.31265 22.276 3.42929C22.3755 3.54593 22.4352 3.69153 22.4465 3.84484C22.4577 3.99816 22.4199 4.15117 22.3385 4.28157C22.2571 4.41197 22.1364 4.51294 21.994 4.56975L18.1182 6.1272L17.5289 8.61607L21.9744 6.76804C22.1131 6.70631 22.2678 6.69093 22.4156 6.7242L22.4867 6.74102C22.5142 6.74753 22.493 6.79602 22.5189 6.80944C22.6928 6.86445 22.8379 6.98619 22.9227 7.14821C22.9644 7.24805 22.8205 7.30394 22.8154 7.40728C22.8102 7.51062 22.9736 7.55661 22.9371 7.6598L21.3719 12.2251L23.812 11.4875L25.1222 7.51832C25.1794 7.3495 25.2966 7.20768 25.4514 7.12005C25.6061 7.03241 25.7875 7.00511 25.9607 7.04337L26.0249 7.05856C26.1144 7.08862 26.1972 7.13612 26.2683 7.19835C26.3395 7.26058 26.3977 7.33632 26.4397 7.42123C26.4816 7.50615 26.5064 7.59856 26.5127 7.6932C26.519 7.78783 26.5067 7.88282 26.4764 7.97274L25.4684 10.9825L28.9046 9.96288C29.0866 9.9063 29.2834 9.9243 29.452 10.013C29.6205 10.1016 29.7472 10.2537 29.8042 10.4361C29.8329 10.5269 29.8431 10.6226 29.8342 10.7175C29.8252 10.8124 29.7973 10.9046 29.7522 10.9886C29.707 11.0725 29.6455 11.1465 29.5712 11.2061C29.497 11.2656 29.4116 11.3096 29.3202 11.3354L25.8893 12.3733L28.3743 14.3283C28.4532 14.3849 28.5198 14.457 28.5701 14.5403C28.6204 14.6236 28.6533 14.7162 28.667 14.8127C28.6806 14.9092 28.6746 15.0075 28.6494 15.1017C28.6241 15.1959 28.5801 15.284 28.52 15.3607C28.46 15.4374 28.3851 15.5011 28.2999 15.548C28.2147 15.5949 28.1209 15.624 28.0243 15.6335C27.9277 15.643 27.8301 15.6328 27.7376 15.6034C27.6451 15.574 27.5596 15.5261 27.4861 15.4625L24.2009 12.8804L21.7603 13.6203L25.57 16.5528C25.6248 16.5974 25.5543 16.6804 25.5926 16.7332C25.672 16.8274 25.8049 16.8589 25.8367 16.9904C25.8685 17.1219 25.6944 17.1415 25.6608 17.2527C25.6272 17.3639 25.777 17.4674 25.7004 17.566C25.6238 17.6646 25.5135 17.5582 25.4226 17.6048C25.3317 17.6513 25.3724 17.8166 25.2658 17.8375L20.5451 18.7524L22.3952 20.5059L26.49 19.669C26.592 19.6492 26.6971 19.6517 26.798 19.6763C26.9575 19.7139 27.0993 19.8051 27.1998 19.9348C27.3004 20.0645 27.3537 20.225 27.3509 20.3895C27.3481 20.5541 27.2894 20.7128 27.1844 20.8395C27.0795 20.9661 26.9347 21.053 26.774 21.0857L23.6757 21.721L26.28 24.1735C26.3546 24.237 26.4155 24.3151 26.459 24.4031C26.5025 24.4911 26.5276 24.5871 26.5329 24.6853C26.5382 24.7834 26.5235 24.8817 26.4898 24.974C26.456 25.0664 26.4039 25.1509 26.3366 25.2224C26.2693 25.294 26.1882 25.351 26.0983 25.3901C26.0084 25.4292 25.9115 25.4495 25.8136 25.4497C25.7157 25.45 25.6189 25.4303 25.5289 25.3917C25.4389 25.3531 25.3577 25.2965 25.2903 25.2253L22.6888 22.7613L22.2372 25.915C22.2237 26.0089 22.192 26.0992 22.1437 26.1809C22.0955 26.2625 22.0318 26.3338 21.9561 26.3907C21.8805 26.4477 21.7945 26.4891 21.703 26.5127C21.6115 26.5363 21.5163 26.5416 21.4228 26.5282C21.3294 26.5149 21.2395 26.4832 21.1583 26.4349C21.0771 26.3867 21.0062 26.3228 20.9497 26.247C20.8931 26.1711 20.852 26.0849 20.8287 25.993C20.8054 25.9012 20.8004 25.8056 20.8139 25.7117L21.4072 21.5606L19.5566 19.8094L18.9081 24.5918C18.895 24.6981 18.7433 24.6743 18.6861 24.7629C18.6288 24.8514 18.7484 24.9697 18.6658 25.0426C18.5832 25.1154 18.4641 24.9948 18.3519 25.0193C18.2396 25.0438 18.2217 25.2316 18.1025 25.2034C17.9834 25.1752 18.0189 25.0353 17.9326 24.9808C17.8463 24.9263 17.7242 25.0433 17.6541 24.961L14.5192 21.3252L13.9299 23.8141L16.6928 26.9558C16.8193 27.0992 16.8838 27.2874 16.8721 27.4789C16.8603 27.6703 16.7733 27.8494 16.6302 27.9768C16.487 28.1041 16.2995 28.1692 16.1089 28.1578C15.9182 28.1464 15.74 28.0594 15.6135 27.9159L13.5146 25.5369L12.6859 29.0365C12.6418 29.2228 12.5258 29.384 12.3636 29.4846C12.2013 29.5853 12.006 29.6171 11.8206 29.5732C11.6352 29.5293 11.475 29.4133 11.3751 29.2505C11.2752 29.0878 11.2438 28.8917 11.2879 28.7055L12.1188 25.1967L9.17593 26.3817C8.99853 26.4532 8.80026 26.4511 8.62473 26.3758C8.44921 26.3005 8.31081 26.1582 8.23999 25.9802C8.16917 25.8022 8.17172 25.6031 8.24708 25.4267C8.32244 25.2503 8.46444 25.111 8.64185 25.0395L12.5342 23.4836L13.1236 20.9947L8.67801 22.8427C8.57849 22.8848 8.52314 22.7404 8.42024 22.7355C8.31733 22.7306 8.27403 22.8929 8.1685 22.8582C8.06297 22.8235 8.1091 22.6594 8.03052 22.5824C7.95194 22.5054 7.7899 22.5765 7.73717 22.4619C7.68444 22.3473 7.83994 22.3039 7.8445 22.2028C7.84907 22.1018 7.68679 22.0512 7.72278 21.9503L9.28792 17.385L6.85924 18.1156L5.52741 22.0942C5.49737 22.1842 5.44999 22.2673 5.38798 22.339C5.32596 22.4106 5.25053 22.4693 5.16598 22.5117C5.08144 22.5541 4.98944 22.5794 4.89523 22.5861C4.80103 22.5929 4.70647 22.5809 4.61695 22.5509C4.52743 22.5209 4.4447 22.4735 4.37348 22.4114C4.30227 22.3493 4.24398 22.2737 4.20192 22.1888C4.15986 22.104 4.13487 22.0117 4.12836 21.9171C4.12186 21.8226 4.13398 21.7276 4.16402 21.6376L5.17311 18.6232L1.74282 19.6589C1.55872 19.7139 1.36051 19.6933 1.19183 19.6016C1.02314 19.5099 0.897772 19.3546 0.843314 19.1699C0.788856 18.9851 0.809766 18.7861 0.901441 18.6165C0.993114 18.4469 1.14804 18.3207 1.33215 18.2656L4.76474 17.2306L2.27806 15.2728C2.20386 15.2143 2.14188 15.1417 2.09566 15.0592C2.04944 14.9766 2.01989 14.8857 2.00868 14.7916C1.99748 14.6975 2.00485 14.6021 2.03037 14.5108C2.05589 14.4195 2.09905 14.3341 2.15741 14.2594C2.21576 14.1848 2.28816 14.1224 2.37047 14.0758C2.45278 14.0292 2.54339 13.9994 2.63712 13.9879C2.73085 13.9765 2.82586 13.9837 2.91675 14.0091C3.00763 14.0346 3.0926 14.0777 3.1668 14.1362L6.44922 16.7298L8.88926 15.9922L5.08013 13.0574C4.99194 12.9903 5.09058 12.8702 5.04494 12.7768C4.99931 12.6833 4.83181 12.7263 4.81346 12.6198C4.79511 12.5134 4.95573 12.4687 4.98932 12.3575C5.02291 12.2463 4.87318 12.1428 4.94976 12.0442C5.02635 11.9457 5.16778 11.9719 5.28094 11.9233C5.34117 11.8938 5.31311 11.7874 5.38436 11.7727L10.1046 10.8602L8.2539 9.10892L4.16074 9.93894C3.97386 9.97723 3.77965 9.93944 3.62083 9.83389C3.462 9.72833 3.35156 9.56366 3.31382 9.37609C3.27607 9.18852 3.31411 8.99342 3.41956 8.83372C3.52501 8.67401 3.68923 8.56278 3.8761 8.52449L6.9756 7.8944L4.37229 5.42756C4.30234 5.36337 4.246 5.28566 4.20664 5.19908C4.16727 5.1125 4.14569 5.01881 4.14317 4.9236C4.14065 4.82839 4.15724 4.7336 4.19196 4.64488C4.22668 4.55617 4.27882 4.47534 4.34526 4.40722ZM23.4241 16.723L20.0617 14.1299L16.7253 15.1367L19.2558 17.5328L23.4241 16.723ZM14.9298 19.5915L17.7057 22.8116L18.2679 18.5876L15.7351 16.1909L14.9298 19.5915ZM16.3125 13.7527L19.6511 12.7464L21.043 8.71878L17.1183 10.3498L16.3125 13.7527ZM15.7226 10.0193L12.9439 6.80088L12.384 11.0255L14.9168 13.4222L15.7226 10.0193ZM13.5341 19.261L14.3394 15.8604L11.0031 16.8672L9.60894 20.8943L13.5341 19.261ZM7.22835 12.8878L10.5885 15.4803L13.9248 14.4735L11.3943 12.0774L7.22835 12.8878Z" fill="white"/>
</svg>
