<svg width="21" height="21" viewBox="0 0 21 21" fill="none" xmlns="http://www.w3.org/2000/svg">
<path d="M2.85582 3.72885C2.89984 3.68159 2.95284 3.64367 3.01168 3.61732C3.07052 3.59097 3.134 3.57674 3.19836 3.57547C3.26272 3.5742 3.32666 3.58591 3.38638 3.60991C3.4461 3.63391 3.5004 3.66972 3.54604 3.7152L5.31691 5.39243L5.62242 3.25357C5.63144 3.18962 5.65293 3.12805 5.68565 3.0724C5.71838 3.01675 5.7617 2.96811 5.81314 2.92925C5.86457 2.89039 5.92311 2.86208 5.98541 2.84595C6.0477 2.82981 6.11253 2.82616 6.17618 2.83521L6.21986 2.84555C6.33809 2.87318 6.44144 2.94471 6.50918 3.04579C6.57692 3.14686 6.60402 3.27 6.58505 3.39049L6.18926 6.20974L7.44862 7.40337L7.89001 4.14805C7.90708 4.07596 8.0041 4.09066 8.04115 4.03157C8.07821 3.97249 8.00064 3.88957 8.05493 3.84119C8.15599 3.7685 8.28144 3.73874 8.40404 3.75835C8.4212 3.76241 8.4235 3.72489 8.44296 3.72619L8.49132 3.73764C8.59115 3.76055 8.68102 3.81489 8.74784 3.89273L10.8798 6.36881L11.281 4.67465L9.39867 2.53574C9.33396 2.45715 9.29519 2.36026 9.28774 2.25846C9.28029 2.15666 9.30451 2.05499 9.35707 1.96749C9.40962 1.88 9.48791 1.811 9.58111 1.77003C9.67431 1.72906 9.77783 1.71814 9.87735 1.73879C9.97545 1.76271 10.0639 1.81599 10.1311 1.89157L11.5586 3.50237L12.1227 1.12021C12.1527 0.993438 12.2316 0.883727 12.3421 0.815215C12.4525 0.746702 12.5855 0.725 12.7117 0.754882C12.8379 0.784764 12.9469 0.863783 13.0149 0.974555C13.0829 1.08533 13.1043 1.21878 13.0743 1.34555L12.5102 3.72772L14.5134 2.92105C14.6055 2.88737 14.7054 2.88167 14.8006 2.90466C14.9021 2.92824 14.9934 2.98378 15.0611 3.06318C15.1289 3.14257 15.1695 3.24168 15.1772 3.34604C15.1848 3.4504 15.1591 3.55455 15.1037 3.64332C15.0483 3.73208 14.9661 3.80081 14.8692 3.83948L12.231 4.89962L11.8298 6.59378L14.8559 5.33584C14.9503 5.29382 15.0555 5.28335 15.1562 5.306L15.2045 5.31745C15.2233 5.32188 15.2089 5.35488 15.2265 5.36402C15.3448 5.40147 15.4436 5.48433 15.5013 5.59462C15.5297 5.66258 15.4318 5.70062 15.4283 5.77097C15.4248 5.84131 15.536 5.87261 15.5111 5.94285L14.4458 9.05041L16.1067 8.54832L16.9985 5.84655C17.0375 5.73163 17.1173 5.6351 17.2226 5.57545C17.3279 5.51579 17.4514 5.49721 17.5693 5.52325L17.613 5.5336C17.6739 5.55405 17.7303 5.58639 17.7787 5.62875C17.8271 5.67111 17.8668 5.72266 17.8953 5.78046C17.9239 5.83826 17.9408 5.90117 17.9451 5.96559C17.9494 6.03 17.941 6.09466 17.9203 6.15587L17.2342 8.2046L19.5732 7.51054C19.6971 7.47203 19.8311 7.48428 19.9458 7.54464C20.0605 7.60499 20.1467 7.70853 20.1855 7.83265C20.2051 7.89445 20.212 7.95961 20.2059 8.02422C20.1999 8.08883 20.1809 8.15158 20.1501 8.20871C20.1194 8.26585 20.0775 8.3162 20.027 8.35676C19.9764 8.39732 19.9183 8.42727 19.8561 8.4448L17.5207 9.1513L19.2122 10.482C19.2659 10.5206 19.3112 10.5697 19.3455 10.6264C19.3797 10.683 19.4022 10.7461 19.4114 10.8118C19.4207 10.8775 19.4166 10.9444 19.3994 11.0085C19.3822 11.0726 19.3523 11.1326 19.3114 11.1848C19.2705 11.237 19.2196 11.2804 19.1616 11.3123C19.1036 11.3442 19.0397 11.364 18.974 11.3705C18.9082 11.377 18.8418 11.37 18.7788 11.35C18.7159 11.33 18.6576 11.2974 18.6076 11.2541L16.3714 9.4965L14.7101 10.0002L17.3034 11.9963C17.3407 12.0266 17.2927 12.0831 17.3188 12.1191C17.3728 12.1832 17.4632 12.2046 17.4849 12.2941C17.5065 12.3837 17.388 12.397 17.3652 12.4727C17.3423 12.5483 17.4442 12.6188 17.3921 12.6859C17.34 12.753 17.2649 12.6806 17.203 12.7123C17.1411 12.744 17.1688 12.8565 17.0963 12.8708L13.8829 13.4935L15.1423 14.6871L17.9296 14.1174C17.999 14.104 18.0705 14.1057 18.1393 14.1224C18.2478 14.148 18.3443 14.2101 18.4128 14.2984C18.4812 14.3867 18.5175 14.4959 18.5156 14.6079C18.5137 14.7199 18.4737 14.828 18.4023 14.9141C18.3309 15.0003 18.2323 15.0595 18.1229 15.0818L16.0139 15.5142L17.7867 17.1836C17.8374 17.2268 17.8789 17.28 17.9085 17.3399C17.9381 17.3998 17.9552 17.4651 17.9588 17.532C17.9624 17.5988 17.9524 17.6656 17.9294 17.7285C17.9065 17.7914 17.871 17.8489 17.8252 17.8976C17.7794 17.9463 17.7242 17.9851 17.663 18.0117C17.6018 18.0383 17.5358 18.0521 17.4692 18.0523C17.4026 18.0525 17.3366 18.0391 17.2754 18.0128C17.2141 17.9866 17.1589 17.948 17.113 17.8996L15.3421 16.2224L15.0348 18.3691C15.0256 18.433 15.004 18.4945 14.9711 18.55C14.9383 18.6056 14.8949 18.6541 14.8434 18.6929C14.7919 18.7316 14.7334 18.7598 14.6711 18.7759C14.6088 18.792 14.544 18.7955 14.4804 18.7865C14.4168 18.7774 14.3556 18.7558 14.3003 18.7229C14.2451 18.6901 14.1968 18.6466 14.1583 18.595C14.1198 18.5434 14.0919 18.4847 14.076 18.4221C14.0601 18.3596 14.0567 18.2946 14.0659 18.2307L14.4698 15.4051L13.21 14.213L12.7686 17.4683C12.7597 17.5407 12.6565 17.5245 12.6175 17.5848C12.5785 17.6451 12.6599 17.7256 12.6037 17.7752C12.5475 17.8248 12.4664 17.7427 12.39 17.7593C12.3136 17.776 12.3014 17.9039 12.2203 17.8846C12.1392 17.8654 12.1634 17.7702 12.1046 17.7331C12.0459 17.696 11.9628 17.7757 11.9151 17.7197L9.78118 15.2448L9.37999 16.9389L11.2607 19.0775C11.3468 19.1751 11.3907 19.3032 11.3827 19.4335C11.3747 19.5639 11.3155 19.6858 11.2181 19.7725C11.1206 19.8591 10.993 19.9035 10.8632 19.8957C10.7334 19.8879 10.6122 19.8287 10.5261 19.7311L9.09734 18.1117L8.53323 20.4938C8.5032 20.6206 8.42429 20.7303 8.31383 20.7988C8.20337 20.8674 8.07043 20.8891 7.94424 20.8592C7.81805 20.8293 7.70896 20.7503 7.64096 20.6395C7.57296 20.5287 7.55162 20.3953 7.58164 20.2685L8.14724 17.8801L6.14402 18.6867C6.02326 18.7354 5.8883 18.7339 5.76883 18.6827C5.64935 18.6314 5.55514 18.5346 5.50694 18.4134C5.45873 18.2922 5.46046 18.1567 5.51176 18.0366C5.56306 17.9166 5.65972 17.8218 5.78047 17.7731L8.42997 16.714L8.83116 15.0198L5.80509 16.2778C5.73735 16.3064 5.69967 16.2081 5.62963 16.2048C5.55958 16.2014 5.53011 16.3119 5.45827 16.2883C5.38644 16.2647 5.41784 16.153 5.36435 16.1006C5.31086 16.0482 5.20056 16.0965 5.16467 16.0185C5.12878 15.9405 5.23462 15.911 5.23773 15.8422C5.24084 15.7734 5.13037 15.739 5.15487 15.6703L6.22026 12.5627L4.56707 13.06L3.6605 15.7683C3.64005 15.8295 3.6078 15.8861 3.56559 15.9349C3.52338 15.9836 3.47203 16.0236 3.41448 16.0524C3.35693 16.0813 3.29431 16.0985 3.23018 16.1031C3.16606 16.1077 3.10169 16.0995 3.04076 16.0791C2.97982 16.0587 2.92351 16.0264 2.87503 15.9842C2.82656 15.9419 2.78688 15.8904 2.75825 15.8327C2.72962 15.7749 2.71261 15.7121 2.70818 15.6477C2.70375 15.5833 2.712 15.5187 2.73245 15.4575L3.41933 13.4056L1.08436 14.1105C0.959037 14.148 0.824125 14.134 0.709301 14.0716C0.594475 14.0092 0.509141 13.9034 0.472071 13.7777C0.435001 13.6519 0.449234 13.5164 0.511637 13.401C0.574038 13.2856 0.679497 13.1996 0.804815 13.1622L3.14135 12.4576L1.44869 11.1249C1.39819 11.0852 1.356 11.0358 1.32454 10.9796C1.29307 10.9234 1.27296 10.8615 1.26533 10.7974C1.2577 10.7334 1.26272 10.6684 1.28009 10.6063C1.29746 10.5441 1.32684 10.486 1.36656 10.4352C1.40629 10.3844 1.45557 10.3419 1.5116 10.3102C1.56762 10.2785 1.6293 10.2582 1.6931 10.2504C1.7569 10.2426 1.82158 10.2475 1.88344 10.2648C1.94531 10.2821 2.00314 10.3115 2.05365 10.3513L4.28797 12.1167L5.94889 11.6146L3.35604 9.61698C3.29601 9.57131 3.36315 9.48956 3.33209 9.42593C3.30103 9.3623 3.18701 9.39158 3.17452 9.31911C3.16203 9.24663 3.27136 9.21625 3.29423 9.14057C3.31709 9.06488 3.21517 8.9944 3.2673 8.9273C3.31943 8.8602 3.41571 8.87804 3.49273 8.84497C3.53373 8.82488 3.51463 8.7525 3.56313 8.74247L6.77613 8.12133L5.5164 6.92926L2.73022 7.49424C2.60301 7.52031 2.47081 7.49459 2.3627 7.42274C2.25459 7.35089 2.17942 7.23879 2.15372 7.11112C2.12803 6.98344 2.15392 6.85064 2.2257 6.74193C2.29748 6.63322 2.40926 6.5575 2.53647 6.53144L4.64627 6.10255L2.87422 4.42338C2.8266 4.37969 2.78826 4.3268 2.76146 4.26786C2.73467 4.20893 2.71997 4.14515 2.71826 4.08034C2.71654 4.01553 2.72784 3.95101 2.75147 3.89062C2.7751 3.83023 2.81059 3.77522 2.85582 3.72885ZM15.8426 12.1121L13.5539 10.347L11.2828 11.0323L13.0053 12.6633L15.8426 12.1121ZM10.0606 14.0647L11.9501 16.2566L12.3329 13.3813L10.6088 11.7499L10.0606 14.0647ZM11.0018 10.0902L13.2744 9.40528L14.2218 6.6637L11.5503 7.77389L11.0018 10.0902ZM10.6003 7.54892L8.70888 5.35819L8.32773 8.23387L10.0518 9.86526L10.6003 7.54892ZM9.11062 13.8397L9.65877 11.5249L7.38774 12.2103L6.43877 14.9515L9.11062 13.8397ZM4.81832 9.50148L7.10553 11.2662L9.37656 10.5809L7.65406 8.94989L4.81832 9.50148Z" fill="white"/>
</svg>
