<svg width="376" height="216" viewBox="0 0 376 216" fill="none" xmlns="http://www.w3.org/2000/svg">
<path d="M129.723 111.254C129.66 111.045 129.556 110.851 129.417 110.683C129.278 110.515 129.106 110.377 128.913 110.277C128.72 110.177 128.508 110.117 128.291 110.1C128.074 110.084 127.855 110.111 127.649 110.181L119.767 112.624L122.038 105.676C122.106 105.469 122.133 105.25 122.116 105.032C122.1 104.814 122.042 104.602 121.944 104.407C121.846 104.212 121.71 104.039 121.545 103.896C121.38 103.754 121.189 103.646 120.982 103.579L120.834 103.545C120.434 103.452 120.014 103.515 119.657 103.72C119.3 103.926 119.034 104.259 118.911 104.653L115.898 113.8L110.292 115.54L113.819 105.001C113.875 104.757 113.558 104.656 113.534 104.422C113.51 104.187 113.869 104.051 113.777 103.823C113.579 103.452 113.243 103.174 112.841 103.05C112.783 103.037 112.832 102.919 112.771 102.894L112.607 102.857C112.27 102.777 111.916 102.808 111.597 102.944L101.426 107.271L102.741 101.53L111.65 97.8528C111.964 97.711 112.227 97.4749 112.402 97.1771C112.576 96.8793 112.655 96.5345 112.626 96.1904C112.597 95.8463 112.463 95.5199 112.241 95.2562C112.02 94.9926 111.722 94.8047 111.389 94.7186C111.056 94.6445 110.707 94.674 110.39 94.8029L103.65 97.5576L105.499 89.4849C105.598 89.0553 105.522 88.6044 105.29 88.2313C105.057 87.8583 104.686 87.5937 104.258 87.4957C103.83 87.3978 103.381 87.4745 103.009 87.709C102.637 87.9436 102.373 88.3167 102.275 88.7463L100.426 96.819L95.5521 91.3764C95.3229 91.1365 95.0282 90.9699 94.7049 90.8973C94.3616 90.8171 94.0016 90.8492 93.6773 90.9889C93.3531 91.1286 93.0815 91.3686 92.9023 91.6739C92.723 91.9792 92.6455 92.3337 92.6809 92.6859C92.7164 93.0381 92.863 93.3695 93.0994 93.6318L99.5211 100.793L98.2061 106.534L90.903 98.1929C90.6793 97.9243 90.3754 97.7351 90.0362 97.6534L89.8723 97.6159C89.8089 97.6013 89.8032 97.723 89.7362 97.7244C89.3209 97.6611 88.8973 97.765 88.5572 98.0134C88.3695 98.1772 88.6099 98.4391 88.5153 98.6578C88.4207 98.8765 88.0365 98.8052 88.0069 99.0556L86.5949 110.079L82.3048 106.072L83.6369 96.5399C83.6905 96.1329 83.5926 95.7207 83.3622 95.3822C83.1317 95.0437 82.7848 94.8027 82.388 94.7055L82.2399 94.6716C82.0244 94.6426 81.8052 94.6565 81.5948 94.7127C81.3845 94.7688 81.1872 94.866 81.0141 94.9988C80.8411 95.1315 80.6957 95.2971 80.5864 95.4862C80.4771 95.6753 80.4059 95.8841 80.377 96.1006L79.3968 103.344L73.3359 97.7411C73.0174 97.439 72.5925 97.2759 72.1541 97.2876C71.7157 97.2992 71.2993 97.4846 70.996 97.8032C70.8442 97.9616 70.7258 98.149 70.6477 98.3541C70.5696 98.5593 70.5334 98.7781 70.5413 98.9975C70.5492 99.2168 70.6011 99.4323 70.6938 99.6309C70.7865 99.8295 70.9181 100.007 71.0808 100.154L77.1121 105.789L69.9895 107.299C69.7689 107.335 69.5579 107.417 69.3693 107.537C69.1806 107.658 69.0182 107.816 68.8919 108.002C68.7656 108.187 68.6779 108.396 68.6343 108.616C68.5906 108.837 68.5918 109.063 68.6379 109.283C68.6839 109.503 68.7738 109.71 68.9021 109.894C69.0304 110.078 69.1945 110.233 69.3844 110.351C69.5743 110.469 69.7862 110.547 70.0072 110.581C70.2282 110.614 70.4537 110.602 70.6702 110.546L80.084 108.554L84.3728 112.566L73.519 114.748C73.3604 114.784 73.4215 115.027 73.2886 115.097C73.0289 115.211 72.7223 115.141 72.5228 115.38C72.3233 115.62 72.6629 115.837 72.6192 116.101C72.5755 116.365 72.1608 116.426 72.2187 116.708C72.2766 116.989 72.6128 116.882 72.7532 117.071C72.8936 117.259 72.6413 117.559 72.8402 117.711L81.6613 124.404L76.0551 126.144L68.4477 120.249C68.257 120.104 68.0374 120.002 67.8039 119.95C67.4362 119.866 67.0505 119.91 66.7108 120.076C66.371 120.241 66.0977 120.518 65.936 120.861C65.7744 121.204 65.7342 121.592 65.8221 121.96C65.91 122.328 66.1207 122.655 66.4193 122.886L72.1733 127.351L64.2979 129.768C64.0792 129.823 63.8739 129.922 63.6946 130.06C63.5152 130.198 63.3656 130.37 63.2548 130.568C63.144 130.765 63.0743 130.983 63.05 131.208C63.0258 131.433 63.0474 131.661 63.1137 131.877C63.1799 132.093 63.2894 132.294 63.4354 132.466C63.5813 132.638 63.7608 132.779 63.9628 132.879C64.1647 132.979 64.385 133.037 64.6101 133.049C64.8352 133.06 65.0605 133.026 65.2721 132.948L73.1536 130.505L70.8774 137.479C70.8097 137.687 70.7834 137.906 70.8 138.123C70.8166 138.341 70.8757 138.553 70.974 138.748C71.0723 138.942 71.2078 139.116 71.3729 139.257C71.5379 139.399 71.7292 139.507 71.9358 139.575C72.1425 139.642 72.3605 139.668 72.5773 139.651C72.7941 139.634 73.0055 139.574 73.1995 139.475C73.3934 139.376 73.5661 139.239 73.7077 139.073C73.8493 138.907 73.957 138.715 74.0247 138.507L77.0228 129.328L82.6278 127.594L79.1011 138.133C79.02 138.366 79.3575 138.471 79.3857 138.712C79.4139 138.954 79.0464 139.076 79.1429 139.311C79.2394 139.545 79.6081 139.417 79.8152 139.582C80.0223 139.747 79.868 140.153 80.1429 140.216C80.4178 140.279 80.4867 139.954 80.7205 139.929C80.9543 139.905 81.0875 140.27 81.3159 140.172L91.4914 135.851L90.1764 141.592L81.2719 145.271C80.8647 145.438 80.54 145.761 80.3695 146.169C80.1989 146.576 80.1964 147.035 80.3625 147.444C80.5287 147.852 80.8498 148.178 81.2552 148.348C81.6607 148.518 82.1173 148.52 82.5246 148.352L89.2812 145.574L87.4322 153.646C87.3338 154.076 87.4093 154.527 87.6421 154.9C87.8749 155.273 88.2459 155.537 88.6736 155.635C89.1012 155.733 89.5504 155.657 89.9224 155.422C90.2943 155.188 90.5586 154.814 90.657 154.385L92.5108 146.291L97.3844 151.734C97.6781 152.062 98.0899 152.259 98.5291 152.282C98.9683 152.305 99.399 152.152 99.7264 151.856C100.054 151.561 100.251 151.147 100.275 150.706C100.299 150.265 100.147 149.832 99.8534 149.504L93.3959 142.329L94.7109 136.588L102.014 144.929C102.177 145.117 102.438 144.875 102.656 144.97C102.873 145.065 102.797 145.444 103.051 145.48C103.304 145.515 103.376 145.129 103.616 145.05C103.857 144.971 104.12 145.283 104.345 145.1C104.571 144.917 104.294 144.669 104.387 144.455C104.48 144.242 104.867 144.303 104.895 144.058L106.307 133.034L110.581 137.015L109.284 146.589C109.255 146.805 109.268 147.025 109.323 147.236C109.378 147.447 109.474 147.645 109.606 147.819C109.737 147.993 109.902 148.139 110.09 148.248C110.277 148.358 110.485 148.43 110.7 148.459C110.916 148.488 111.135 148.474 111.345 148.418C111.555 148.362 111.753 148.265 111.926 148.133C112.099 148.001 112.245 147.835 112.354 147.647C112.464 147.458 112.536 147.249 112.565 147.033L113.548 139.779L119.58 145.409C119.905 145.71 120.335 145.869 120.777 145.851C121.219 145.834 121.636 145.64 121.936 145.314C122.237 144.988 122.396 144.555 122.379 144.112C122.362 143.668 122.171 143.25 121.846 142.949L115.809 137.318L122.938 135.804C123.15 135.758 123.352 135.671 123.532 135.548C123.711 135.424 123.865 135.267 123.984 135.084C124.103 134.901 124.184 134.696 124.225 134.481C124.265 134.267 124.263 134.047 124.218 133.833C124.173 133.619 124.087 133.417 123.965 133.237C123.842 133.057 123.685 132.903 123.503 132.784C123.321 132.665 123.118 132.583 122.904 132.543C122.69 132.503 122.471 132.506 122.258 132.551L112.838 134.569L108.548 130.563L119.403 128.376C119.654 128.327 119.572 127.979 119.762 127.832C119.951 127.685 120.253 127.945 120.4 127.743C120.546 127.542 120.259 127.286 120.303 127.022C120.347 126.759 120.762 126.697 120.704 126.416C120.646 126.134 120.327 126.044 120.143 125.829C120.048 125.706 120.214 125.515 120.082 125.412L111.26 118.724L116.865 116.99L124.476 122.869C124.823 123.139 125.262 123.258 125.698 123.202C126.134 123.145 126.529 122.917 126.798 122.568C127.067 122.219 127.187 121.778 127.131 121.34C127.076 120.903 126.85 120.506 126.503 120.237L120.741 115.782L128.629 113.334C128.839 113.273 129.034 113.17 129.204 113.031C129.373 112.892 129.513 112.721 129.615 112.527C129.717 112.332 129.78 112.12 129.798 111.901C129.817 111.683 129.791 111.463 129.723 111.254ZM77.7788 117.283L87.3634 115.347L93.2311 120.822L85.5655 123.197L77.7788 117.283ZM92.4074 131.852L83.3965 135.679L86.5332 126.381L94.2041 124.007L92.4074 131.852ZM95.4923 118.383L89.6193 112.907L90.8423 103.171L97.2902 110.533L95.4923 118.383ZM100.51 111.271L109.525 107.45L106.383 116.746L98.7117 119.12L100.51 111.271ZM95.6268 132.589L97.4235 124.745L103.291 130.219L102.074 139.957L95.6268 132.589ZM115.138 125.84L105.559 127.776L99.6912 122.302L107.357 119.927L115.138 125.84Z" fill="url(#paint0_linear_7_156)"/>
<path d="M195.932 118.079C195.861 118.018 195.778 117.972 195.689 117.943C195.6 117.915 195.507 117.904 195.414 117.913C195.321 117.921 195.231 117.949 195.149 117.993C195.067 118.037 194.994 118.097 194.936 118.17L192.656 120.869L191.872 117.839C191.849 117.748 191.808 117.663 191.752 117.588C191.696 117.513 191.626 117.45 191.546 117.402C191.465 117.355 191.376 117.323 191.284 117.31C191.192 117.297 191.098 117.302 191.008 117.325L190.947 117.347C190.781 117.406 190.644 117.526 190.562 117.682C190.481 117.838 190.462 118.02 190.508 118.191L191.531 122.186L189.91 124.107L188.751 119.491C188.715 119.39 188.578 119.426 188.515 119.347C188.452 119.268 188.55 119.136 188.465 119.075C188.307 118.987 188.122 118.964 187.949 119.012C187.925 119.021 187.915 118.967 187.887 118.972L187.82 118.996C187.68 119.045 187.559 119.138 187.475 119.261L184.804 123.168L183.954 120.794L186.32 117.412C186.401 117.288 186.441 117.143 186.435 116.995C186.43 116.847 186.379 116.705 186.289 116.587C186.199 116.47 186.075 116.383 185.935 116.339C185.794 116.295 185.643 116.296 185.503 116.341C185.366 116.392 185.247 116.482 185.162 116.602L183.366 119.15L182.171 115.811C182.108 115.634 181.976 115.488 181.806 115.408C181.636 115.327 181.441 115.317 181.265 115.38C181.088 115.443 180.943 115.575 180.863 115.745C180.783 115.915 180.774 116.111 180.837 116.289L182.032 119.628L179.019 118.788C178.881 118.754 178.736 118.762 178.602 118.811C178.46 118.861 178.338 118.955 178.253 119.081C178.168 119.206 178.125 119.355 178.131 119.506C178.137 119.658 178.191 119.804 178.285 119.923C178.379 120.042 178.508 120.127 178.654 120.167L182.622 121.27L183.472 123.645L178.913 122.32C178.771 122.274 178.617 122.276 178.476 122.325L178.408 122.349C178.382 122.358 178.408 122.404 178.384 122.42C178.22 122.493 178.091 122.628 178.026 122.796C177.996 122.898 178.143 122.937 178.159 123.038C178.175 123.139 178.02 123.202 178.067 123.299L180.1 127.602L177.628 127.145L175.911 123.399C175.836 123.24 175.706 123.114 175.544 123.045C175.383 122.976 175.202 122.969 175.037 123.025L174.976 123.047C174.891 123.086 174.815 123.142 174.752 123.211C174.689 123.279 174.641 123.36 174.609 123.448C174.577 123.536 174.563 123.629 174.567 123.722C174.571 123.816 174.594 123.908 174.633 123.992L175.95 126.832L172.471 126.208C172.286 126.173 172.096 126.212 171.94 126.317C171.785 126.422 171.677 126.585 171.641 126.77C171.623 126.862 171.623 126.957 171.643 127.049C171.662 127.141 171.699 127.229 171.753 127.306C171.806 127.383 171.874 127.449 171.954 127.499C172.033 127.55 172.121 127.583 172.214 127.599L175.69 128.241L173.468 130.428C173.397 130.492 173.34 130.57 173.299 130.657C173.259 130.744 173.237 130.839 173.234 130.935C173.231 131.031 173.248 131.127 173.283 131.216C173.318 131.306 173.371 131.387 173.438 131.456C173.505 131.524 173.586 131.579 173.674 131.615C173.763 131.652 173.858 131.67 173.954 131.669C174.049 131.668 174.144 131.647 174.231 131.608C174.319 131.569 174.397 131.513 174.462 131.443L177.4 128.553L179.872 129.011L176.459 132.302C176.411 132.351 176.489 132.425 176.457 132.481C176.389 132.582 176.263 132.627 176.246 132.76C176.229 132.892 176.402 132.892 176.447 132.997C176.492 133.103 176.357 133.221 176.442 133.309C176.528 133.397 176.625 133.281 176.719 133.316C176.813 133.352 176.791 133.519 176.898 133.527L181.624 133.908L180.003 135.829L175.898 135.456C175.796 135.448 175.694 135.462 175.597 135.497C175.445 135.551 175.316 135.656 175.232 135.794C175.148 135.932 175.113 136.095 175.134 136.256C175.154 136.417 175.229 136.566 175.346 136.679C175.463 136.792 175.614 136.861 175.775 136.876L178.881 137.159L176.597 139.847C176.531 139.918 176.479 140.001 176.446 140.092C176.413 140.183 176.399 140.28 176.405 140.377C176.41 140.473 176.435 140.568 176.479 140.655C176.522 140.742 176.582 140.819 176.656 140.882C176.73 140.944 176.815 140.991 176.908 141.02C177 141.048 177.097 141.058 177.193 141.047C177.289 141.037 177.382 141.007 177.466 140.959C177.55 140.912 177.623 140.847 177.682 140.77L179.962 138.071L180.749 141.112C180.772 141.203 180.813 141.288 180.87 141.363C180.926 141.437 180.996 141.5 181.076 141.548C181.157 141.595 181.246 141.626 181.338 141.64C181.43 141.653 181.524 141.647 181.614 141.624C181.704 141.601 181.789 141.56 181.863 141.504C181.937 141.448 182 141.377 182.047 141.297C182.094 141.216 182.125 141.127 182.138 141.035C182.151 140.942 182.145 140.848 182.122 140.757L181.086 136.754L182.709 134.836L183.867 139.451C183.891 139.554 184.037 139.514 184.103 139.595C184.169 139.675 184.065 139.804 184.154 139.867C184.242 139.929 184.346 139.798 184.459 139.81C184.571 139.821 184.609 140.003 184.723 139.963C184.837 139.922 184.787 139.789 184.865 139.726C184.944 139.663 185.076 139.765 185.136 139.676L187.811 135.77L188.66 138.145L186.296 141.526C186.188 141.68 186.145 141.872 186.178 142.058C186.21 142.245 186.315 142.411 186.469 142.52C186.623 142.629 186.814 142.672 187 142.64C187.185 142.608 187.351 142.503 187.459 142.349L189.256 139.788L190.45 143.127C190.514 143.305 190.645 143.45 190.815 143.531C190.985 143.612 191.18 143.622 191.357 143.558C191.534 143.495 191.678 143.364 191.758 143.193C191.839 143.023 191.848 142.828 191.784 142.65L190.586 139.302L193.6 140.142C193.782 140.192 193.976 140.169 194.139 140.076C194.303 139.983 194.423 139.828 194.473 139.646C194.523 139.464 194.499 139.269 194.406 139.104C194.313 138.94 194.158 138.819 193.977 138.768L189.992 137.669L189.142 135.294L193.701 136.619C193.803 136.649 193.842 136.502 193.942 136.486C194.042 136.47 194.102 136.624 194.202 136.579C194.302 136.533 194.239 136.377 194.307 136.293C194.376 136.209 194.542 136.261 194.581 136.143C194.621 136.025 194.463 135.999 194.448 135.901C194.432 135.802 194.586 135.735 194.54 135.64L192.507 131.337L194.967 131.788L196.707 135.541C196.746 135.626 196.802 135.702 196.87 135.766C196.939 135.829 197.019 135.878 197.107 135.911C197.194 135.943 197.287 135.958 197.38 135.954C197.473 135.95 197.564 135.928 197.649 135.889C197.733 135.85 197.809 135.794 197.872 135.726C197.935 135.657 197.984 135.577 198.016 135.489C198.048 135.401 198.062 135.308 198.058 135.215C198.054 135.121 198.032 135.029 197.993 134.945L196.675 132.101L200.149 132.741C200.336 132.775 200.528 132.733 200.683 132.624C200.838 132.516 200.944 132.35 200.977 132.163C201.011 131.976 200.968 131.783 200.86 131.627C200.752 131.471 200.586 131.364 200.4 131.33L196.922 130.691L199.145 128.501C199.212 128.435 199.264 128.358 199.301 128.272C199.337 128.186 199.356 128.093 199.357 128C199.357 127.906 199.34 127.814 199.305 127.727C199.27 127.64 199.218 127.561 199.153 127.495C199.087 127.428 199.01 127.375 198.924 127.338C198.838 127.301 198.746 127.282 198.653 127.281C198.56 127.28 198.468 127.297 198.381 127.332C198.295 127.367 198.216 127.419 198.15 127.484L195.217 130.385L192.745 129.929L196.157 126.636C196.236 126.561 196.126 126.454 196.161 126.357C196.195 126.261 196.364 126.285 196.371 126.178C196.377 126.072 196.215 126.046 196.17 125.94C196.125 125.835 196.26 125.717 196.174 125.629C196.088 125.541 195.953 125.582 195.836 125.547C195.774 125.524 195.79 125.417 195.719 125.41L190.993 125.032L192.615 123.114L196.717 123.48C196.905 123.497 197.091 123.438 197.235 123.318C197.379 123.197 197.469 123.023 197.486 122.835C197.502 122.647 197.444 122.46 197.323 122.315C197.202 122.17 197.029 122.079 196.842 122.062L193.735 121.784L196.017 119.082C196.078 119.011 196.125 118.929 196.154 118.84C196.183 118.75 196.194 118.656 196.186 118.563C196.178 118.469 196.152 118.378 196.108 118.295C196.064 118.212 196.004 118.138 195.932 118.079ZM178.581 132.234L181.593 129.325L184.972 129.947L182.754 132.572L178.581 132.234ZM187.219 134.116L184.851 137.576L183.838 133.497L186.058 130.872L187.219 134.116ZM185.226 128.545L181.844 127.924L180.039 124.129L184.064 125.299L185.226 128.545ZM185.395 124.822L187.767 121.365L188.777 125.443L186.557 128.069L185.395 124.822ZM188.551 133.64L187.39 130.395L190.769 131.017L192.576 134.811L188.551 133.64ZM194.033 126.705L191.024 129.613L187.644 128.991L189.862 126.366L194.033 126.705Z" fill="url(#paint1_linear_7_156)"/>
<path d="M374.374 63.7816C374.355 63.7135 374.322 63.6501 374.277 63.5951C374.233 63.54 374.178 63.4945 374.116 63.4612C374.054 63.4279 373.985 63.4075 373.915 63.4013C373.845 63.395 373.774 63.4029 373.707 63.4246L371.142 64.1808L371.909 61.9399C371.932 61.873 371.942 61.8022 371.937 61.7315C371.933 61.6609 371.915 61.5918 371.884 61.5283C371.853 61.4647 371.81 61.4079 371.757 61.3612C371.705 61.3144 371.643 61.2785 371.577 61.2557L371.529 61.244C371.4 61.2121 371.263 61.2305 371.146 61.2955C371.03 61.3605 370.942 61.4673 370.901 61.5944L369.884 64.5446L368.059 65.0832L369.249 61.6844C369.268 61.6055 369.166 61.5716 369.16 61.4954C369.153 61.4193 369.27 61.3769 369.241 61.3026C369.178 61.1813 369.071 61.0898 368.941 61.0479C368.923 61.0434 368.939 61.0056 368.919 60.9971L368.866 60.9842C368.757 60.9569 368.643 60.9652 368.539 61.008L365.224 62.3645L365.676 60.5103L368.579 59.3588C368.681 59.3142 368.767 59.2389 368.825 59.1432C368.883 59.0475 368.91 58.9362 368.902 58.8246C368.895 58.7129 368.852 58.6066 368.782 58.5202C368.711 58.4338 368.616 58.3716 368.508 58.3422C368.4 58.3167 368.287 58.3246 368.184 58.365L365.988 59.2273L366.623 56.6201C366.657 56.4814 366.635 56.335 366.561 56.2131C366.487 56.0912 366.368 56.0038 366.23 55.9701C366.092 55.9365 365.946 55.9593 365.825 56.0336C365.703 56.108 365.616 56.2277 365.582 56.3664L364.947 58.9736L363.392 57.1884C363.319 57.1097 363.224 57.0544 363.12 57.0294C363.009 57.0019 362.892 57.0107 362.786 57.0545C362.681 57.0983 362.592 57.1748 362.532 57.2729C362.473 57.371 362.446 57.4856 362.456 57.5998C362.466 57.7141 362.512 57.8221 362.587 57.9082L364.636 60.257L364.184 62.1112L361.855 59.3761C361.784 59.288 361.686 59.2254 361.577 59.1974L361.524 59.1845C361.503 59.1795 361.501 59.2189 361.479 59.2191C361.345 59.1967 361.207 59.2284 361.096 59.3074C361.035 59.3596 361.111 59.4456 361.08 59.516C361.048 59.5864 360.924 59.5616 360.913 59.6426L360.406 63.2077L359.034 61.8904L359.509 58.808C359.528 58.6764 359.498 58.5424 359.425 58.4317C359.352 58.321 359.24 58.2414 359.112 58.2081L359.064 58.1964C358.995 58.186 358.924 58.1896 358.855 58.2068C358.787 58.2241 358.722 58.2547 358.666 58.2969C358.609 58.3392 358.561 58.3922 358.525 58.4529C358.489 58.5137 358.465 58.581 358.454 58.6511L358.104 60.9934L356.166 59.151C356.064 59.0517 355.927 58.997 355.785 58.9988C355.643 59.0006 355.507 59.0588 355.407 59.1607C355.358 59.2113 355.318 59.2715 355.292 59.3376C355.266 59.4037 355.253 59.4745 355.255 59.5456C355.256 59.6167 355.272 59.6867 355.301 59.7515C355.331 59.8162 355.372 59.8744 355.424 59.9225L357.353 61.7752L355.039 62.2326C354.967 62.2435 354.899 62.2688 354.837 62.3071C354.775 62.3454 354.722 62.3959 354.68 62.4554C354.638 62.5149 354.609 62.5823 354.594 62.6535C354.579 62.7246 354.578 62.7981 354.592 62.8694C354.606 62.9408 354.634 63.0085 354.675 63.0686C354.716 63.1286 354.768 63.1797 354.829 63.2188C354.89 63.2579 354.958 63.2841 355.03 63.2959C355.101 63.3078 355.174 63.3049 355.245 63.2876L358.304 62.6846L359.675 64.0036L356.149 64.6617C356.097 64.6728 356.116 64.7518 356.073 64.774C355.988 64.8097 355.889 64.7855 355.823 64.8622C355.758 64.9389 355.867 65.0109 355.851 65.0962C355.836 65.1815 355.701 65.1995 355.719 65.291C355.736 65.3825 355.846 65.3492 355.891 65.4109C355.935 65.4727 355.852 65.5687 355.916 65.6188L358.744 67.8268L356.92 68.3655L354.481 66.4213C354.42 66.3736 354.35 66.3397 354.274 66.3218C354.155 66.2927 354.03 66.3053 353.919 66.3574C353.809 66.4096 353.719 66.4982 353.665 66.6085C353.611 66.7188 353.596 66.8443 353.623 66.964C353.65 67.0837 353.717 67.1906 353.812 67.2668L355.657 68.7391L353.094 69.4867C353.023 69.5037 352.956 69.535 352.897 69.5787C352.839 69.6225 352.79 69.6778 352.753 69.7412C352.716 69.8047 352.692 69.875 352.684 69.9478C352.675 70.0206 352.681 70.0945 352.701 70.1648C352.722 70.2352 352.756 70.3006 352.803 70.3571C352.849 70.4135 352.907 70.4598 352.972 70.4932C353.037 70.5266 353.108 70.5463 353.181 70.5511C353.254 70.556 353.327 70.5458 353.396 70.5214L355.96 69.7652L355.191 72.0146C355.169 72.0816 355.159 72.1524 355.163 72.223C355.168 72.2936 355.186 72.3626 355.217 72.4261C355.248 72.4896 355.291 72.5463 355.344 72.593C355.397 72.6396 355.458 72.6754 355.525 72.6982C355.592 72.721 355.662 72.7304 355.732 72.7258C355.803 72.7213 355.872 72.7028 355.935 72.6716C355.998 72.6404 356.055 72.5969 356.101 72.5438C356.148 72.4906 356.184 72.4288 356.206 72.3618L357.219 69.4014L359.043 68.8645L357.853 72.2633C357.826 72.3384 357.934 72.374 357.942 72.4523C357.951 72.5305 357.831 72.5686 357.861 72.645C357.891 72.7215 358.011 72.6816 358.078 72.736C358.144 72.7903 358.092 72.9212 358.181 72.9429C358.27 72.9645 358.294 72.8594 358.369 72.8525C358.445 72.8455 358.487 72.9647 358.561 72.9337L361.877 71.5793L361.426 73.4335L358.524 74.5855C358.392 74.638 358.285 74.7412 358.228 74.8725C358.171 75.0037 358.168 75.1523 358.22 75.2854C358.272 75.4185 358.374 75.5254 358.505 75.5824C358.636 75.6395 358.784 75.642 358.916 75.5895L361.118 74.7195L360.483 77.3267C360.449 77.4654 360.471 77.6118 360.545 77.7337C360.619 77.8556 360.738 77.943 360.876 77.9767C361.014 78.0103 361.16 77.9875 361.281 77.9132C361.403 77.8388 361.49 77.7191 361.524 77.5804L362.161 74.9664L363.715 76.7515C363.809 76.8592 363.942 76.9249 364.084 76.9344C364.226 76.9438 364.366 76.8961 364.474 76.8018C364.581 76.7075 364.647 76.5743 364.657 76.4315C364.666 76.2887 364.619 76.1479 364.525 76.0403L362.465 73.6868L362.917 71.8327L365.246 74.5678C365.298 74.6295 365.384 74.5522 365.454 74.5838C365.524 74.6155 365.497 74.7381 365.579 74.7508C365.661 74.7634 365.686 74.6387 365.765 74.6142C365.843 74.5896 365.926 74.6918 366 74.6335C366.074 74.5752 365.986 74.4936 366.017 74.4249C366.048 74.3562 366.173 74.3776 366.183 74.2983L366.69 70.7331L368.057 72.0419L367.594 75.138C367.583 75.208 367.587 75.2793 367.604 75.348C367.621 75.4166 367.651 75.4812 367.693 75.538C367.734 75.5949 367.787 75.6429 367.847 75.6792C367.908 75.7156 367.975 75.7397 368.044 75.7502C368.114 75.7606 368.185 75.7571 368.253 75.7399C368.322 75.7228 368.386 75.6923 368.443 75.6501C368.5 75.608 368.548 75.5551 368.584 75.4944C368.62 75.4338 368.644 75.3665 368.655 75.2966L369.006 72.9508L370.935 74.8018C371.039 74.9008 371.177 74.9543 371.321 74.9505C371.464 74.9467 371.6 74.886 371.699 74.7816C371.797 74.6773 371.851 74.5379 371.848 74.3941C371.844 74.2503 371.784 74.1139 371.68 74.0149L369.749 72.1635L372.066 71.7048C372.135 71.6911 372.201 71.6639 372.259 71.6247C372.318 71.5855 372.369 71.535 372.408 71.4763C372.447 71.4175 372.475 71.3516 372.489 71.2823C372.503 71.2129 372.503 71.1415 372.489 71.0721C372.476 71.0027 372.449 70.9367 372.41 70.8779C372.371 70.819 372.321 70.7685 372.262 70.7291C372.204 70.6897 372.138 70.6623 372.069 70.6484C372 70.6345 371.929 70.6344 371.86 70.6481L368.799 71.2597L367.427 69.9424L370.954 69.2826C371.035 69.2679 371.01 69.1546 371.072 69.1079C371.134 69.0613 371.231 69.1466 371.279 69.0821C371.328 69.0175 371.236 68.9334 371.251 68.8481C371.267 68.7628 371.401 68.7447 371.384 68.6532C371.366 68.5618 371.264 68.5312 371.205 68.4606C371.175 68.4206 371.229 68.3594 371.187 68.3255L368.359 66.1191L370.182 65.5822L372.622 67.5212C372.733 67.61 372.875 67.6507 373.016 67.6344C373.158 67.618 373.287 67.546 373.376 67.4341C373.464 67.3222 373.505 67.1796 373.489 67.0377C373.473 66.8958 373.402 66.7662 373.291 66.6774L371.444 65.2081L374.01 64.4507C374.079 64.4317 374.142 64.3991 374.198 64.3549C374.253 64.3107 374.299 64.2557 374.333 64.1933C374.367 64.1309 374.388 64.0622 374.395 63.9915C374.402 63.9208 374.395 63.8494 374.374 63.7816ZM357.518 65.5021L360.632 64.918L362.508 66.718L360.014 67.4531L357.518 65.5021ZM362.192 70.2878L359.255 71.4875L360.313 68.4891L362.809 67.7543L362.192 70.2878ZM363.252 65.9379L361.374 64.1375L361.813 60.9885L363.869 63.4028L363.252 65.9379ZM364.909 63.6561L367.847 62.4585L366.787 65.4565L364.292 66.1912L364.909 63.6561ZM363.232 70.5411L363.849 68.0077L365.726 69.8077L365.287 72.9571L363.232 70.5411ZM369.583 68.4417L366.471 69.0263L364.595 67.2263L367.089 66.4911L369.583 68.4417Z" fill="url(#paint2_linear_7_156)"/>
<path d="M35.0815 10.1446C35.0621 10.0765 35.0292 10.0131 34.9849 9.95809C34.9405 9.90307 34.8856 9.85756 34.8234 9.82427C34.7612 9.79098 34.6929 9.77059 34.6226 9.76429C34.5524 9.75799 34.4815 9.76593 34.4143 9.78762L31.8499 10.5438L32.6165 8.30298C32.6395 8.23604 32.6492 8.16522 32.6449 8.09458C32.6407 8.02394 32.6226 7.95487 32.5917 7.89131C32.5608 7.82776 32.5177 7.77097 32.4649 7.72419C32.4121 7.67741 32.3507 7.64157 32.284 7.61872L32.2362 7.60707C32.107 7.57519 31.9704 7.59358 31.854 7.65856C31.7375 7.72354 31.6497 7.8303 31.6082 7.95741L30.591 10.9076L28.7669 11.4462L29.9567 8.04746C29.9759 7.96856 29.8739 7.93461 29.8671 7.85846C29.8603 7.78231 29.9773 7.73996 29.9484 7.66568C29.8859 7.54438 29.7782 7.45285 29.6487 7.41096C29.63 7.40639 29.6464 7.3686 29.6268 7.36018L29.5738 7.34728C29.4649 7.31996 29.3501 7.32827 29.2461 7.37101L25.9313 8.72754L26.3831 6.87336L29.2862 5.7218C29.3885 5.67727 29.4746 5.60195 29.5326 5.50625C29.5905 5.41056 29.6175 5.29921 29.6097 5.18759C29.602 5.07598 29.5599 4.96962 29.4893 4.8832C29.4186 4.79679 29.323 4.73459 29.2155 4.70521C29.1078 4.67972 28.9949 4.68769 28.8916 4.72805L26.6956 5.59036L27.3308 2.98318C27.3646 2.84443 27.3422 2.698 27.2684 2.5761C27.1947 2.4542 27.0757 2.36681 26.9376 2.33317C26.7994 2.29952 26.6536 2.32237 26.532 2.39668C26.4105 2.471 26.3232 2.5907 26.2894 2.72945L25.6542 5.33662L24.0996 3.55147C24.0264 3.47271 23.9316 3.41741 23.8272 3.39245C23.7164 3.36494 23.5996 3.37373 23.4939 3.41754C23.3882 3.46135 23.2992 3.53788 23.2397 3.63598C23.1803 3.73408 23.1536 3.84862 23.1635 3.96288C23.1734 4.07715 23.2194 4.18517 23.2948 4.2712L25.3433 6.62004L24.8916 8.47422L22.5628 5.73911C22.4915 5.65107 22.3939 5.58843 22.2844 5.56044L22.2314 5.54754C22.211 5.54255 22.2086 5.58195 22.1869 5.5821C22.0526 5.55974 21.9149 5.59148 21.8036 5.67044C21.742 5.72267 21.8188 5.8086 21.7871 5.87902C21.7555 5.94945 21.6313 5.92465 21.6206 6.00563L21.1138 9.57077L19.7418 8.25348L20.2161 5.17101C20.2353 5.03939 20.2054 4.9054 20.1323 4.7947C20.0591 4.68401 19.9478 4.60439 19.8196 4.5711L19.7718 4.55945C19.7021 4.54909 19.6311 4.55263 19.5627 4.56987C19.4943 4.58712 19.4299 4.61774 19.3732 4.65997C19.3166 4.7022 19.2687 4.75521 19.2325 4.81598C19.1962 4.87675 19.1722 4.94408 19.1619 5.01411L18.8119 7.35643L16.8733 5.51407C16.7715 5.41476 16.6346 5.36003 16.4925 5.36184C16.3504 5.36365 16.2146 5.42185 16.1149 5.52373C16.0651 5.57435 16.0259 5.63452 15.9996 5.70065C15.9734 5.76678 15.9607 5.8375 15.9623 5.90861C15.9639 5.97971 15.9797 6.04974 16.0088 6.11451C16.038 6.17927 16.0798 6.23745 16.1319 6.28557L18.0607 8.13827L15.7463 8.5956C15.6747 8.60652 15.606 8.63189 15.5443 8.67019C15.4827 8.70848 15.4293 8.75891 15.3876 8.81844C15.3458 8.87796 15.3165 8.94533 15.3014 9.01649C15.2862 9.08765 15.2856 9.16112 15.2995 9.23247C15.3135 9.30382 15.3417 9.37156 15.3824 9.4316C15.4232 9.49165 15.4756 9.54276 15.5366 9.58184C15.5976 9.62092 15.6659 9.64716 15.7374 9.65898C15.8088 9.6708 15.8819 9.66796 15.9523 9.65062L19.0112 9.0476L20.3827 10.3666L16.8565 11.0247C16.8049 11.0358 16.8237 11.1149 16.7803 11.137C16.6956 11.1727 16.5966 11.1486 16.5309 11.2252C16.4652 11.3019 16.5743 11.3739 16.5589 11.4592C16.5436 11.5445 16.4089 11.5626 16.4264 11.6541C16.4439 11.7455 16.5533 11.7122 16.598 11.774C16.6426 11.8357 16.5595 11.9318 16.6233 11.9818L19.4513 14.1899L17.6271 14.7285L15.1888 12.7844C15.1277 12.7367 15.057 12.7027 14.9816 12.6848C14.8628 12.6557 14.7377 12.6683 14.6269 12.7205C14.5161 12.7726 14.4262 12.8612 14.3723 12.9715C14.3184 13.0819 14.3037 13.2073 14.3305 13.327C14.3573 13.4468 14.4241 13.5536 14.5198 13.6298L16.3641 15.1022L13.8017 15.8498C13.7306 15.8667 13.6637 15.898 13.6049 15.9418C13.5462 15.9855 13.497 16.0408 13.4602 16.1043C13.4234 16.1677 13.3999 16.238 13.391 16.3108C13.3821 16.3837 13.3881 16.4575 13.4086 16.5279C13.4291 16.5982 13.4637 16.6636 13.5102 16.7201C13.5567 16.7765 13.6142 16.8229 13.6792 16.8562C13.7442 16.8896 13.8153 16.9093 13.8882 16.9141C13.9611 16.919 14.0342 16.9089 14.1031 16.8844L16.6675 16.1282L15.8989 18.3776C15.876 18.4446 15.8665 18.5154 15.8709 18.586C15.8753 18.6566 15.8935 18.7256 15.9245 18.7891C15.9555 18.8526 15.9986 18.9093 16.0514 18.956C16.1043 19.0027 16.1658 19.0385 16.2324 19.0613C16.2991 19.0841 16.3696 19.0934 16.4399 19.0889C16.5102 19.0843 16.579 19.0659 16.6422 19.0346C16.7055 19.0034 16.7621 18.96 16.8087 18.9068C16.8553 18.8537 16.8911 18.7919 16.9139 18.7249L17.9264 15.7644L19.7501 15.2275L18.5603 18.6263C18.533 18.7014 18.6419 18.737 18.6499 18.8153C18.658 18.8936 18.5384 18.9317 18.5686 19.0081C18.5988 19.0845 18.7188 19.0447 18.7852 19.099C18.8515 19.1533 18.7997 19.2843 18.8885 19.3059C18.9773 19.3275 19.0011 19.2225 19.0769 19.2155C19.1528 19.2086 19.1943 19.3277 19.2687 19.2968L22.5848 17.9424L22.1331 19.7966L19.2317 20.9485C19.099 21.001 18.9923 21.1042 18.9353 21.2355C18.8782 21.3668 18.8753 21.5153 18.9273 21.6484C18.9793 21.7816 19.0819 21.8884 19.2125 21.9455C19.3431 22.0025 19.491 22.0051 19.6237 21.9526L21.8252 21.0825L21.19 23.6897C21.1562 23.8284 21.1787 23.9749 21.2524 24.0968C21.3262 24.2187 21.4452 24.3061 21.5833 24.3397C21.7214 24.3734 21.8673 24.3505 21.9888 24.2762C22.1104 24.2019 22.1977 24.0822 22.2315 23.9434L22.8683 21.3294L24.4229 23.1145C24.5166 23.2222 24.6492 23.288 24.7914 23.2974C24.9336 23.3068 25.0738 23.2591 25.1812 23.1648C25.2886 23.0705 25.3544 22.9373 25.3641 22.7945C25.3738 22.6517 25.3266 22.511 25.2329 22.4033L23.1728 20.0499L23.6246 18.1957L25.9534 20.9308C26.0052 20.9925 26.091 20.9153 26.1611 20.9469C26.2311 20.9785 26.2049 21.1011 26.2868 21.1138C26.3687 21.1265 26.3937 21.0017 26.472 20.9772C26.5503 20.9527 26.6339 21.0548 26.7078 20.9965C26.7817 20.9382 26.6931 20.8566 26.7243 20.7879C26.7555 20.7192 26.8805 20.7406 26.8908 20.6613L27.3976 17.0962L28.7645 18.4049L28.3013 21.501C28.2908 21.571 28.2941 21.6424 28.3111 21.711C28.328 21.7796 28.3583 21.8442 28.4001 21.9011C28.4419 21.9579 28.4945 22.0059 28.5548 22.0423C28.6152 22.0787 28.6821 22.1028 28.7518 22.1132C28.8214 22.1236 28.8925 22.1201 28.9609 22.103C29.0293 22.0858 29.0937 22.0553 29.1504 22.0132C29.2071 21.9711 29.255 21.9182 29.2913 21.8575C29.3277 21.7968 29.3519 21.7296 29.3624 21.6596L29.7132 19.3139L31.6425 21.1648C31.7462 21.2638 31.8849 21.3173 32.0281 21.3135C32.1713 21.3098 32.3073 21.249 32.4061 21.1447C32.5049 21.0403 32.5585 20.9009 32.555 20.7571C32.5516 20.6133 32.4913 20.4769 32.3876 20.3779L30.4567 18.5265L32.7732 18.0679C32.8423 18.0542 32.9081 18.0269 32.9668 17.9877C33.0255 17.9485 33.076 17.8981 33.1153 17.8393C33.1546 17.7806 33.1821 17.7147 33.1961 17.6453C33.2101 17.576 33.2103 17.5046 33.1968 17.4352C33.1833 17.3658 33.1563 17.2998 33.1174 17.2409C33.0785 17.1821 33.0284 17.1315 32.97 17.0921C32.9115 17.0527 32.8459 17.0253 32.7769 17.0114C32.7079 16.9975 32.6367 16.9974 32.5676 17.0111L29.5067 17.6227L28.1347 16.3054L31.6614 15.6456C31.7427 15.6309 31.7179 15.5176 31.7799 15.471C31.8419 15.4243 31.9387 15.5096 31.9869 15.4451C32.0352 15.3805 31.9436 15.2964 31.9589 15.2111C31.9743 15.1258 32.1089 15.1078 32.0914 15.0163C32.0739 14.9248 31.971 14.8943 31.9123 14.8236C31.8822 14.7836 31.9369 14.7224 31.8946 14.6885L29.0662 12.4822L30.8899 11.9453L33.3294 13.8842C33.4407 13.973 33.5826 14.0137 33.7239 13.9974C33.8653 13.9811 33.9945 13.909 34.0832 13.7971C34.1718 13.6852 34.2127 13.5427 34.1967 13.4008C34.1807 13.2589 34.1093 13.1293 33.998 13.0405L32.1512 11.5712L34.7178 10.8137C34.786 10.7947 34.8498 10.7622 34.9053 10.718C34.9608 10.6737 35.0069 10.6188 35.0409 10.5563C35.0748 10.4939 35.0959 10.4253 35.1029 10.3545C35.1099 10.2838 35.1026 10.2124 35.0815 10.1446ZM18.2253 11.8652L21.3392 11.281L23.2158 13.081L20.7216 13.8162L18.2253 11.8652ZM22.8995 16.6508L19.9629 17.8505L21.0208 14.8521L23.5167 14.1174L22.8995 16.6508ZM23.9593 12.3009L22.081 10.5005L22.5208 7.35152L24.5769 9.7658L23.9593 12.3009ZM25.6167 10.0191L28.5545 8.82151L27.4949 11.8195L24.999 12.5543L25.6167 10.0191ZM23.9392 16.9041L24.5565 14.3707L26.433 16.1707L25.9949 19.3201L23.9392 16.9041ZM30.2909 14.8047L27.1786 15.3893L25.3021 13.5893L27.7963 12.8542L30.2909 14.8047Z" fill="url(#paint3_linear_7_156)"/>
<path d="M262.407 51.1541C262.396 51.0134 262.357 50.8763 262.292 50.7511C262.227 50.626 262.138 50.5152 262.03 50.4253C261.921 50.3355 261.796 50.2684 261.661 50.2281C261.526 50.1878 261.385 50.1751 261.245 50.1907L255.932 50.6469L258.323 46.5734C258.395 46.4518 258.442 46.3172 258.462 46.1775C258.481 46.0378 258.474 45.8956 258.439 45.7591C258.404 45.6226 258.342 45.4944 258.257 45.382C258.173 45.2696 258.067 45.175 257.946 45.1038L257.857 45.062C257.617 44.9482 257.343 44.9298 257.09 45.0104C256.836 45.091 256.622 45.2646 256.49 45.4965L253.328 50.8564L249.548 51.1823L253.227 45.0146C253.296 44.8681 253.11 44.7611 253.127 44.6096C253.144 44.4581 253.39 44.4219 253.363 44.2653C253.289 44.0033 253.115 43.7816 252.879 43.6481C252.844 43.6317 252.891 43.5644 252.856 43.5401L252.758 43.4939C252.556 43.3971 252.328 43.3676 252.108 43.4097L245.09 44.7401L246.711 41.2967L252.843 40.2028C253.061 40.1566 253.259 40.0437 253.411 39.8798C253.562 39.7159 253.659 39.509 253.688 39.2878C253.718 39.0666 253.678 38.842 253.574 38.645C253.471 38.448 253.308 38.2884 253.11 38.1881C252.91 38.0954 252.686 38.066 252.468 38.1038L247.833 38.9141L250.113 34.0723C250.234 33.8147 250.249 33.5196 250.153 33.252C250.058 32.9844 249.86 32.7662 249.604 32.6454C249.347 32.5247 249.053 32.5112 248.786 32.608C248.519 32.7048 248.3 32.904 248.179 33.1616L245.899 38.0034L243.572 33.8957C243.461 33.7127 243.298 33.5668 243.104 33.4765C242.898 33.3786 242.666 33.3492 242.442 33.3927C242.218 33.4362 242.014 33.5503 241.859 33.7184C241.703 33.8864 241.605 34.0996 241.579 34.3268C241.553 34.554 241.6 34.7835 241.713 34.9816L244.781 40.3876L243.159 43.8309L239.698 37.5585C239.594 37.3581 239.428 37.1968 239.225 37.0985L239.127 37.0522C239.089 37.0343 239.068 37.1103 239.026 37.102C238.772 37.0048 238.491 37.0119 238.242 37.1219C238.101 37.1995 238.216 37.3979 238.127 37.523C238.037 37.648 237.804 37.5501 237.751 37.704L235.34 44.4689L233.184 41.3483L235.338 35.5136C235.428 35.264 235.423 34.9903 235.325 34.7449C235.226 34.4994 235.04 34.2995 234.803 34.1834L234.714 34.1416C234.582 34.0935 234.442 34.0722 234.301 34.0786C234.16 34.0851 234.023 34.1193 233.895 34.1792C233.767 34.2392 233.653 34.3237 233.558 34.428C233.463 34.5323 233.389 34.6543 233.341 34.7871L231.724 39.2249L228.67 34.8524C228.51 34.6178 228.264 34.4563 227.986 34.4033C227.708 34.3502 227.419 34.4099 227.184 34.5692C227.066 34.6483 226.966 34.7503 226.888 34.869C226.81 34.9878 226.757 35.121 226.732 35.2605C226.707 35.4001 226.71 35.5433 226.741 35.6814C226.772 35.8196 226.831 35.95 226.913 36.0647L229.945 40.4535L225.24 40.4253C225.095 40.4181 224.951 40.4403 224.815 40.4905C224.68 40.5408 224.555 40.6181 224.45 40.7178C224.345 40.8175 224.261 40.9375 224.203 41.0705C224.145 41.2035 224.114 41.3469 224.113 41.4918C224.112 41.6368 224.14 41.7804 224.196 41.914C224.251 42.0475 224.334 42.1683 224.437 42.269C224.541 42.3696 224.664 42.4481 224.799 42.4997C224.934 42.5513 225.078 42.5748 225.222 42.569L231.44 42.609L233.595 45.7329L226.442 45.6143C226.336 45.6154 226.342 45.7774 226.248 45.8034C226.068 45.8394 225.884 45.7528 225.725 45.8765C225.567 46.0001 225.751 46.1842 225.687 46.3448C225.623 46.5054 225.353 46.4871 225.351 46.6728C225.348 46.8586 225.575 46.837 225.638 46.9755C225.701 47.114 225.5 47.2686 225.605 47.3918L230.251 52.8331L226.472 53.159L222.482 48.3887C222.381 48.271 222.257 48.1765 222.117 48.1116C221.896 48.0074 221.646 47.9822 221.409 48.0399C221.172 48.0977 220.961 48.2351 220.812 48.4292C220.662 48.6233 220.584 48.8625 220.588 49.1072C220.593 49.3519 220.681 49.5873 220.838 49.7743L223.855 53.3861L218.55 53.8264C218.405 53.8311 218.261 53.8656 218.129 53.9278C217.997 53.9899 217.879 54.0783 217.781 54.1876C217.684 54.297 217.61 54.4249 217.564 54.5637C217.518 54.7025 217.5 54.8492 217.512 54.9949C217.524 55.1405 217.565 55.2821 217.634 55.4109C217.702 55.5398 217.796 55.6532 217.91 55.7443C218.024 55.8354 218.155 55.9022 218.295 55.9407C218.436 55.9792 218.583 55.9886 218.727 55.9683L224.039 55.5121L221.641 59.6015C221.57 59.7233 221.523 59.8579 221.504 59.9976C221.484 60.1373 221.492 60.2794 221.528 60.4158C221.563 60.5522 221.624 60.6802 221.709 60.7925C221.794 60.9048 221.9 60.9991 222.021 61.0702C222.142 61.1414 222.276 61.1878 222.415 61.2069C222.554 61.226 222.696 61.2173 222.832 61.1815C222.968 61.1457 223.096 61.0833 223.209 60.998C223.321 60.9127 223.415 60.8062 223.487 60.6844L226.644 55.3026L230.422 54.9799L226.743 61.1476C226.66 61.2834 226.858 61.3964 226.843 61.5526C226.828 61.7088 226.579 61.7356 226.607 61.8969C226.636 62.0583 226.886 62.0283 226.994 62.1609C227.102 62.2935 226.949 62.5287 227.114 62.6063C227.279 62.6839 227.367 62.4881 227.518 62.5048C227.669 62.5214 227.703 62.7707 227.86 62.74L234.88 61.4142L233.259 64.8576L227.13 65.953C226.85 66.0027 226.6 66.1619 226.437 66.3957C226.273 66.6294 226.208 66.9186 226.256 67.1994C226.305 67.4803 226.463 67.73 226.695 67.8935C226.928 68.0569 227.216 68.1208 227.496 68.0711L232.145 67.2479L229.865 72.0896C229.744 72.3473 229.729 72.6424 229.825 72.91C229.92 73.1776 230.118 73.3958 230.375 73.5165C230.631 73.6373 230.925 73.6508 231.192 73.5539C231.46 73.4571 231.678 73.258 231.799 73.0003L234.085 68.1458L236.412 72.2535C236.552 72.5012 236.785 72.6825 237.059 72.7576C237.333 72.8326 237.626 72.7953 237.873 72.6538C238.121 72.5123 238.302 72.2782 238.378 72.003C238.454 71.7278 238.418 71.434 238.278 71.1863L235.19 65.7668L236.811 62.3234L240.272 68.5958C240.349 68.737 240.547 68.6203 240.672 68.71C240.796 68.7996 240.696 69.0288 240.851 69.0862C241.006 69.1436 241.104 68.9098 241.267 68.8931C241.43 68.8763 241.553 69.1093 241.72 69.0247C241.888 68.9402 241.747 68.7455 241.836 68.6237C241.924 68.5018 242.16 68.5934 242.211 68.4426L244.622 61.6777L246.772 64.7797L244.633 70.6454C244.585 70.7779 244.563 70.9187 244.569 71.0596C244.575 71.2004 244.608 71.3387 244.667 71.4664C244.726 71.5942 244.81 71.7089 244.913 71.8041C245.017 71.8992 245.138 71.973 245.27 72.021C245.402 72.0691 245.542 72.0907 245.682 72.0844C245.823 72.0781 245.961 72.0441 246.088 71.9844C246.216 71.9247 246.331 71.8404 246.426 71.7363C246.521 71.6322 246.595 71.5104 246.644 71.3779L248.264 66.9337L251.296 71.3193C251.46 71.5541 251.709 71.7139 251.991 71.7635C252.272 71.8132 252.562 71.7486 252.797 71.584C253.031 71.4195 253.191 71.1684 253.242 70.886C253.293 70.6036 253.229 70.3131 253.066 70.0783L250.03 65.6913L254.74 65.7178C254.88 65.7185 255.019 65.6915 255.15 65.6383C255.28 65.5851 255.399 65.5066 255.499 65.4075C255.599 65.3083 255.679 65.1904 255.734 65.0605C255.789 64.9306 255.818 64.7911 255.819 64.6501C255.821 64.5092 255.794 64.3694 255.742 64.2389C255.689 64.1084 255.611 63.9896 255.513 63.8894C255.414 63.7892 255.297 63.7095 255.168 63.6548C255.038 63.6002 254.899 63.5717 254.759 63.5709L248.534 63.5468L246.377 60.4261L253.532 60.5415C253.697 60.5451 253.693 60.3139 253.833 60.2474C253.973 60.1809 254.128 60.3862 254.248 60.2793C254.368 60.1724 254.222 59.9716 254.286 59.811C254.35 59.6504 254.621 59.6687 254.623 59.483C254.625 59.2972 254.436 59.1966 254.349 59.0352C254.307 58.945 254.438 58.8472 254.369 58.764L249.72 53.3259L253.498 53.0032L257.493 57.764C257.675 57.9818 257.936 58.1178 258.219 58.1422C258.502 58.1666 258.783 58.0773 259.001 57.894C259.218 57.7106 259.355 57.4483 259.38 57.1646C259.406 56.881 259.318 56.5993 259.136 56.3815L256.112 52.7746L261.429 52.3167C261.57 52.3068 261.708 52.2686 261.834 52.2043C261.96 52.1401 262.072 52.051 262.163 51.9425C262.254 51.834 262.323 51.7083 262.365 51.5729C262.406 51.4374 262.421 51.295 262.407 51.1541ZM228.782 47.8019L235.099 47.9008L238.049 52.1657L232.883 52.6088L228.782 47.8019ZM236.009 59.0156L229.793 60.1903L233.055 54.7524L238.225 54.3108L236.009 59.0156ZM239.813 50.9375L236.86 46.6711L238.974 40.6927L242.03 46.2295L239.813 50.9375ZM243.961 47.1387L250.179 45.9687L246.914 51.4051L241.744 51.8467L243.961 47.1387ZM237.94 59.9248L240.156 55.22L243.106 59.4849L240.995 65.4648L237.94 59.9248ZM251.189 58.3524L244.874 58.255L241.924 53.9901L247.091 53.547L251.189 58.3524Z" fill="url(#paint4_linear_7_156)"/>
<defs>
<linearGradient id="paint0_linear_7_156" x1="55.0508" y1="116.925" x2="139.314" y2="136.225" gradientUnits="userSpaceOnUse">
<stop offset="0.0810811" stop-color="#01470C"/>
<stop offset="0.494792" stop-color="#016113"/>
<stop offset="1" stop-color="#01470C"/>
</linearGradient>
<linearGradient id="paint1_linear_7_156" x1="170.298" y1="137.347" x2="205.151" y2="124.876" gradientUnits="userSpaceOnUse">
<stop offset="0.0810811" stop-color="#01470C"/>
<stop offset="0.494792" stop-color="#016113"/>
<stop offset="1" stop-color="#01470C"/>
</linearGradient>
<linearGradient id="paint2_linear_7_156" x1="350.156" y1="65.2845" x2="377.37" y2="71.9146" gradientUnits="userSpaceOnUse">
<stop offset="0.0810811" stop-color="#01470C"/>
<stop offset="0.494792" stop-color="#016113"/>
<stop offset="1" stop-color="#01470C"/>
</linearGradient>
<linearGradient id="paint3_linear_7_156" x1="10.8633" y1="11.6475" x2="38.0771" y2="18.2777" gradientUnits="userSpaceOnUse">
<stop offset="0.0810811" stop-color="#01470C"/>
<stop offset="0.494792" stop-color="#016113"/>
<stop offset="1" stop-color="#01470C"/>
</linearGradient>
<linearGradient id="paint4_linear_7_156" x1="214.482" y1="44.4441" x2="265.02" y2="68.2405" gradientUnits="userSpaceOnUse">
<stop offset="0.0810811" stop-color="#01470C"/>
<stop offset="0.494792" stop-color="#016113"/>
<stop offset="1" stop-color="#01470C"/>
</linearGradient>
</defs>
</svg>
