<svg width="376" height="216" viewBox="0 0 376 216" fill="none" xmlns="http://www.w3.org/2000/svg">
<path d="M246.065 111.254C246.128 111.045 246.232 110.851 246.371 110.683C246.51 110.515 246.682 110.377 246.875 110.277C247.069 110.177 247.28 110.117 247.497 110.1C247.714 110.084 247.933 110.111 248.139 110.181L256.021 112.624L253.75 105.676C253.682 105.469 253.655 105.25 253.672 105.032C253.688 104.814 253.746 104.602 253.844 104.407C253.942 104.212 254.078 104.039 254.243 103.896C254.408 103.754 254.599 103.646 254.806 103.579L254.954 103.545C255.354 103.452 255.774 103.515 256.131 103.72C256.488 103.926 256.754 104.259 256.877 104.653L259.89 113.8L265.496 115.54L261.969 105.001C261.913 104.757 262.23 104.656 262.254 104.422C262.278 104.187 261.919 104.051 262.011 103.823C262.209 103.452 262.545 103.174 262.947 103.05C263.005 103.037 262.956 102.919 263.017 102.894L263.181 102.857C263.518 102.777 263.872 102.808 264.191 102.944L274.362 107.271L273.048 101.53L264.138 97.8528C263.824 97.711 263.561 97.4749 263.387 97.1771C263.212 96.8793 263.133 96.5345 263.162 96.1904C263.191 95.8463 263.325 95.5199 263.547 95.2562C263.768 94.9926 264.066 94.8047 264.399 94.7186C264.733 94.6445 265.081 94.674 265.398 94.8029L272.138 97.5576L270.289 89.4849C270.19 89.0553 270.266 88.6044 270.499 88.2313C270.731 87.8583 271.102 87.5937 271.53 87.4957C271.958 87.3978 272.407 87.4745 272.779 87.709C273.151 87.9436 273.415 88.3167 273.513 88.7463L275.362 96.819L280.236 91.3764C280.465 91.1365 280.76 90.9699 281.083 90.8973C281.426 90.8171 281.786 90.8492 282.111 90.9889C282.435 91.1286 282.707 91.3686 282.886 91.6739C283.065 91.9792 283.143 92.3337 283.107 92.6859C283.072 93.0381 282.925 93.3695 282.689 93.6318L276.267 100.793L277.582 106.534L284.885 98.1929C285.109 97.9243 285.413 97.7351 285.752 97.6534L285.916 97.6159C285.979 97.6013 285.985 97.723 286.052 97.7244C286.467 97.6611 286.891 97.765 287.231 98.0134C287.419 98.1772 287.178 98.4391 287.273 98.6578C287.367 98.8765 287.752 98.8052 287.781 99.0556L289.193 110.079L293.483 106.072L292.151 96.5399C292.098 96.1329 292.195 95.7207 292.426 95.3822C292.656 95.0437 293.003 94.8027 293.4 94.7055L293.548 94.6716C293.764 94.6426 293.983 94.6565 294.193 94.7127C294.404 94.7688 294.601 94.866 294.774 94.9988C294.947 95.1315 295.092 95.2971 295.202 95.4862C295.311 95.6753 295.382 95.8841 295.411 96.1006L296.391 103.344L302.452 97.7411C302.771 97.439 303.196 97.2759 303.634 97.2876C304.072 97.2992 304.489 97.4846 304.792 97.8032C304.944 97.9616 305.062 98.149 305.14 98.3541C305.219 98.5593 305.255 98.7781 305.247 98.9975C305.239 99.2168 305.187 99.4323 305.094 99.6309C305.002 99.8295 304.87 100.007 304.707 100.154L298.676 105.789L305.799 107.299C306.019 107.335 306.23 107.417 306.419 107.537C306.607 107.658 306.77 107.816 306.896 108.002C307.023 108.187 307.11 108.396 307.154 108.616C307.197 108.837 307.196 109.063 307.15 109.283C307.104 109.503 307.014 109.71 306.886 109.894C306.758 110.078 306.594 110.233 306.404 110.351C306.214 110.469 306.002 110.547 305.781 110.581C305.56 110.614 305.334 110.602 305.118 110.546L295.704 108.554L291.415 112.566L302.269 114.748C302.428 114.784 302.367 115.027 302.499 115.097C302.759 115.211 303.066 115.141 303.265 115.38C303.465 115.62 303.125 115.837 303.169 116.101C303.213 116.365 303.627 116.426 303.569 116.708C303.511 116.989 303.175 116.882 303.035 117.071C302.895 117.259 303.147 117.559 302.948 117.711L294.127 124.404L299.733 126.144L307.34 120.249C307.531 120.104 307.751 120.002 307.984 119.95C308.352 119.866 308.738 119.91 309.077 120.076C309.417 120.241 309.69 120.518 309.852 120.861C310.014 121.204 310.054 121.592 309.966 121.96C309.878 122.328 309.667 122.655 309.369 122.886L303.615 127.351L311.49 129.768C311.709 129.823 311.914 129.922 312.094 130.06C312.273 130.198 312.423 130.37 312.533 130.568C312.644 130.765 312.714 130.983 312.738 131.208C312.762 131.433 312.741 131.661 312.674 131.877C312.608 132.093 312.499 132.294 312.353 132.466C312.207 132.638 312.027 132.779 311.825 132.879C311.623 132.979 311.403 133.037 311.178 133.049C310.953 133.06 310.728 133.026 310.516 132.948L302.635 130.505L304.911 137.479C304.978 137.687 305.005 137.906 304.988 138.123C304.971 138.341 304.912 138.553 304.814 138.748C304.716 138.942 304.58 139.116 304.415 139.257C304.25 139.399 304.059 139.507 303.852 139.575C303.646 139.642 303.428 139.668 303.211 139.651C302.994 139.634 302.783 139.574 302.589 139.475C302.395 139.376 302.222 139.239 302.08 139.073C301.939 138.907 301.831 138.715 301.763 138.507L298.765 129.328L293.16 127.594L296.687 138.133C296.768 138.366 296.431 138.471 296.402 138.712C296.374 138.954 296.742 139.076 296.645 139.311C296.549 139.545 296.18 139.417 295.973 139.582C295.766 139.747 295.92 140.153 295.645 140.216C295.37 140.279 295.301 139.954 295.068 139.929C294.834 139.905 294.701 140.27 294.472 140.172L284.297 135.851L285.612 141.592L294.516 145.271C294.923 145.438 295.248 145.761 295.419 146.169C295.589 146.576 295.592 147.035 295.426 147.444C295.259 147.852 294.938 148.178 294.533 148.348C294.127 148.518 293.671 148.52 293.264 148.352L286.507 145.574L288.356 153.646C288.454 154.076 288.379 154.527 288.146 154.9C287.913 155.273 287.542 155.537 287.115 155.635C286.687 155.733 286.238 155.657 285.866 155.422C285.494 155.188 285.23 154.814 285.131 154.385L283.277 146.291L278.404 151.734C278.11 152.062 277.698 152.259 277.259 152.282C276.82 152.305 276.389 152.152 276.062 151.856C275.734 151.561 275.537 151.147 275.513 150.706C275.489 150.265 275.641 149.832 275.935 149.504L282.392 142.329L281.077 136.588L273.774 144.929C273.611 145.117 273.35 144.875 273.132 144.97C272.915 145.065 272.991 145.444 272.737 145.48C272.484 145.515 272.412 145.129 272.172 145.05C271.931 144.971 271.668 145.283 271.443 145.1C271.217 144.917 271.494 144.669 271.401 144.455C271.308 144.242 270.921 144.303 270.893 144.058L269.481 133.034L265.207 137.015L266.504 146.589C266.533 146.805 266.52 147.025 266.465 147.236C266.41 147.447 266.314 147.645 266.182 147.819C266.051 147.993 265.886 148.139 265.699 148.248C265.511 148.358 265.303 148.43 265.088 148.459C264.872 148.488 264.653 148.474 264.443 148.418C264.233 148.362 264.035 148.265 263.862 148.133C263.689 148.001 263.543 147.835 263.434 147.647C263.324 147.458 263.252 147.249 263.223 147.033L262.24 139.779L256.208 145.409C255.883 145.71 255.453 145.869 255.011 145.851C254.57 145.834 254.152 145.64 253.852 145.314C253.552 144.988 253.392 144.555 253.409 144.112C253.426 143.668 253.617 143.25 253.942 142.949L259.979 137.318L252.85 135.804C252.638 135.758 252.436 135.671 252.256 135.548C252.077 135.424 251.923 135.267 251.804 135.084C251.686 134.901 251.604 134.696 251.563 134.481C251.523 134.267 251.525 134.047 251.57 133.833C251.615 133.619 251.701 133.417 251.823 133.237C251.946 133.057 252.103 132.903 252.285 132.784C252.467 132.665 252.67 132.583 252.884 132.543C253.098 132.503 253.317 132.506 253.53 132.551L262.95 134.569L267.24 130.563L256.385 128.376C256.134 128.327 256.216 127.979 256.026 127.832C255.837 127.685 255.535 127.945 255.389 127.743C255.242 127.542 255.529 127.286 255.485 127.022C255.441 126.759 255.027 126.697 255.084 126.416C255.142 126.134 255.461 126.044 255.646 125.829C255.74 125.706 255.574 125.515 255.706 125.412L264.528 118.724L258.923 116.99L251.312 122.869C250.965 123.139 250.526 123.258 250.09 123.202C249.655 123.145 249.259 122.917 248.99 122.568C248.721 122.219 248.601 121.778 248.657 121.34C248.712 120.903 248.938 120.506 249.285 120.237L255.047 115.782L247.159 113.334C246.949 113.273 246.754 113.17 246.584 113.031C246.415 112.892 246.275 112.721 246.173 112.527C246.071 112.332 246.008 112.12 245.99 111.901C245.971 111.683 245.997 111.463 246.065 111.254ZM298.009 117.283L288.425 115.347L282.557 120.822L290.223 123.197L298.009 117.283ZM283.381 131.852L292.392 135.679L289.255 126.381L281.584 124.007L283.381 131.852ZM280.296 118.383L286.169 112.907L284.946 103.171L278.498 110.533L280.296 118.383ZM275.278 111.271L266.263 107.45L269.405 116.746L277.076 119.12L275.278 111.271ZM280.161 132.589L278.365 124.745L272.497 130.219L273.715 139.957L280.161 132.589ZM260.65 125.84L270.229 127.776L276.097 122.302L268.431 119.927L260.65 125.84Z" fill="url(#paint0_linear_7_157)"/>
<path d="M179.856 118.079C179.927 118.018 180.01 117.972 180.099 117.943C180.188 117.915 180.281 117.904 180.374 117.913C180.467 117.921 180.557 117.949 180.639 117.993C180.721 118.037 180.794 118.097 180.852 118.17L183.132 120.869L183.916 117.839C183.939 117.748 183.98 117.663 184.036 117.588C184.092 117.513 184.162 117.45 184.242 117.402C184.323 117.355 184.412 117.323 184.504 117.31C184.596 117.297 184.69 117.302 184.78 117.325L184.841 117.347C185.007 117.406 185.145 117.526 185.226 117.682C185.307 117.838 185.326 118.02 185.28 118.191L184.257 122.186L185.879 124.107L187.037 119.491C187.073 119.39 187.21 119.426 187.273 119.347C187.336 119.268 187.238 119.136 187.324 119.075C187.481 118.987 187.666 118.964 187.839 119.012C187.863 119.021 187.873 118.967 187.901 118.972L187.968 118.996C188.108 119.045 188.229 119.138 188.313 119.261L190.985 123.168L191.834 120.794L189.468 117.412C189.387 117.288 189.347 117.143 189.353 116.995C189.358 116.847 189.409 116.705 189.499 116.587C189.589 116.47 189.713 116.383 189.853 116.339C189.994 116.295 190.145 116.296 190.285 116.341C190.422 116.392 190.541 116.482 190.626 116.602L192.422 119.15L193.617 115.811C193.68 115.634 193.812 115.488 193.982 115.408C194.152 115.327 194.347 115.317 194.523 115.38C194.7 115.443 194.845 115.575 194.925 115.745C195.005 115.915 195.014 116.111 194.951 116.289L193.756 119.628L196.77 118.788C196.908 118.754 197.052 118.762 197.186 118.811C197.328 118.861 197.451 118.955 197.535 119.081C197.62 119.206 197.663 119.355 197.657 119.506C197.651 119.658 197.597 119.804 197.503 119.923C197.409 120.042 197.28 120.127 197.134 120.167L193.166 121.27L192.316 123.645L196.875 122.32C197.017 122.274 197.171 122.276 197.312 122.325L197.38 122.349C197.406 122.358 197.38 122.404 197.404 122.42C197.568 122.493 197.697 122.628 197.763 122.796C197.792 122.898 197.645 122.937 197.629 123.038C197.613 123.139 197.768 123.202 197.721 123.299L195.688 127.602L198.16 127.145L199.878 123.399C199.952 123.24 200.082 123.114 200.244 123.045C200.405 122.976 200.586 122.969 200.751 123.025L200.812 123.047C200.897 123.086 200.973 123.142 201.036 123.211C201.099 123.279 201.147 123.36 201.179 123.448C201.211 123.536 201.225 123.629 201.221 123.722C201.217 123.816 201.194 123.908 201.155 123.992L199.838 126.832L203.317 126.208C203.502 126.173 203.692 126.212 203.848 126.317C204.003 126.422 204.111 126.585 204.147 126.77C204.165 126.862 204.165 126.957 204.146 127.049C204.126 127.141 204.089 127.229 204.036 127.306C203.982 127.383 203.914 127.449 203.834 127.499C203.755 127.55 203.667 127.583 203.574 127.599L200.099 128.241L202.32 130.428C202.391 130.492 202.449 130.57 202.489 130.657C202.529 130.744 202.551 130.839 202.554 130.935C202.557 131.031 202.54 131.127 202.505 131.216C202.47 131.306 202.417 131.387 202.35 131.456C202.283 131.524 202.202 131.579 202.114 131.615C202.025 131.652 201.93 131.67 201.834 131.669C201.739 131.668 201.644 131.647 201.557 131.608C201.469 131.569 201.391 131.513 201.326 131.443L198.388 128.553L195.916 129.011L199.329 132.302C199.378 132.351 199.299 132.425 199.331 132.481C199.399 132.582 199.525 132.627 199.542 132.76C199.559 132.892 199.386 132.892 199.341 132.997C199.296 133.103 199.432 133.221 199.346 133.309C199.26 133.397 199.163 133.281 199.069 133.316C198.975 133.352 198.997 133.519 198.89 133.527L194.164 133.908L195.785 135.829L199.89 135.456C199.992 135.448 200.094 135.462 200.191 135.497C200.343 135.551 200.472 135.656 200.556 135.794C200.641 135.932 200.675 136.095 200.655 136.256C200.634 136.417 200.559 136.566 200.442 136.679C200.326 136.792 200.174 136.861 200.013 136.876L196.907 137.159L199.191 139.847C199.258 139.918 199.309 140.001 199.342 140.092C199.375 140.183 199.389 140.28 199.383 140.377C199.378 140.473 199.353 140.568 199.309 140.655C199.266 140.742 199.206 140.819 199.132 140.882C199.058 140.944 198.973 140.991 198.88 141.02C198.788 141.048 198.691 141.058 198.595 141.047C198.499 141.037 198.406 141.007 198.322 140.959C198.238 140.912 198.165 140.847 198.107 140.77L195.826 138.071L195.039 141.112C195.016 141.203 194.975 141.288 194.918 141.363C194.862 141.437 194.792 141.5 194.712 141.548C194.631 141.595 194.542 141.626 194.45 141.64C194.358 141.653 194.264 141.647 194.174 141.624C194.084 141.601 193.999 141.56 193.925 141.504C193.851 141.448 193.788 141.377 193.741 141.297C193.694 141.216 193.663 141.127 193.65 141.035C193.637 140.942 193.643 140.848 193.666 140.757L194.702 136.754L193.08 134.836L191.921 139.451C191.897 139.554 191.751 139.514 191.685 139.595C191.619 139.675 191.723 139.804 191.635 139.867C191.546 139.929 191.442 139.798 191.329 139.81C191.217 139.821 191.179 140.003 191.065 139.963C190.951 139.922 191.001 139.789 190.923 139.726C190.844 139.663 190.712 139.765 190.652 139.676L187.977 135.77L187.128 138.145L189.492 141.526C189.6 141.68 189.643 141.872 189.61 142.058C189.578 142.245 189.473 142.411 189.319 142.52C189.165 142.629 188.974 142.672 188.788 142.64C188.603 142.608 188.437 142.503 188.329 142.349L186.532 139.788L185.338 143.127C185.274 143.305 185.143 143.45 184.973 143.531C184.803 143.612 184.608 143.622 184.431 143.558C184.254 143.495 184.11 143.364 184.03 143.193C183.95 143.023 183.94 142.828 184.004 142.65L185.202 139.302L182.188 140.142C182.006 140.192 181.812 140.169 181.649 140.076C181.485 139.983 181.365 139.828 181.315 139.646C181.265 139.464 181.289 139.269 181.382 139.104C181.475 138.94 181.63 138.819 181.811 138.768L185.796 137.669L186.646 135.294L182.087 136.619C181.985 136.649 181.946 136.502 181.846 136.486C181.746 136.47 181.686 136.624 181.586 136.579C181.486 136.533 181.55 136.377 181.481 136.293C181.412 136.209 181.246 136.261 181.207 136.143C181.168 136.025 181.325 135.999 181.34 135.901C181.356 135.802 181.202 135.735 181.249 135.64L183.281 131.337L180.821 131.788L179.081 135.541C179.042 135.626 178.987 135.702 178.918 135.766C178.849 135.829 178.769 135.878 178.681 135.911C178.594 135.943 178.501 135.958 178.408 135.954C178.315 135.95 178.224 135.928 178.139 135.889C178.055 135.85 177.979 135.794 177.916 135.726C177.853 135.657 177.804 135.577 177.772 135.489C177.74 135.401 177.726 135.308 177.73 135.215C177.734 135.121 177.756 135.029 177.795 134.945L179.114 132.101L175.639 132.741C175.452 132.775 175.26 132.733 175.105 132.624C174.95 132.516 174.844 132.35 174.811 132.163C174.777 131.976 174.82 131.783 174.928 131.627C175.036 131.471 175.202 131.364 175.389 131.33L178.866 130.691L176.643 128.501C176.576 128.435 176.524 128.358 176.487 128.272C176.451 128.186 176.432 128.093 176.431 128C176.431 127.906 176.448 127.814 176.483 127.727C176.518 127.64 176.57 127.561 176.635 127.495C176.701 127.428 176.778 127.375 176.864 127.338C176.95 127.301 177.042 127.282 177.135 127.281C177.228 127.28 177.32 127.297 177.407 127.332C177.493 127.367 177.572 127.419 177.638 127.484L180.571 130.385L183.043 129.929L179.631 126.636C179.552 126.561 179.662 126.454 179.627 126.357C179.593 126.261 179.424 126.285 179.417 126.178C179.411 126.072 179.573 126.046 179.618 125.94C179.664 125.835 179.528 125.717 179.614 125.629C179.7 125.541 179.835 125.582 179.952 125.547C180.014 125.524 179.998 125.417 180.07 125.41L184.795 125.032L183.173 123.114L179.071 123.48C178.884 123.497 178.697 123.438 178.553 123.318C178.409 123.197 178.319 123.023 178.302 122.835C178.286 122.647 178.345 122.46 178.465 122.315C178.586 122.17 178.759 122.079 178.947 122.062L182.053 121.784L179.771 119.082C179.71 119.011 179.663 118.929 179.634 118.84C179.605 118.75 179.594 118.656 179.602 118.563C179.61 118.469 179.636 118.378 179.68 118.295C179.724 118.212 179.784 118.138 179.856 118.079ZM197.207 132.234L194.195 129.325L190.816 129.947L193.034 132.572L197.207 132.234ZM188.569 134.116L190.937 137.576L191.95 133.497L189.73 130.872L188.569 134.116ZM190.563 128.545L193.944 127.924L195.749 124.129L191.724 125.299L190.563 128.545ZM190.393 124.822L188.021 121.365L187.011 125.443L189.231 128.069L190.393 124.822ZM187.238 133.64L188.399 130.395L185.019 131.017L183.212 134.811L187.238 133.64ZM181.755 126.705L184.764 129.613L188.144 128.991L185.926 126.366L181.755 126.705Z" fill="url(#paint1_linear_7_157)"/>
<path d="M1.414 63.7816C1.43345 63.7135 1.46632 63.6501 1.51066 63.5951C1.55501 63.54 1.60992 63.4945 1.67213 63.4612C1.73436 63.4279 1.80262 63.4075 1.8729 63.4013C1.94317 63.395 2.01401 63.4029 2.08124 63.4246L4.64566 64.1808L3.87907 61.9399C3.85604 61.873 3.84638 61.8022 3.85063 61.7315C3.85488 61.6609 3.87296 61.5918 3.90384 61.5283C3.93472 61.4647 3.9778 61.4079 4.0306 61.3612C4.0834 61.3144 4.14489 61.2785 4.21155 61.2557L4.25936 61.244C4.38857 61.2121 4.52511 61.2305 4.64159 61.2955C4.75806 61.3605 4.84584 61.4673 4.88731 61.5944L5.9045 64.5446L7.72863 65.0832L6.53885 61.6844C6.51963 61.6055 6.62169 61.5716 6.62846 61.4954C6.63522 61.4193 6.51819 61.3769 6.54712 61.3026C6.60962 61.1813 6.71731 61.0898 6.8468 61.0479C6.86558 61.0434 6.84914 61.0056 6.86879 60.9971L6.92172 60.9842C7.03061 60.9569 7.14543 60.9652 7.24944 61.008L10.5642 62.3645L10.1125 60.5103L7.20937 59.3588C7.10704 59.3142 7.02094 59.2389 6.96298 59.1432C6.90502 59.0475 6.87805 58.9362 6.88581 58.8246C6.89357 58.7129 6.93566 58.6066 7.00628 58.5202C7.0769 58.4338 7.17255 58.3716 7.28002 58.3422C7.38773 58.3167 7.50067 58.3246 7.60391 58.365L9.7999 59.2273L9.16471 56.6201C9.13091 56.4814 9.15335 56.335 9.22711 56.2131C9.30086 56.0912 9.41988 56.0038 9.55799 55.9701C9.6961 55.9365 9.84198 55.9593 9.96353 56.0336C10.0851 56.108 10.1724 56.2277 10.2062 56.3664L10.8414 58.9736L12.396 57.1884C12.4692 57.1097 12.5639 57.0544 12.6683 57.0294C12.7792 57.0019 12.896 57.0107 13.0016 57.0545C13.1073 57.0983 13.1964 57.1748 13.2558 57.2729C13.3153 57.371 13.342 57.4856 13.3321 57.5998C13.3222 57.7141 13.2761 57.8221 13.2007 57.9082L11.1522 60.257L11.604 62.1112L13.9328 59.3761C14.004 59.288 14.1016 59.2254 14.2112 59.1974L14.2641 59.1845C14.2846 59.1795 14.287 59.2189 14.3087 59.2191C14.4429 59.1967 14.5807 59.2284 14.6919 59.3074C14.7535 59.3596 14.6768 59.4456 14.7084 59.516C14.74 59.5864 14.8642 59.5616 14.8749 59.6426L15.3817 63.2077L16.7537 61.8904L16.2795 58.808C16.2603 58.6764 16.2901 58.5424 16.3633 58.4317C16.4364 58.321 16.5477 58.2414 16.6759 58.2081L16.7237 58.1964C16.7934 58.186 16.8645 58.1896 16.9329 58.2068C17.0013 58.2241 17.0657 58.2547 17.1223 58.2969C17.179 58.3392 17.2268 58.3922 17.2631 58.4529C17.2993 58.5137 17.3233 58.581 17.3337 58.6511L17.6837 60.9934L19.6222 59.151C19.7241 59.0517 19.861 58.997 20.0031 58.9988C20.1452 59.0006 20.2809 59.0588 20.3806 59.1607C20.4305 59.2113 20.4697 59.2715 20.4959 59.3376C20.5221 59.4037 20.5348 59.4745 20.5333 59.5456C20.5317 59.6167 20.5158 59.6867 20.4867 59.7515C20.4576 59.8162 20.4157 59.8744 20.3637 59.9225L18.4348 61.7752L20.7492 62.2326C20.8208 62.2435 20.8896 62.2688 20.9512 62.3071C21.0129 62.3454 21.0662 62.3959 21.108 62.4554C21.1497 62.5149 21.1791 62.5823 21.1942 62.6535C21.2093 62.7246 21.2099 62.7981 21.196 62.8694C21.1821 62.9408 21.1539 63.0085 21.1131 63.0686C21.0724 63.1286 21.0199 63.1797 20.9589 63.2188C20.8979 63.2579 20.8296 63.2841 20.7582 63.2959C20.6867 63.3078 20.6136 63.3049 20.5432 63.2876L17.4844 62.6846L16.1128 64.0036L19.6391 64.6617C19.6906 64.6728 19.6719 64.7518 19.7153 64.774C19.7999 64.8097 19.8989 64.7855 19.9646 64.8622C20.0303 64.9389 19.9213 65.0109 19.9366 65.0962C19.952 65.1815 20.0866 65.1995 20.0691 65.291C20.0516 65.3825 19.9422 65.3492 19.8976 65.4109C19.8529 65.4727 19.936 65.5687 19.8722 65.6188L17.0443 67.8268L18.8684 68.3655L21.3067 66.4213C21.3679 66.3736 21.4385 66.3397 21.514 66.3218C21.6327 66.2927 21.7579 66.3053 21.8687 66.3574C21.9795 66.4096 22.0693 66.4982 22.1232 66.6085C22.1771 66.7188 22.1919 66.8443 22.165 66.964C22.1382 67.0837 22.0714 67.1906 21.9757 67.2668L20.1315 68.7391L22.6938 69.4867C22.7649 69.5037 22.8319 69.535 22.8906 69.5787C22.9493 69.6225 22.9986 69.6778 23.0354 69.7412C23.0721 69.8047 23.0957 69.875 23.1046 69.9478C23.1134 70.0206 23.1074 70.0945 23.0869 70.1648C23.0664 70.2352 23.0319 70.3006 22.9853 70.3571C22.9388 70.4135 22.8813 70.4598 22.8163 70.4932C22.7513 70.5266 22.6802 70.5463 22.6074 70.5511C22.5345 70.556 22.4613 70.5458 22.3924 70.5214L19.828 69.7652L20.5967 72.0146C20.6195 72.0816 20.629 72.1524 20.6246 72.223C20.6202 72.2936 20.602 72.3626 20.5711 72.4261C20.5401 72.4896 20.4969 72.5463 20.4441 72.593C20.3913 72.6396 20.3298 72.6754 20.2631 72.6982C20.1965 72.721 20.126 72.7304 20.0557 72.7258C19.9853 72.7213 19.9166 72.7028 19.8533 72.6716C19.79 72.6404 19.7334 72.5969 19.6868 72.5438C19.6402 72.4906 19.6045 72.4288 19.5816 72.3618L18.5692 69.4014L16.7454 68.8645L17.9352 72.2633C17.9626 72.3384 17.8537 72.374 17.8456 72.4523C17.8376 72.5305 17.9572 72.5686 17.927 72.645C17.8967 72.7215 17.7767 72.6816 17.7104 72.736C17.644 72.7903 17.6958 72.9212 17.607 72.9429C17.5183 72.9645 17.4945 72.8594 17.4186 72.8525C17.3428 72.8455 17.3013 72.9647 17.2268 72.9337L13.9107 71.5793L14.3625 73.4335L17.2639 74.5855C17.3966 74.638 17.5032 74.7412 17.5603 74.8725C17.6174 75.0037 17.6202 75.1523 17.5682 75.2854C17.5162 75.4185 17.4137 75.5254 17.2831 75.5824C17.1525 75.6395 17.0045 75.642 16.8718 75.5895L14.6703 74.7195L15.3055 77.3267C15.3393 77.4654 15.3169 77.6118 15.2431 77.7337C15.1694 77.8556 15.0504 77.943 14.9123 77.9767C14.7741 78.0103 14.6283 77.9875 14.5067 77.9132C14.3852 77.8388 14.2979 77.7191 14.2641 77.5804L13.6272 74.9664L12.0726 76.7515C11.9789 76.8592 11.8464 76.9249 11.7042 76.9344C11.562 76.9438 11.4218 76.8961 11.3144 76.8018C11.207 76.7075 11.1412 76.5743 11.1315 76.4315C11.1218 76.2887 11.169 76.1479 11.2627 76.0403L13.3227 73.6868L12.871 71.8327L10.5422 74.5678C10.4903 74.6295 10.4046 74.5522 10.3345 74.5838C10.2644 74.6155 10.2907 74.7381 10.2088 74.7508C10.1268 74.7634 10.1019 74.6387 10.0236 74.6142C9.94523 74.5896 9.8616 74.6918 9.78771 74.6335C9.71381 74.5752 9.80246 74.4936 9.77125 74.4249C9.74004 74.3562 9.61503 74.3776 9.60476 74.2983L9.09791 70.7331L7.73109 72.0419L8.19421 75.138C8.20472 75.208 8.20142 75.2793 8.18447 75.348C8.16753 75.4166 8.13728 75.4812 8.09545 75.538C8.05362 75.5949 8.00104 75.6429 7.9407 75.6792C7.88036 75.7156 7.81344 75.7397 7.74378 75.7502C7.67411 75.7606 7.60305 75.7571 7.53466 75.7399C7.46627 75.7228 7.40189 75.6923 7.34519 75.6501C7.28849 75.608 7.24058 75.5551 7.2042 75.4944C7.16782 75.4338 7.14369 75.3665 7.13317 75.2966L6.78233 72.9508L4.85309 74.8018C4.74937 74.9008 4.61065 74.9543 4.46744 74.9505C4.32423 74.9467 4.18826 74.886 4.08944 74.7816C3.99062 74.6773 3.93706 74.5379 3.94052 74.3941C3.94399 74.2503 4.0042 74.1139 4.10792 74.0149L6.03886 72.1635L3.72237 71.7048C3.65324 71.6911 3.58744 71.6639 3.52874 71.6247C3.47004 71.5855 3.41958 71.535 3.38024 71.4763C3.3409 71.4175 3.31346 71.3516 3.29947 71.2823C3.28549 71.2129 3.28523 71.1415 3.29873 71.0721C3.31223 71.0027 3.33921 70.9367 3.37814 70.8779C3.41706 70.819 3.46717 70.7685 3.52559 70.7291C3.58402 70.6897 3.64962 70.6623 3.71865 70.6484C3.78769 70.6345 3.8588 70.6344 3.92793 70.6481L6.98888 71.2597L8.36085 69.9424L4.83417 69.2826C4.75282 69.2679 4.77768 69.1546 4.71567 69.1079C4.65365 69.0613 4.55688 69.1466 4.5086 69.0821C4.46032 69.0175 4.55196 68.9334 4.53661 68.8481C4.52125 68.7628 4.38663 68.7447 4.40413 68.6532C4.42163 68.5618 4.52452 68.5312 4.58327 68.4606C4.61331 68.4206 4.55862 68.3594 4.60099 68.3255L7.42938 66.1191L5.60567 65.5822L3.16612 67.5212C3.05488 67.61 2.91297 67.6507 2.77162 67.6344C2.63027 67.618 2.50105 67.546 2.41239 67.4341C2.32373 67.3222 2.28289 67.1796 2.29886 67.0377C2.31483 66.8958 2.38629 66.7662 2.49753 66.6774L4.34432 65.2081L1.77777 64.4507C1.70951 64.4317 1.64573 64.3991 1.59022 64.3549C1.53471 64.3107 1.48861 64.2557 1.45466 64.1933C1.42072 64.1309 1.39962 64.0622 1.39264 63.9915C1.38565 63.9208 1.39291 63.8494 1.414 63.7816ZM18.2703 65.5021L15.1563 64.918L13.2798 66.718L15.774 67.4531L18.2703 65.5021ZM13.5961 70.2878L16.5326 71.4875L15.4747 68.4891L12.9788 67.7543L13.5961 70.2878ZM12.5363 65.9379L14.4145 64.1375L13.9747 60.9885L11.9187 63.4028L12.5363 65.9379ZM10.8789 63.6561L7.94105 62.4585L9.00064 65.4565L11.4965 66.1912L10.8789 63.6561ZM12.5563 70.5411L11.9391 68.0077L10.0625 69.8077L10.5007 72.9571L12.5563 70.5411ZM6.20466 68.4417L9.3169 69.0263L11.1934 67.2263L8.69926 66.4911L6.20466 68.4417Z" fill="url(#paint2_linear_7_157)"/>
<path d="M340.707 10.1446C340.726 10.0765 340.759 10.0131 340.803 9.95809C340.848 9.90307 340.902 9.85756 340.965 9.82427C341.027 9.79098 341.095 9.77059 341.165 9.76429C341.236 9.75799 341.307 9.76593 341.374 9.78762L343.938 10.5438L343.172 8.30298C343.149 8.23604 343.139 8.16522 343.143 8.09458C343.147 8.02394 343.166 7.95487 343.196 7.89131C343.227 7.82776 343.27 7.77097 343.323 7.72419C343.376 7.67741 343.437 7.64157 343.504 7.61872L343.552 7.60707C343.681 7.57519 343.818 7.59358 343.934 7.65856C344.051 7.72354 344.138 7.8303 344.18 7.95741L345.197 10.9076L347.021 11.4462L345.831 8.04746C345.812 7.96856 345.914 7.93461 345.921 7.85846C345.928 7.78231 345.811 7.73996 345.84 7.66568C345.902 7.54438 346.01 7.45285 346.139 7.41096C346.158 7.40639 346.142 7.3686 346.161 7.36018L346.214 7.34728C346.323 7.31996 346.438 7.32827 346.542 7.37101L349.857 8.72754L349.405 6.87336L346.502 5.7218C346.4 5.67727 346.313 5.60195 346.256 5.50625C346.198 5.41056 346.171 5.29921 346.178 5.18759C346.186 5.07598 346.228 4.96962 346.299 4.8832C346.369 4.79679 346.465 4.73459 346.573 4.70521C346.68 4.67972 346.793 4.68769 346.896 4.72805L349.092 5.59036L348.457 2.98318C348.423 2.84443 348.446 2.698 348.52 2.5761C348.593 2.4542 348.712 2.36681 348.851 2.33317C348.989 2.29952 349.135 2.32237 349.256 2.39668C349.378 2.471 349.465 2.5907 349.499 2.72945L350.134 5.33662L351.689 3.55147C351.762 3.47271 351.856 3.41741 351.961 3.39245C352.072 3.36494 352.189 3.37373 352.294 3.41754C352.4 3.46135 352.489 3.53788 352.548 3.63598C352.608 3.73408 352.635 3.84862 352.625 3.96288C352.615 4.07715 352.569 4.18517 352.493 4.2712L350.445 6.62004L350.897 8.47422L353.225 5.73911C353.297 5.65107 353.394 5.58843 353.504 5.56044L353.557 5.54754C353.577 5.54255 353.579 5.58195 353.601 5.5821C353.735 5.55974 353.873 5.59148 353.984 5.67044C354.046 5.72267 353.969 5.8086 354.001 5.87902C354.033 5.94945 354.157 5.92465 354.167 6.00563L354.674 9.57077L356.046 8.25348L355.572 5.17101C355.553 5.03939 355.583 4.9054 355.656 4.7947C355.729 4.68401 355.84 4.60439 355.968 4.5711L356.016 4.55945C356.086 4.54909 356.157 4.55263 356.225 4.56987C356.294 4.58712 356.358 4.61774 356.415 4.65997C356.472 4.7022 356.519 4.75521 356.556 4.81598C356.592 4.87675 356.616 4.94408 356.626 5.01411L356.976 7.35643L358.915 5.51407C359.017 5.41476 359.154 5.36003 359.296 5.36184C359.438 5.36365 359.573 5.42185 359.673 5.52373C359.723 5.57435 359.762 5.63452 359.788 5.70065C359.815 5.76678 359.827 5.8375 359.826 5.90861C359.824 5.97971 359.808 6.04974 359.779 6.11451C359.75 6.17927 359.708 6.23745 359.656 6.28557L357.727 8.13827L360.042 8.5956C360.113 8.60652 360.182 8.63189 360.244 8.67019C360.305 8.70848 360.359 8.75891 360.401 8.81844C360.442 8.87796 360.472 8.94533 360.487 9.01649C360.502 9.08765 360.502 9.16112 360.489 9.23247C360.475 9.30382 360.446 9.37156 360.406 9.4316C360.365 9.49165 360.312 9.54276 360.251 9.58184C360.19 9.62092 360.122 9.64716 360.051 9.65898C359.979 9.6708 359.906 9.66796 359.836 9.65062L356.777 9.0476L355.405 10.3666L358.932 11.0247C358.983 11.0358 358.964 11.1149 359.008 11.137C359.092 11.1727 359.191 11.1486 359.257 11.2252C359.323 11.3019 359.214 11.3739 359.229 11.4592C359.245 11.5445 359.379 11.5626 359.362 11.6541C359.344 11.7455 359.235 11.7122 359.19 11.774C359.145 11.8357 359.229 11.9318 359.165 11.9818L356.337 14.1899L358.161 14.7285L360.599 12.7844C360.66 12.7367 360.731 12.7027 360.807 12.6848C360.925 12.6557 361.05 12.6683 361.161 12.7205C361.272 12.7726 361.362 12.8612 361.416 12.9715C361.47 13.0819 361.484 13.2073 361.458 13.327C361.431 13.4468 361.364 13.5536 361.268 13.6298L359.424 15.1022L361.986 15.8498C362.057 15.8667 362.124 15.898 362.183 15.9418C362.242 15.9855 362.291 16.0408 362.328 16.1043C362.365 16.1677 362.388 16.238 362.397 16.3108C362.406 16.3837 362.4 16.4575 362.379 16.5279C362.359 16.5982 362.324 16.6636 362.278 16.7201C362.231 16.7765 362.174 16.8229 362.109 16.8562C362.044 16.8896 361.973 16.9093 361.9 16.9141C361.827 16.919 361.754 16.9089 361.685 16.8844L359.121 16.1282L359.889 18.3776C359.912 18.4446 359.922 18.5154 359.917 18.586C359.913 18.6566 359.895 18.7256 359.864 18.7891C359.833 18.8526 359.789 18.9093 359.737 18.956C359.684 19.0027 359.622 19.0385 359.556 19.0613C359.489 19.0841 359.419 19.0934 359.348 19.0889C359.278 19.0843 359.209 19.0659 359.146 19.0346C359.083 19.0034 359.026 18.96 358.979 18.9068C358.933 18.8537 358.897 18.7919 358.874 18.7249L357.862 15.7644L356.038 15.2275L357.228 18.6263C357.255 18.7014 357.146 18.737 357.138 18.8153C357.13 18.8936 357.25 18.9317 357.219 19.0081C357.189 19.0845 357.069 19.0447 357.003 19.099C356.937 19.1533 356.988 19.2843 356.9 19.3059C356.811 19.3275 356.787 19.2225 356.711 19.2155C356.635 19.2086 356.594 19.3277 356.519 19.2968L353.203 17.9424L353.655 19.7966L356.556 20.9485C356.689 21.001 356.796 21.1042 356.853 21.2355C356.91 21.3668 356.913 21.5153 356.861 21.6484C356.809 21.7816 356.706 21.8884 356.576 21.9455C356.445 22.0025 356.297 22.0051 356.164 21.9526L353.963 21.0825L354.598 23.6897C354.632 23.8284 354.609 23.9749 354.536 24.0968C354.462 24.2187 354.343 24.3061 354.205 24.3397C354.067 24.3734 353.921 24.3505 353.799 24.2762C353.678 24.2019 353.59 24.0822 353.557 23.9434L352.92 21.3294L351.365 23.1145C351.271 23.2222 351.139 23.288 350.997 23.2974C350.855 23.3068 350.714 23.2591 350.607 23.1648C350.499 23.0705 350.434 22.9373 350.424 22.7945C350.414 22.6517 350.462 22.511 350.555 22.4033L352.615 20.0499L352.164 18.1957L349.835 20.9308C349.783 20.9925 349.697 20.9153 349.627 20.9469C349.557 20.9785 349.583 21.1011 349.501 21.1138C349.419 21.1265 349.394 21.0017 349.316 20.9772C349.238 20.9527 349.154 21.0548 349.08 20.9965C349.006 20.9382 349.095 20.8566 349.064 20.7879C349.033 20.7192 348.908 20.7406 348.897 20.6613L348.39 17.0962L347.024 18.4049L347.487 21.501C347.497 21.571 347.494 21.6424 347.477 21.711C347.46 21.7796 347.43 21.8442 347.388 21.9011C347.346 21.9579 347.294 22.0059 347.233 22.0423C347.173 22.0787 347.106 22.1028 347.036 22.1132C346.967 22.1236 346.896 22.1201 346.827 22.103C346.759 22.0858 346.694 22.0553 346.638 22.0132C346.581 21.9711 346.533 21.9182 346.497 21.8575C346.46 21.7968 346.436 21.7296 346.426 21.6596L346.075 19.3139L344.146 21.1648C344.042 21.2638 343.903 21.3173 343.76 21.3135C343.617 21.3098 343.481 21.249 343.382 21.1447C343.283 21.0403 343.23 20.9009 343.233 20.7571C343.237 20.6133 343.297 20.4769 343.4 20.3779L345.331 18.5265L343.015 18.0679C342.946 18.0542 342.88 18.0269 342.821 17.9877C342.763 17.9485 342.712 17.8981 342.673 17.8393C342.633 17.7806 342.606 17.7147 342.592 17.6453C342.578 17.576 342.578 17.5046 342.591 17.4352C342.605 17.3658 342.632 17.2998 342.671 17.2409C342.71 17.1821 342.76 17.1315 342.818 17.0921C342.877 17.0527 342.942 17.0253 343.011 17.0114C343.08 16.9975 343.151 16.9974 343.22 17.0111L346.281 17.6227L347.653 16.3054L344.127 15.6456C344.045 15.6309 344.07 15.5176 344.008 15.471C343.946 15.4243 343.849 15.5096 343.801 15.4451C343.753 15.3805 343.845 15.2964 343.829 15.2111C343.814 15.1258 343.679 15.1078 343.697 15.0163C343.714 14.9248 343.817 14.8943 343.876 14.8236C343.906 14.7836 343.851 14.7224 343.894 14.6885L346.722 12.4822L344.898 11.9453L342.459 13.8842C342.347 13.973 342.206 14.0137 342.064 13.9974C341.923 13.9811 341.794 13.909 341.705 13.7971C341.616 13.6852 341.575 13.5427 341.591 13.4008C341.607 13.2589 341.679 13.1293 341.79 13.0405L343.637 11.5712L341.07 10.8137C341.002 10.7947 340.938 10.7622 340.883 10.718C340.827 10.6737 340.781 10.6188 340.747 10.5563C340.713 10.4939 340.692 10.4253 340.685 10.3545C340.678 10.2838 340.685 10.2124 340.707 10.1446ZM357.563 11.8652L354.449 11.281L352.572 13.081L355.067 13.8162L357.563 11.8652ZM352.889 16.6508L355.825 17.8505L354.767 14.8521L352.271 14.1174L352.889 16.6508ZM351.829 12.3009L353.707 10.5005L353.267 7.35152L351.211 9.7658L351.829 12.3009ZM350.171 10.0191L347.234 8.82151L348.293 11.8195L350.789 12.5543L350.171 10.0191ZM351.849 16.9041L351.232 14.3707L349.355 16.1707L349.793 19.3201L351.849 16.9041ZM345.497 14.8047L348.609 15.3893L350.486 13.5893L347.992 12.8542L345.497 14.8047Z" fill="url(#paint3_linear_7_157)"/>
<path d="M113.382 51.1541C113.392 51.0134 113.431 50.8763 113.496 50.7511C113.561 50.626 113.65 50.5152 113.758 50.4253C113.867 50.3355 113.992 50.2684 114.127 50.2281C114.262 50.1878 114.403 50.1751 114.543 50.1907L119.856 50.6469L117.465 46.5734C117.393 46.4518 117.346 46.3172 117.326 46.1775C117.307 46.0378 117.314 45.8956 117.35 45.7591C117.385 45.6226 117.446 45.4944 117.531 45.382C117.615 45.2696 117.721 45.175 117.842 45.1038L117.931 45.062C118.171 44.9482 118.445 44.9298 118.698 45.0104C118.952 45.091 119.166 45.2646 119.298 45.4965L122.461 50.8564L126.24 51.1823L122.561 45.0146C122.492 44.8681 122.678 44.7611 122.661 44.6096C122.644 44.4581 122.398 44.4219 122.425 44.2653C122.499 44.0033 122.673 43.7816 122.909 43.6481C122.944 43.6317 122.897 43.5644 122.932 43.5401L123.03 43.4939C123.232 43.3971 123.46 43.3676 123.68 43.4097L130.698 44.7401L129.077 41.2967L122.945 40.2028C122.727 40.1566 122.529 40.0437 122.377 39.8798C122.226 39.7159 122.129 39.509 122.1 39.2878C122.07 39.0666 122.11 38.842 122.214 38.645C122.317 38.448 122.48 38.2884 122.678 38.1881C122.878 38.0954 123.102 38.066 123.32 38.1038L127.955 38.9141L125.675 34.0723C125.554 33.8147 125.539 33.5196 125.635 33.252C125.73 32.9844 125.928 32.7662 126.185 32.6454C126.441 32.5247 126.735 32.5112 127.002 32.608C127.269 32.7048 127.488 32.904 127.609 33.1616L129.889 38.0034L132.216 33.8957C132.327 33.7127 132.49 33.5668 132.684 33.4765C132.89 33.3786 133.122 33.3492 133.346 33.3927C133.57 33.4362 133.774 33.5503 133.93 33.7184C134.085 33.8864 134.183 34.0996 134.209 34.3268C134.235 34.554 134.188 34.7835 134.075 34.9816L131.008 40.3876L132.629 43.8309L136.09 37.5585C136.194 37.3581 136.36 37.1968 136.563 37.0985L136.661 37.0522C136.699 37.0343 136.72 37.1103 136.762 37.102C137.016 37.0048 137.297 37.0119 137.546 37.1219C137.687 37.1995 137.572 37.3979 137.662 37.523C137.751 37.648 137.984 37.5501 138.037 37.704L140.448 44.4689L142.604 41.3483L140.45 35.5136C140.36 35.264 140.365 34.9903 140.464 34.7449C140.562 34.4994 140.748 34.2995 140.985 34.1834L141.074 34.1416C141.206 34.0935 141.347 34.0722 141.487 34.0786C141.628 34.0851 141.766 34.1193 141.893 34.1792C142.021 34.2392 142.135 34.3237 142.23 34.428C142.325 34.5323 142.399 34.6543 142.447 34.7871L144.064 39.2249L147.119 34.8524C147.278 34.6178 147.524 34.4563 147.802 34.4033C148.081 34.3502 148.369 34.4099 148.604 34.5692C148.722 34.6483 148.823 34.7503 148.9 34.869C148.978 34.9878 149.031 35.121 149.056 35.2605C149.081 35.4001 149.078 35.5433 149.047 35.6814C149.016 35.8196 148.957 35.95 148.875 36.0647L145.843 40.4535L150.548 40.4253C150.693 40.4181 150.837 40.4403 150.973 40.4905C151.109 40.5408 151.233 40.6181 151.338 40.7178C151.443 40.8175 151.528 40.9375 151.585 41.0705C151.643 41.2035 151.674 41.3469 151.675 41.4918C151.676 41.6368 151.648 41.7804 151.592 41.914C151.537 42.0475 151.455 42.1683 151.351 42.269C151.247 42.3696 151.124 42.4481 150.989 42.4997C150.854 42.5513 150.71 42.5748 150.566 42.569L144.348 42.609L142.194 45.7329L149.347 45.6143C149.452 45.6154 149.447 45.7774 149.54 45.8034C149.72 45.8394 149.904 45.7528 150.063 45.8765C150.222 46.0001 150.037 46.1842 150.101 46.3448C150.165 46.5054 150.435 46.4871 150.438 46.6728C150.44 46.8586 150.213 46.837 150.15 46.9755C150.087 47.114 150.288 47.2686 150.183 47.3918L145.537 52.8331L149.316 53.159L153.306 48.3887C153.407 48.271 153.531 48.1765 153.672 48.1116C153.892 48.0074 154.142 47.9822 154.379 48.0399C154.616 48.0977 154.827 48.2351 154.976 48.4292C155.126 48.6233 155.204 48.8625 155.2 49.1072C155.195 49.3519 155.107 49.5873 154.95 49.7743L151.933 53.3861L157.238 53.8264C157.384 53.8311 157.527 53.8656 157.659 53.9278C157.791 53.9899 157.91 54.0783 158.007 54.1876C158.104 54.297 158.178 54.4249 158.224 54.5637C158.271 54.7025 158.288 54.8492 158.276 54.9949C158.264 55.1405 158.223 55.2821 158.154 55.4109C158.086 55.5398 157.992 55.6532 157.878 55.7443C157.765 55.8354 157.633 55.9022 157.493 55.9407C157.352 55.9792 157.206 55.9886 157.061 55.9683L151.749 55.5121L154.147 59.6015C154.218 59.7233 154.265 59.8579 154.284 59.9976C154.304 60.1373 154.296 60.2794 154.261 60.4158C154.225 60.5522 154.164 60.6802 154.079 60.7925C153.994 60.9048 153.888 60.9991 153.767 61.0702C153.646 61.1414 153.512 61.1878 153.373 61.2069C153.234 61.226 153.092 61.2173 152.956 61.1815C152.82 61.1457 152.692 61.0833 152.58 60.998C152.467 60.9127 152.373 60.8062 152.301 60.6844L149.144 55.3026L145.366 54.9799L149.045 61.1476C149.128 61.2834 148.93 61.3964 148.945 61.5526C148.961 61.7088 149.209 61.7356 149.181 61.8969C149.152 62.0583 148.902 62.0283 148.794 62.1609C148.686 62.2935 148.839 62.5287 148.674 62.6063C148.509 62.6839 148.421 62.4881 148.27 62.5048C148.119 62.5214 148.085 62.7707 147.928 62.74L140.908 61.4142L142.529 64.8576L148.658 65.953C148.938 66.0027 149.188 66.1619 149.352 66.3957C149.515 66.6294 149.58 66.9186 149.532 67.1994C149.483 67.4803 149.325 67.73 149.093 67.8935C148.86 68.0569 148.572 68.1208 148.292 68.0711L143.643 67.2479L145.923 72.0896C146.044 72.3473 146.059 72.6424 145.963 72.91C145.868 73.1776 145.67 73.3958 145.413 73.5165C145.157 73.6373 144.863 73.6508 144.596 73.5539C144.329 73.4571 144.11 73.258 143.989 73.0003L141.703 68.1458L139.376 72.2535C139.236 72.5012 139.003 72.6825 138.729 72.7576C138.455 72.8326 138.162 72.7953 137.915 72.6538C137.667 72.5123 137.486 72.2782 137.41 72.003C137.334 71.7278 137.37 71.434 137.51 71.1863L140.598 65.7668L138.977 62.3234L135.516 68.5958C135.439 68.737 135.241 68.6203 135.116 68.71C134.992 68.7996 135.092 69.0288 134.937 69.0862C134.782 69.1436 134.684 68.9098 134.521 68.8931C134.358 68.8763 134.235 69.1093 134.068 69.0247C133.9 68.9402 134.041 68.7455 133.952 68.6237C133.864 68.5018 133.628 68.5934 133.577 68.4426L131.166 61.6777L129.016 64.7797L131.155 70.6454C131.203 70.7779 131.225 70.9187 131.219 71.0596C131.214 71.2004 131.18 71.3387 131.121 71.4664C131.062 71.5942 130.978 71.7089 130.875 71.8041C130.772 71.8992 130.65 71.973 130.518 72.021C130.386 72.0691 130.246 72.0907 130.106 72.0844C129.965 72.0781 129.827 72.0441 129.7 71.9844C129.572 71.9247 129.457 71.8404 129.362 71.7363C129.267 71.6322 129.193 71.5104 129.144 71.3779L127.524 66.9337L124.492 71.3193C124.329 71.5541 124.079 71.7139 123.797 71.7635C123.516 71.8132 123.226 71.7486 122.991 71.584C122.757 71.4195 122.597 71.1684 122.546 70.886C122.496 70.6036 122.559 70.3131 122.722 70.0783L125.758 65.6913L121.049 65.7178C120.908 65.7185 120.769 65.6915 120.638 65.6383C120.508 65.5851 120.389 65.5066 120.289 65.4075C120.189 65.3083 120.109 65.1904 120.054 65.0605C119.999 64.9306 119.97 64.7911 119.969 64.6501C119.967 64.5092 119.994 64.3694 120.046 64.2389C120.099 64.1084 120.177 63.9896 120.275 63.8894C120.374 63.7892 120.491 63.7095 120.62 63.6548C120.75 63.6002 120.889 63.5717 121.029 63.5709L127.254 63.5468L129.411 60.4261L122.256 60.5415C122.091 60.5451 122.095 60.3139 121.955 60.2474C121.815 60.1809 121.66 60.3862 121.54 60.2793C121.42 60.1724 121.566 59.9716 121.502 59.811C121.438 59.6504 121.168 59.6687 121.165 59.483C121.163 59.2972 121.352 59.1966 121.439 59.0352C121.481 58.945 121.35 58.8472 121.419 58.764L126.068 53.3259L122.29 53.0032L118.295 57.764C118.113 57.9818 117.852 58.1178 117.569 58.1422C117.287 58.1666 117.005 58.0773 116.788 57.894C116.57 57.7106 116.433 57.4483 116.408 57.1646C116.382 56.881 116.47 56.5993 116.652 56.3815L119.676 52.7746L114.359 52.3167C114.218 52.3068 114.08 52.2686 113.954 52.2043C113.828 52.1401 113.716 52.051 113.625 51.9425C113.534 51.834 113.465 51.7083 113.423 51.5729C113.382 51.4374 113.367 51.295 113.382 51.1541ZM147.007 47.8019L140.689 47.9008L137.739 52.1657L142.906 52.6088L147.007 47.8019ZM139.779 59.0156L145.995 60.1903L142.733 54.7524L137.563 54.3108L139.779 59.0156ZM135.975 50.9375L138.928 46.6711L136.814 40.6927L133.758 46.2295L135.975 50.9375ZM131.827 47.1387L125.609 45.9687L128.874 51.4051L134.044 51.8467L131.827 47.1387ZM137.848 59.9248L135.632 55.22L132.682 59.4849L134.793 65.4648L137.848 59.9248ZM124.599 58.3524L130.914 58.255L133.864 53.9901L128.697 53.547L124.599 58.3524Z" fill="url(#paint4_linear_7_157)"/>
<defs>
<linearGradient id="paint0_linear_7_157" x1="320.737" y1="116.925" x2="236.474" y2="136.225" gradientUnits="userSpaceOnUse">
<stop offset="0.0810811" stop-color="#01470C"/>
<stop offset="0.494792" stop-color="#016113"/>
<stop offset="1" stop-color="#01470C"/>
</linearGradient>
<linearGradient id="paint1_linear_7_157" x1="205.49" y1="137.347" x2="170.637" y2="124.876" gradientUnits="userSpaceOnUse">
<stop offset="0.0810811" stop-color="#01470C"/>
<stop offset="0.494792" stop-color="#016113"/>
<stop offset="1" stop-color="#01470C"/>
</linearGradient>
<linearGradient id="paint2_linear_7_157" x1="25.6322" y1="65.2845" x2="-1.58153" y2="71.9146" gradientUnits="userSpaceOnUse">
<stop offset="0.0810811" stop-color="#01470C"/>
<stop offset="0.494792" stop-color="#016113"/>
<stop offset="1" stop-color="#01470C"/>
</linearGradient>
<linearGradient id="paint3_linear_7_157" x1="364.925" y1="11.6475" x2="337.711" y2="18.2777" gradientUnits="userSpaceOnUse">
<stop offset="0.0810811" stop-color="#01470C"/>
<stop offset="0.494792" stop-color="#016113"/>
<stop offset="1" stop-color="#01470C"/>
</linearGradient>
<linearGradient id="paint4_linear_7_157" x1="161.306" y1="44.4441" x2="110.768" y2="68.2405" gradientUnits="userSpaceOnUse">
<stop offset="0.0810811" stop-color="#01470C"/>
<stop offset="0.494792" stop-color="#016113"/>
<stop offset="1" stop-color="#01470C"/>
</linearGradient>
</defs>
</svg>
